<?xml version="1.0" encoding="UTF-8" standalone="no"?>
<!-- Created with Inkscape (http://www.inkscape.org/) -->

<svg
   width="256"
   height="256"
   viewBox="0 0 67.733332 67.733333"
   version="1.1"
   id="svg1"
   xml:space="preserve"
   inkscape:version="1.3 (0e150ed6c4, 2023-07-21)"
   sodipodi:docname="inventory_visor.svg"
   inkscape:export-filename="..\Items\HypnoVisor\hypnoVisor_inv.png"
   inkscape:export-xdpi="96"
   inkscape:export-ydpi="96"
   xmlns:inkscape="http://www.inkscape.org/namespaces/inkscape"
   xmlns:sodipodi="http://sodipodi.sourceforge.net/DTD/sodipodi-0.dtd"
   xmlns:xlink="http://www.w3.org/1999/xlink"
   xmlns="http://www.w3.org/2000/svg"
   xmlns:svg="http://www.w3.org/2000/svg"><sodipodi:namedview
     id="namedview1"
     pagecolor="#505050"
     bordercolor="#ffffff"
     borderopacity="1"
     inkscape:showpageshadow="0"
     inkscape:pageopacity="0"
     inkscape:pagecheckerboard="1"
     inkscape:deskcolor="#d1d1d1"
     inkscape:document-units="mm"
     inkscape:zoom="4.1373684"
     inkscape:cx="140.54828"
     inkscape:cy="124.83781"
     inkscape:window-width="2560"
     inkscape:window-height="1417"
     inkscape:window-x="-8"
     inkscape:window-y="-8"
     inkscape:window-maximized="1"
     inkscape:current-layer="layer4"
     showguides="false" /><defs
     id="defs1"><linearGradient
       id="linearGradient2"
       inkscape:collect="always"><stop
         style="stop-color:#0c0c0c;stop-opacity:1;"
         offset="0"
         id="stop2" /><stop
         style="stop-color:#131313;stop-opacity:1;"
         offset="0.92366552"
         id="stop1" /><stop
         style="stop-color:#494949;stop-opacity:1;"
         offset="1"
         id="stop3" /></linearGradient><radialGradient
       inkscape:collect="always"
       xlink:href="#linearGradient2"
       id="radialGradient3"
       cx="16.942539"
       cy="70.076714"
       fx="16.942539"
       fy="70.076714"
       r="11.106048"
       gradientTransform="matrix(2.3693831,-0.6898643,-0.80552736,-2.7666367,52.574868,248.99464)"
       gradientUnits="userSpaceOnUse" /></defs><g
     inkscape:groupmode="layer"
     id="layer4"
     inkscape:label="Layer 3"><path
       style="fill:#d7d7d7;fill-opacity:1;stroke:none;stroke-width:0.79375;stroke-linecap:square;stroke-linejoin:bevel;stroke-dasharray:none;stroke-dashoffset:4.8"
       d="m 56.347519,25.226436 c -3.869856,-0.403095 -5.700951,1.238472 -11.20339,1.941341 -3.458015,0.441719 -7.367426,-0.54189 -9.483865,-1.109074 -1.673376,-0.448448 -3.458819,0.269237 -4.901941,0.481462 -3.884079,0.571191 -6.968489,3.884079 -7.311201,7.996628 -0.342712,4.112548 -0.342712,6.397297 -0.342712,6.397297 l -1.370855,1.02814 0.228477,6.854249 c 0,0 3.76984,4.112549 8.682053,5.369164 4.912211,1.256611 12.73035,-1.102174 12.73035,-1.102174 0,0 0.9139,-3.541362 1.827801,-5.026451 0.913896,-1.485086 3.312883,-2.513222 5.140688,-1.370844 1.827797,1.142372 2.926516,4.912395 2.926516,4.912395 0,0 8.218768,-0.611578 10.38928,-5.523791 2.170512,-4.912211 -2.570873,-20.354575 -7.311201,-20.848342 z"
       id="path1"
       sodipodi:nodetypes="ssssscccscsscss" /><path
       style="fill:#999999;fill-opacity:1;stroke:none;stroke-width:0.79375;stroke-linecap:square;stroke-linejoin:bevel;stroke-dashoffset:4.8;stroke-dasharray:none"
       d="m 25.788991,41.048327 -2.762511,1.459649 -0.08078,5.371742 4.178689,1.553563 z"
       id="path6" /><path
       style="fill:url(#radialGradient3);stroke:#000000;stroke-width:0.79375;stroke-linecap:square;stroke-linejoin:bevel;stroke-dashoffset:4.8;stroke-dasharray:none"
       d="m 59.758341,27.963456 c -6.956614,-1.069615 -9.580087,2.223826 -14.034913,2.460785 -5.36916,0.285595 -12.166289,-1.827805 -14.850872,-1.370853 -2.684581,0.456951 -5.254933,3.598485 -5.083567,11.99494 0.08612,4.219665 0.133227,8.095253 2.619855,9.713513 2.461364,1.601818 9.443725,2.064474 10.974409,1.024812 2.69107,-1.82781 4.18447,-7.368319 8.853407,-7.482554 4.39831,-0.107612 4.771836,3.396916 6.735649,4.249748 1.799876,0.781639 6.87036,-1.107389 9.18986,-4.764986 0.215934,-7.458411 -1.453142,-11.586002 -4.403828,-15.825405 z"
       id="path2"
       sodipodi:nodetypes="cssssssscc" /><path
       style="fill:#929292;fill-opacity:1;stroke:none;stroke-width:0.79375;stroke-linecap:square;stroke-linejoin:bevel;stroke-dasharray:none;stroke-dashoffset:4.8"
       d="m 53.098439,25.364751 c -3.207537,1.536419 -4.977146,2.91797 -7.381079,3.264088 -2.708937,0.390035 -3.557447,-0.506759 -7.378238,-1.733406 5.931669,0.510788 7.795083,0.130282 14.759317,-1.530682 z"
       id="path3"
       sodipodi:nodetypes="cscc" /><path
       style="fill:#999999;fill-opacity:1;stroke:none;stroke-width:0.79375;stroke-linecap:square;stroke-linejoin:bevel;stroke-dasharray:none;stroke-dashoffset:4.8"
       d="m 56.602864,50.99066 c -0.67898,-0.05177 -1.403222,-0.447641 -1.937696,-0.821416 -1.54758,-1.082271 -2.391377,-3.895543 -4.544679,-3.610458 2.027419,1.604568 2.779447,4.315721 3.148949,5.039783 1.333128,-0.140213 2.574079,-0.452391 3.333426,-0.607909 z"
       id="path4"
       sodipodi:nodetypes="csccc" /><path
       style="fill:#999999;fill-opacity:1;stroke:none;stroke-width:0.79375;stroke-linecap:square;stroke-linejoin:bevel;stroke-dasharray:none;stroke-dashoffset:4.8"
       d="m 46.026359,47.446045 c -2.434722,0.658845 -3.702215,5.153677 -5.792624,6.517082 1.018131,-0.227656 2.251244,-0.633609 3.1407,-0.879658 0.652547,-2.190389 1.143522,-3.518573 2.651924,-5.637424 z"
       id="path5"
       sodipodi:nodetypes="cccc" /><path
       style="fill:none;fill-opacity:1;stroke:#000000;stroke-width:0.79375;stroke-linecap:square;stroke-linejoin:bevel;stroke-dasharray:none;stroke-dashoffset:4.8"
       d="m 56.397507,25.038166 c -2.010937,-0.209465 -3.987705,-0.08047 -5.182475,0.60933 -1.421898,0.820933 -3.37777,0.99438 -6.020915,1.332011 -2.461649,0.314447 -5.632903,0.564316 -7.028039,-0.165883 -2.432182,-1.272977 -5.211328,-0.777383 -7.357767,-0.461729 -3.884079,0.571191 -6.968489,3.884079 -7.311201,7.996628 -0.342712,4.112548 -0.342712,6.397297 -0.342712,6.397297 l -1.370855,1.02814 0.228477,6.854249 c 0,0 3.76984,4.112549 8.682053,5.369164 4.912211,1.256611 12.680362,-0.913904 12.680362,-0.913904 0,0 0.913896,-3.541359 1.827799,-5.026448 0.913897,-1.485086 3.312885,-2.513226 5.140688,-1.370848 1.827799,1.142372 3.198646,4.683737 3.198646,4.683737 0,0 7.996628,-0.571189 10.16714,-5.483402 2.170512,-4.912211 -2.570873,-20.354576 -7.311201,-20.848342 z"
       id="path1-6"
       sodipodi:nodetypes="sssssscccscsscss" /><path
       style="fill:#2b2019;fill-opacity:1;stroke:#000000;stroke-width:0.79375;stroke-linecap:round;stroke-linejoin:bevel;stroke-dasharray:none;stroke-dashoffset:4.8"
       d="m 21.733555,41.962228 c 0,0 -3.513373,-0.100484 -5.775162,-3.331601 -2.261784,-3.231127 1.938676,-6.86614 0.242338,-9.127929 -1.696343,-2.261784 -5.816022,-4.28124 -5.816022,-4.28124 l -1.6155647,8.481704 c 0,0 2.5207717,-0.358673 3.8387057,1.092662 -1.711753,2.853134 -1.253806,6.258147 -0.68836,7.550596 0.565447,1.292446 3.818862,3.54217 5.169798,4.442793 1.938676,1.292446 4.859547,1.631298 4.859547,1.631298 z"
       id="path7"
       sodipodi:nodetypes="csscccsscc" /><path
       style="fill:#b3b3b3;fill-opacity:1;stroke:#000000;stroke-width:0.79375;stroke-linecap:square;stroke-linejoin:bevel;stroke-dasharray:none;stroke-dashoffset:4.8"
       d="m 10.384709,25.221458 -3.9985197,-0.565446 -1.817508,1.29245 -0.807781,5.533298 1.211672,1.534786 3.796572,0.686616 1.6155647,-8.481704"
       id="path8" /></g></svg>
