<?xml version="1.0" encoding="UTF-8" standalone="no"?>
<!-- Created with Inkscape (http://www.inkscape.org/) -->

<svg
   width="256"
   height="256"
   viewBox="0 0 67.733332 67.733333"
   version="1.1"
   id="svg1"
   xml:space="preserve"
   inkscape:version="1.3 (0e150ed6c4, 2023-07-21)"
   sodipodi:docname="visor2.svg"
   inkscape:export-filename="..\Items\HypnoVisor\anim_warn\4.png"
   inkscape:export-xdpi="96"
   inkscape:export-ydpi="96"
   xmlns:inkscape="http://www.inkscape.org/namespaces/inkscape"
   xmlns:sodipodi="http://sodipodi.sourceforge.net/DTD/sodipodi-0.dtd"
   xmlns="http://www.w3.org/2000/svg"
   xmlns:svg="http://www.w3.org/2000/svg"><sodipodi:namedview
     id="namedview1"
     pagecolor="#505050"
     bordercolor="#ffffff"
     borderopacity="1"
     inkscape:showpageshadow="0"
     inkscape:pageopacity="0"
     inkscape:pagecheckerboard="1"
     inkscape:deskcolor="#d1d1d1"
     inkscape:document-units="mm"
     inkscape:zoom="23.40449"
     inkscape:cx="93.721333"
     inkscape:cy="119.69925"
     inkscape:window-width="1885"
     inkscape:window-height="1237"
     inkscape:window-x="505"
     inkscape:window-y="142"
     inkscape:window-maximized="0"
     inkscape:current-layer="g94" /><defs
     id="defs1" /><g
     inkscape:label="Layer 1"
     inkscape:groupmode="layer"
     id="layer1" /><g
     inkscape:groupmode="layer"
     id="layer3"
     inkscape:label="Layer 2"><g
       id="g94"
       transform="translate(-1.2485225,6.69334)"
       inkscape:label="pixels warning"
       style="display:inline;stroke:none;stroke-width:0.529167;stroke-dasharray:none"><g
         id="g86"
         style="opacity:0.5"><path
           d="m 28.237057,22.49816 c -0.125728,-0.01115 -0.253282,-0.02098 -0.382406,-0.02894 -0.130166,-0.008 -0.261497,-0.01451 -0.393775,-0.01964 -0.132279,-0.0051 -0.26538,-0.0088 -0.398426,-0.01137 -0.06566,-0.0013 -0.130255,1.9e-4 -0.195853,-5.17e-4 -0.02735,0.134851 -0.05433,0.269641 -0.08268,0.404627 -0.07857,0.374118 -0.160679,0.748378 -0.243396,1.123446 -0.04158,0.188554 -0.08289,0.377604 -0.12454,0.566373 0.04422,0.0044 0.08458,0.0091 0.129191,0.01344 0.283408,0.02774 0.574259,0.05493 0.865064,0.08217 0.200998,0.01882 0.399248,0.03818 0.597896,0.05736 0.02366,-0.156459 0.04674,-0.313524 0.0677,-0.472322 0.02484,-0.188155 0.04761,-0.378023 0.06821,-0.569991 0.0206,-0.191968 0.03941,-0.386038 0.05529,-0.582394 0.01497,-0.18513 0.02736,-0.372712 0.03772,-0.562239 z"
           style="display:inline;opacity:1;fill:#ffffff;stroke:none;stroke-width:0.529;stroke-dasharray:none;stroke-dashoffset:4.8"
           id="path32" /><path
           d="m 25.732816,28.065779 c 0.0626,0.01313 0.124384,0.02726 0.188102,0.03876 0.113987,0.02056 0.22971,0.03853 0.346749,0.05426 0.117039,0.01573 0.235102,0.02888 0.3545,0.04031 0.119398,0.01143 0.240153,0.02128 0.361218,0.02894 0.101342,0.0064 0.203345,0.01036 0.305408,0.01447 0.05915,-0.255758 0.11911,-0.515953 0.176733,-0.771012 0.06341,-0.280659 0.123721,-0.562405 0.183452,-0.844393 -0.23129,-0.03119 -0.4623,-0.06353 -0.689364,-0.09922 -0.259063,-0.04072 -0.514402,-0.08504 -0.764294,-0.132808 -0.05646,-0.01079 -0.111564,-0.0224 -0.167432,-0.03359 -0.02798,0.141617 -0.05564,0.283081 -0.08216,0.42478 -0.03527,0.188434 -0.06917,0.376776 -0.101286,0.56534 -0.03212,0.188565 -0.06263,0.377179 -0.09095,0.565857 -0.0074,0.04941 -0.01354,0.09889 -0.02067,0.148312 z"
           style="opacity:1;fill:#ffffff;stroke:none;stroke-width:0.132292;stroke-dasharray:none;stroke-dashoffset:4.8"
           id="path49" /><path
           d="m 26.415979,24.532144 c -0.0412,0.186726 -0.08288,0.373253 -0.123507,0.560173 -0.08171,0.375885 -0.161647,0.752557 -0.237194,1.12913 -0.0094,0.0467 -0.01816,0.09334 -0.02739,0.140043 0.05587,0.01119 0.110973,0.0228 0.167432,0.03359 0.249892,0.04777 0.505231,0.09209 0.764294,0.132808 0.227064,0.03569 0.458074,0.06803 0.689364,0.09922 0.01576,-0.07439 0.03316,-0.14814 0.04858,-0.222726 0.03693,-0.178652 0.07285,-0.357786 0.107487,-0.537951 0.03463,-0.180166 0.06788,-0.361383 0.09973,-0.543636 0.03185,-0.182254 0.06236,-0.365438 0.09095,-0.550354 0.0045,-0.02885 0.008,-0.05841 0.0124,-0.08733 -0.198648,-0.01918 -0.396898,-0.03854 -0.597896,-0.05736 -0.290805,-0.02723 -0.581656,-0.05443 -0.865064,-0.08217 -0.04461,-0.0044 -0.08497,-0.009 -0.129191,-0.01344 z"
           style="display:inline;opacity:1;fill:#ffffff;stroke:none;stroke-width:0.529;stroke-dasharray:none;stroke-dashoffset:4.8"
           id="path44" /></g><g
         id="g89"
         style="display:inline;opacity:0"><path
           d="m 24.288459,22.488858 c -0.0073,-2.38e-4 -0.0149,-2.55e-4 -0.02222,-5.17e-4 -0.08838,-0.0032 -0.17562,-0.0081 -0.261482,-0.01447 -0.08586,-0.0063 -0.169937,-0.01428 -0.252698,-0.02325 -0.08276,-0.009 -0.163803,-0.01887 -0.242879,-0.02997 -0.04051,-0.0057 -0.07891,-0.01246 -0.118339,-0.0186 -0.05077,0.106979 -0.101602,0.21382 -0.151928,0.325561 -0.06888,0.15294 -0.137165,0.309843 -0.20464,0.471289 -0.06747,0.161447 -0.134074,0.327137 -0.19947,0.496611 -0.007,0.01805 -0.01373,0.03716 -0.02067,0.05529 0.03064,0.01197 0.05838,0.02372 0.0894,0.03566 0.16407,0.06313 0.332937,0.125618 0.502295,0.184485 0.117465,0.04083 0.233578,0.07669 0.349849,0.113172 0.006,-0.02033 0.01156,-0.04122 0.01757,-0.0615 0.05422,-0.182985 0.110156,-0.363702 0.167949,-0.542086 0.05779,-0.178384 0.117383,-0.354586 0.178283,-0.528133 0.05506,-0.156909 0.111742,-0.310767 0.168982,-0.463538 z"
           style="display:inline;opacity:1;fill:#ffffff;stroke:none;stroke-width:0.529;stroke-dasharray:none;stroke-dashoffset:4.8"
           id="path36" /><path
           d="m 22.072574,26.138764 c 0.08915,0.04799 0.177011,0.09413 0.267167,0.144178 0.166926,0.09266 0.334787,0.188289 0.499194,0.284737 0.109284,0.06411 0.213526,0.127998 0.318844,0.192236 0.02272,-0.147745 0.04494,-0.295425 0.0708,-0.441317 0.03528,-0.199023 0.07349,-0.396327 0.114205,-0.591695 0.01352,-0.06488 0.02881,-0.128296 0.04289,-0.192753 -0.01574,-0.0067 -0.02961,-0.01235 -0.04547,-0.01912 -0.150463,-0.06419 -0.305808,-0.132108 -0.462504,-0.202572 -0.156697,-0.07046 -0.314857,-0.143415 -0.469739,-0.217557 -0.01525,-0.0073 -0.02925,-0.0149 -0.04444,-0.02222 -0.02505,0.08253 -0.05122,0.163233 -0.07545,0.247013 -0.05514,0.190681 -0.108267,0.384568 -0.158647,0.58136 -0.02,0.07811 -0.03767,0.158694 -0.05684,0.237711 z"
           style="opacity:1;fill:#ffffff;stroke:none;stroke-width:0.132292;stroke-dasharray:none;stroke-dashoffset:4.8"
           id="path52" /><path
           d="m 23.755675,24.08411 c -0.116271,-0.03649 -0.232384,-0.07234 -0.349849,-0.113172 -0.169358,-0.05887 -0.338225,-0.121356 -0.502295,-0.184485 -0.03102,-0.01194 -0.05876,-0.02369 -0.0894,-0.03566 -0.0582,0.152163 -0.115591,0.306402 -0.171566,0.464571 -0.06265,0.177022 -0.123707,0.357994 -0.182935,0.542085 -0.0332,0.103207 -0.06415,0.209916 -0.09612,0.315227 0.01519,0.0073 0.02919,0.01492 0.04444,0.02222 0.154882,0.07414 0.313041,0.147094 0.469739,0.217557 0.156696,0.07046 0.312041,0.138385 0.462504,0.202572 0.01586,0.0068 0.02973,0.01244 0.04547,0.01912 0.02833,-0.129645 0.05631,-0.259681 0.08682,-0.387573 0.04568,-0.191476 0.094,-0.381092 0.144178,-0.568441 0.04462,-0.166588 0.09117,-0.330878 0.139009,-0.494026 z"
           style="opacity:1;fill:#ffffff;stroke:none;stroke-width:0.132292;stroke-dasharray:none;stroke-dashoffset:4.8"
           id="path41" /><path
           d="m 28.671654,28.246646 c -0.02763,0.07478 -0.05524,0.149518 -0.08423,0.223242 -0.03831,0.09742 -0.07812,0.194047 -0.118856,0.289388 -0.04074,0.09534 -0.08237,0.189165 -0.125574,0.282154 -0.04297,0.0925 -0.08735,0.183986 -0.132808,0.273885 0.04847,-0.01975 0.09682,-0.03948 0.143144,-0.06098 0.05638,-0.02617 0.110918,-0.05392 0.163814,-0.08268 0.0529,-0.02876 0.104403,-0.05855 0.153479,-0.08992 0.04908,-0.03137 0.09616,-0.06419 0.141076,-0.09819 0.04492,-0.03399 0.08722,-0.06932 0.127641,-0.105937 0.06599,-0.05978 0.129848,-0.122076 0.190686,-0.186552 0.06084,-0.06448 0.118815,-0.131176 0.174667,-0.199987 0.05585,-0.06881 0.109161,-0.139602 0.160197,-0.21239 0.01283,-0.0183 0.02415,-0.03779 0.03669,-0.05633 -0.226038,0.0077 -0.458773,0.01582 -0.696082,0.02222 -0.044,0.0012 -0.08957,0.001 -0.133842,0.0021 z"
           style="display:inline;opacity:1;fill:#ffffff;stroke:none;stroke-width:0.529;stroke-dasharray:none;stroke-dashoffset:4.8"
           id="path62" /><path
           d="m 23.157779,26.759915 c -0.0083,0.05381 -0.01799,0.106669 -0.02584,0.160714 -0.02938,0.202442 -0.05605,0.406741 -0.07906,0.612366 -0.01761,0.157379 -0.03131,0.316301 -0.04496,0.475423 0.03367,0.03001 0.0682,0.05988 0.0987,0.09043 0.04567,0.04575 0.08771,0.09231 0.125574,0.139009 0.03786,0.04669 0.07156,0.09377 0.100769,0.141077 0.02921,0.04731 0.05367,0.09504 0.07338,0.142627 0.01748,0.04222 0.03808,0.08307 0.0615,0.12299 0.02341,0.03992 0.05006,0.07866 0.07906,0.116272 0.029,0.03761 0.06031,0.07426 0.09457,0.109554 0.03426,0.03529 0.07141,0.06936 0.110588,0.102319 0.03917,0.03296 0.08078,0.06446 0.12454,0.09508 0.04376,0.03062 0.08946,0.06009 0.137459,0.08837 0.048,0.02827 0.09795,0.05574 0.149861,0.08165 0.05191,0.02591 0.105746,0.05036 0.161232,0.0739 0.0043,0.0018 0.0091,0.0033 0.01344,0.0052 -0.0015,-0.170435 -7.71e-4,-0.340541 0.0021,-0.510046 0.0028,-0.169677 0.0078,-0.338902 0.01499,-0.50798 0.0072,-0.169077 0.01647,-0.337616 0.02791,-0.506429 0.0048,-0.07028 0.01156,-0.140562 0.01705,-0.21084 -0.0061,-0.0036 -0.01254,-0.0067 -0.0186,-0.01033 -0.04417,-0.02635 -0.08782,-0.05332 -0.130224,-0.08165 -0.04241,-0.02833 -0.08398,-0.058 -0.12454,-0.08837 -0.110303,-0.08257 -0.235459,-0.170593 -0.371554,-0.262 -0.136096,-0.09141 -0.283053,-0.186122 -0.437182,-0.282153 -0.05168,-0.0322 -0.107591,-0.06475 -0.160714,-0.09715 z"
           style="display:inline;opacity:1;fill:#ffffff;stroke:none;stroke-width:0.529;stroke-dasharray:none;stroke-dashoffset:4.8"
           id="path58" /><path
           d="m 29.611132,22.724503 c 0.0023,6.33e-4 0.0049,9.14e-4 0.0072,0.0015 0.09941,0.02759 0.194478,0.0574 0.283703,0.08992 0.04461,0.01626 0.08789,0.03309 0.129708,0.05064 0.04181,0.01756 0.08208,0.03588 0.120924,0.05478 0.03885,0.01889 0.07591,0.03812 0.111621,0.05839 0.0346,0.01964 0.06772,0.04 0.09922,0.06098 -0.0083,-0.0656 -0.01506,-0.134962 -0.02429,-0.19792 -0.02152,-0.146801 -0.04534,-0.286106 -0.0708,-0.416512 -0.02546,-0.130407 -0.05259,-0.252145 -0.08061,-0.363286 -0.02803,-0.111141 -0.05706,-0.211753 -0.0863,-0.300757 -0.02924,-0.089 -0.05876,-0.166482 -0.08785,-0.230476 -0.01809,-0.0398 -0.03732,-0.07779 -0.05839,-0.114722 -0.02108,-0.03693 -0.04377,-0.07282 -0.0677,-0.10697 -0.02393,-0.03415 -0.04933,-0.06674 -0.07597,-0.09819 -0.02664,-0.03145 -0.0545,-0.06161 -0.08371,-0.09043 -0.02921,-0.02882 -0.05982,-0.05641 -0.09147,-0.08268 -0.03165,-0.02628 -0.06424,-0.05112 -0.09818,-0.07493 -0.03394,-0.02381 -0.06932,-0.04627 -0.105419,-0.0677 -0.01179,-0.007 -0.02416,-0.0134 -0.03617,-0.02015 0.01376,0.0386 0.02671,0.07968 0.03927,0.124023 0.01267,0.04473 0.02476,0.09233 0.03617,0.142627 0.02283,0.1006 0.04344,0.212072 0.06098,0.333313 0.01754,0.121241 0.03201,0.252528 0.04393,0.392224 0.01191,0.139696 0.02091,0.287936 0.02687,0.443901 0.005,0.131424 0.0067,0.27083 0.0072,0.412378 z"
           style="display:inline;opacity:1;fill:#ffffff;stroke:none;stroke-width:0.529;stroke-dasharray:none;stroke-dashoffset:4.8"
           id="path30" /><path
           d="m 25.370564,22.459403 c 0.04124,-0.146621 0.08305,-0.293058 0.126607,-0.441834 0.05501,-0.187906 0.111878,-0.377831 0.170533,-0.569474 0.05866,-0.191644 0.119133,-0.385129 0.181384,-0.580843 -0.08901,0.02446 -0.175581,0.04689 -0.259933,0.06718 -0.08435,0.02029 -0.166587,0.03833 -0.246496,0.05478 -0.07991,0.01645 -0.157372,0.03099 -0.233061,0.04392 -0.07569,0.01293 -0.149486,0.02436 -0.221174,0.03411 -0.0055,7.47e-4 -0.01055,0.0013 -0.01602,0.0021 -0.05777,0.128798 -0.115227,0.258813 -0.172082,0.391708 -0.06743,0.157619 -0.134267,0.317943 -0.199988,0.481107 -0.06572,0.163165 -0.130244,0.329171 -0.193787,0.497644 -0.0061,0.01615 -0.01202,0.03289 -0.01809,0.04909 0.08122,0.0026 0.163152,0.0036 0.24598,0.0031 0.09031,-5.39e-4 0.181708,-0.003 0.273368,-0.0078 0.176223,-0.0091 0.368636,-0.0173 0.562757,-0.0248 z"
           style="display:inline;opacity:1;fill:#ffffff;stroke:none;stroke-width:0.529;stroke-dasharray:none;stroke-dashoffset:4.8"
           id="path26" /></g><g
         id="g92"
         style="opacity:0"><path
           d="m 21.284508,25.735688 c -0.0072,0.02828 -0.01573,0.05527 -0.02274,0.08372 -0.04482,0.181942 -0.08651,0.367266 -0.124541,0.556039 -0.03803,0.188772 -0.07266,0.380834 -0.103353,0.576709 -0.0052,0.03315 -0.0085,0.06793 -0.01344,0.101285 0.0099,0.0022 0.01954,0.0039 0.02945,0.0062 0.07737,0.01803 0.155579,0.03817 0.233578,0.06046 0.078,0.02229 0.155795,0.04664 0.233577,0.07286 0.07778,0.02623 0.155305,0.0544 0.232027,0.08423 0.02649,0.0103 0.05225,0.02185 0.07855,0.03256 0.01139,-0.06466 0.02106,-0.130623 0.03307,-0.19482 0.03885,-0.207577 0.08062,-0.412525 0.125573,-0.614949 0.02711,-0.122081 0.05717,-0.241152 0.0863,-0.361219 -0.07591,-0.04087 -0.153017,-0.08405 -0.227376,-0.122989 -0.161687,-0.08466 -0.318983,-0.164226 -0.467672,-0.236678 -0.03319,-0.01617 -0.06071,-0.02797 -0.09302,-0.04341 z"
           style="display:inline;opacity:1;fill:#ffffff;stroke:none;stroke-width:0.529;stroke-dasharray:none;stroke-dashoffset:4.8"
           id="path56" /><path
           d="m 23.413577,21.08791 c -0.0312,0.04728 -0.063,0.09325 -0.09405,0.141077 -0.08349,0.128605 -0.166543,0.258993 -0.248563,0.391707 -0.08202,0.132714 -0.162863,0.268048 -0.24288,0.405143 -0.04521,0.07747 -0.0894,0.15723 -0.133842,0.236162 0.05532,0.01352 0.104225,0.02683 0.164848,0.04031 0.129036,0.02868 0.269481,0.05676 0.419096,0.08217 0.03648,0.0062 0.07512,0.01172 0.112655,0.01757 0.01872,-0.03944 0.03757,-0.08111 0.05633,-0.11989 0.06962,-0.143955 0.139084,-0.283572 0.208773,-0.418062 0.06969,-0.13449 0.139686,-0.26406 0.208773,-0.388607 0.06839,-0.12329 0.135942,-0.241421 0.203088,-0.3545 -0.09805,-3.72e-4 -0.193781,-0.0024 -0.283704,-0.0067 -0.104663,-0.0051 -0.203914,-0.01213 -0.299206,-0.02015 -0.02573,-0.0022 -0.04619,-0.0039 -0.07131,-0.0062 z"
           style="opacity:1;fill:#ffffff;stroke:none;stroke-width:0.132292;stroke-dasharray:none;stroke-dashoffset:4.8"
           id="path24" /><path
           d="m 21.284508,25.735688 c -0.112421,-0.05372 -0.224634,-0.106848 -0.32401,-0.150378 -0.127767,-0.05597 -0.242765,-0.103091 -0.342098,-0.138493 -0.02278,0.10584 -0.04528,0.213572 -0.06615,0.324011 -0.02332,0.12347 -0.04544,0.249469 -0.06615,0.378789 -0.02071,0.129319 -0.04001,0.2616 -0.05788,0.396875 -0.01787,0.135274 -0.0343,0.273625 -0.04909,0.414961 0.07043,0.0032 0.142939,0.0091 0.216524,0.01757 0.07359,0.0085 0.148376,0.01964 0.224276,0.03307 0.06617,0.01171 0.133174,0.02612 0.200505,0.04134 0.005,-0.03336 0.0082,-0.06814 0.01344,-0.101285 0.0307,-0.195875 0.06533,-0.387937 0.103352,-0.576709 0.03803,-0.188773 0.07972,-0.374097 0.124542,-0.556039 0.007,-0.02844 0.01557,-0.05544 0.02274,-0.08372 z"
           style="display:inline;opacity:1;fill:#ffffff;stroke:none;stroke-width:0.529;stroke-dasharray:none;stroke-dashoffset:4.8"
           id="path55" /><path
           d="m 23.413577,21.08791 c -0.161004,-0.01448 -0.315215,-0.03078 -0.456819,-0.04134 0,0 -0.03301,0.02183 -0.09147,0.06873 -0.02923,0.02345 -0.06483,0.05295 -0.105936,0.0894 -0.04111,0.03645 -0.08733,0.07993 -0.138493,0.130224 -0.05116,0.0503 -0.107003,0.107608 -0.166398,0.1726 -0.05939,0.06499 -0.122816,0.137538 -0.188619,0.218074 -0.0658,0.08054 -0.134251,0.169204 -0.204639,0.266134 -0.01613,0.02222 -0.03329,0.04924 -0.04961,0.07235 0.0011,4.13e-4 0.08271,0.03087 0.229443,0.07596 0.07386,0.0227 0.163382,0.0487 0.267167,0.07648 0.05503,0.01473 0.123603,0.03022 0.186035,0.04548 0.04444,-0.07893 0.08863,-0.158697 0.133842,-0.236162 0.08002,-0.137095 0.160859,-0.272429 0.24288,-0.405143 0.08202,-0.132714 0.165071,-0.263102 0.248563,-0.391707 0.03105,-0.04783 0.06285,-0.09379 0.09405,-0.141077 z"
           style="display:inline;opacity:1;fill:#ffffff;stroke:none;stroke-width:0.529;stroke-dasharray:none;stroke-dashoffset:4.8"
           id="path23" /><path
           d="m 21.600251,24.675288 c -0.01715,-0.0098 -0.03748,-0.01972 -0.05426,-0.02946 -0.06355,-0.03686 -0.124334,-0.07305 -0.181901,-0.109037 -0.05757,-0.03599 -0.11169,-0.07165 -0.162264,-0.106453 -0.05057,-0.0348 -0.09747,-0.06903 -0.140043,-0.10232 -0.04216,-0.03296 -0.08035,-0.06496 -0.113688,-0.09612 -0.02119,0.06368 -0.0425,0.126801 -0.06305,0.192753 -0.0315,0.101135 -0.06218,0.20505 -0.09198,0.311609 -0.0298,0.106559 -0.05895,0.215539 -0.08682,0.327629 -0.02787,0.11209 -0.05439,0.226954 -0.0801,0.344682 -0.0027,0.01242 -0.0051,0.02575 -0.0078,0.03824 0.09933,0.0354 0.214332,0.08253 0.342098,0.138493 0.09938,0.04353 0.211589,0.09666 0.324011,0.150378 0.03867,-0.15262 0.07834,-0.304201 0.12144,-0.452168 0.05108,-0.175384 0.104933,-0.347668 0.161747,-0.516765 0.01043,-0.03103 0.02195,-0.06064 0.03256,-0.09147 z"
           style="display:inline;opacity:1;fill:#ffffff;stroke:none;stroke-width:0.529;stroke-dasharray:none;stroke-dashoffset:4.8"
           id="path54" /><path
           d="m 22.694241,22.261999 c -0.06243,-0.01526 -0.131008,-0.03075 -0.186035,-0.04548 -0.103784,-0.02778 -0.193304,-0.05378 -0.267167,-0.07648 -0.146732,-0.0451 -0.228334,-0.07555 -0.229443,-0.07596 -0.05487,0.0777 -0.1095,0.155911 -0.165882,0.243913 -0.07315,0.114172 -0.147605,0.237222 -0.221692,0.369486 -0.03704,0.06613 -0.07365,0.134341 -0.110587,0.205155 -0.03694,0.07081 -0.07399,0.144023 -0.110588,0.219625 -0.0055,0.01137 -0.01104,0.02366 -0.01654,0.03514 0,0 0.111348,0.05318 0.297656,0.13746 0.09315,0.04214 0.204762,0.092 0.33073,0.146761 0.02221,0.0097 0.05032,0.02106 0.07338,0.03101 0.01934,-0.04255 0.03771,-0.08654 0.05736,-0.128675 0.07081,-0.151871 0.143661,-0.300844 0.218074,-0.447518 0.07441,-0.146674 0.150413,-0.290783 0.227893,-0.432531 0.0337,-0.06165 0.06863,-0.121142 0.102836,-0.181901 z"
           style="display:inline;opacity:1;fill:#ffffff;stroke:none;stroke-width:0.529;stroke-dasharray:none;stroke-dashoffset:4.8"
           id="path38" /><path
           d="m 22.088077,23.452624 c -0.02306,-0.0099 -0.05117,-0.02135 -0.07338,-0.03101 -0.125968,-0.05476 -0.237575,-0.104622 -0.330729,-0.146761 -0.186308,-0.08428 -0.297656,-0.13746 -0.297656,-0.13746 -0.03104,0.06485 -0.06188,0.130564 -0.0925,0.198955 -0.03604,0.0805 -0.07172,0.163583 -0.10697,0.24908 -0.03525,0.0855 -0.07016,0.173463 -0.104387,0.264067 -0.03423,0.0906 -0.06779,0.183753 -0.100769,0.279569 -0.01147,0.03333 -0.02229,0.06887 -0.03359,0.102836 0.03334,0.03116 0.07152,0.06316 0.113688,0.09612 0.04257,0.03328 0.08947,0.06752 0.140043,0.10232 0.05057,0.0348 0.104697,0.07046 0.162264,0.106453 0.05757,0.03599 0.118347,0.07218 0.181901,0.109037 0.01678,0.0097 0.03711,0.01968 0.05426,0.02946 0.0472,-0.137151 0.0951,-0.273536 0.145728,-0.406694 0.06201,-0.163083 0.126592,-0.323249 0.19327,-0.48059 0.04818,-0.11369 0.09845,-0.224566 0.148828,-0.33538 z"
           style="display:inline;opacity:1;fill:#ffffff;stroke:none;stroke-width:0.529;stroke-dasharray:none;stroke-dashoffset:4.8"
           id="path39" /></g><g
         id="g93"
         style="opacity:0"><path
           d="m 21.600251,24.675288 c -0.01061,0.03082 -0.02213,0.06044 -0.03256,0.09147 -0.05681,0.169097 -0.110664,0.341381 -0.161747,0.516765 -0.0431,0.147967 -0.08277,0.299548 -0.12144,0.452168 0.03231,0.01544 0.05983,0.02724 0.09302,0.04341 0.148689,0.07245 0.305985,0.152019 0.467672,0.236678 0.07436,0.03893 0.151466,0.08212 0.227376,0.122989 0.01917,-0.07902 0.03685,-0.159603 0.05684,-0.237711 0.05038,-0.196792 0.103509,-0.390679 0.158647,-0.58136 0.02423,-0.08378 0.0504,-0.164479 0.07545,-0.247013 -0.139074,-0.06704 -0.276474,-0.134756 -0.40721,-0.202572 -0.125872,-0.06529 -0.243272,-0.130539 -0.356051,-0.19482 z"
           style="opacity:1;fill:#ffffff;stroke:none;stroke-width:0.132292;stroke-dasharray:none;stroke-dashoffset:4.8"
           id="path53" /><path
           d="m 22.694241,22.261999 c -0.03421,0.06076 -0.06913,0.120246 -0.102836,0.181901 -0.07748,0.141748 -0.153481,0.285857 -0.227893,0.432531 -0.07441,0.146674 -0.147263,0.295647 -0.218074,0.447518 -0.01965,0.04213 -0.03802,0.08613 -0.05736,0.128675 0.107738,0.04646 0.219388,0.09434 0.342615,0.14521 0.121321,0.05008 0.252036,0.101629 0.383439,0.152963 0.0069,-0.01814 0.01371,-0.03725 0.02067,-0.05529 0.0654,-0.169474 0.131997,-0.335164 0.199471,-0.496611 0.06747,-0.161446 0.135757,-0.318349 0.204639,-0.471289 0.05033,-0.111741 0.10116,-0.218582 0.151929,-0.325561 -0.03753,-0.0058 -0.07617,-0.01138 -0.112655,-0.01757 -0.149615,-0.02541 -0.29006,-0.05348 -0.419096,-0.08217 -0.06062,-0.01348 -0.109525,-0.02679 -0.164848,-0.04031 z"
           style="opacity:1;fill:#ffffff;stroke:none;stroke-width:0.132292;stroke-dasharray:none;stroke-dashoffset:4.8"
           id="path37" /><path
           d="m 22.088077,23.452624 c -0.05038,0.110814 -0.100649,0.22169 -0.148828,0.33538 -0.06668,0.157341 -0.131258,0.317507 -0.19327,0.48059 -0.05063,0.133158 -0.09853,0.269543 -0.145727,0.406694 0.112779,0.06428 0.230179,0.129527 0.356051,0.19482 0.130736,0.06782 0.268136,0.135531 0.40721,0.202572 0.03197,-0.105311 0.06291,-0.21202 0.09612,-0.315227 0.05923,-0.184091 0.120287,-0.365063 0.182935,-0.542085 0.05598,-0.158169 0.113368,-0.312408 0.171565,-0.464571 -0.131402,-0.05133 -0.262118,-0.102878 -0.383438,-0.152963 -0.123227,-0.05087 -0.234878,-0.09875 -0.342615,-0.14521 z"
           style="display:inline;opacity:1;fill:#ffffff;stroke:none;stroke-width:0.529;stroke-dasharray:none;stroke-dashoffset:4.8"
           id="path40" /><path
           d="m 22.072574,26.138764 c -0.02913,0.120067 -0.05919,0.239138 -0.0863,0.361219 -0.04495,0.202424 -0.08672,0.407372 -0.125573,0.614949 -0.01202,0.0642 -0.02168,0.130161 -0.03307,0.19482 0.04986,0.02029 0.09984,0.04034 0.148828,0.06201 0.07482,0.0331 0.148588,0.06732 0.220658,0.103353 0.07207,0.03604 0.14288,0.07349 0.211357,0.112138 0.06848,0.03864 0.134912,0.07845 0.198954,0.119372 0.06404,0.04092 0.125722,0.08323 0.184485,0.126091 0.05876,0.04286 0.114275,0.08627 0.166915,0.130741 0.01748,0.01477 0.03235,0.03004 0.04909,0.04496 0.01365,-0.159122 0.02734,-0.318044 0.04496,-0.475423 0.02302,-0.205625 0.04969,-0.409924 0.07906,-0.612366 0.0078,-0.05404 0.01756,-0.106907 0.02584,-0.160714 -0.105318,-0.06424 -0.20956,-0.128126 -0.318844,-0.192236 -0.164407,-0.09645 -0.332268,-0.19208 -0.499194,-0.284737 -0.09016,-0.05004 -0.178019,-0.09618 -0.267167,-0.144178 z"
           style="display:inline;opacity:1;fill:#ffffff;stroke:none;stroke-width:0.529;stroke-dasharray:none;stroke-dashoffset:4.8"
           id="path57" /><path
           d="m 24.288459,22.488858 c 0.0061,-0.0162 0.012,-0.03294 0.01809,-0.04909 0.06354,-0.168473 0.128066,-0.334479 0.193787,-0.497644 0.06572,-0.163164 0.132555,-0.323488 0.199988,-0.481107 0.05685,-0.132895 0.114314,-0.26291 0.172082,-0.391708 -0.06592,0.0088 -0.130562,0.01638 -0.193269,0.02274 -0.06791,0.0069 -0.134085,0.01219 -0.198437,0.01654 -0.128707,0.0087 -0.250585,0.01292 -0.366386,0.01344 -0.01631,7.2e-5 -0.03043,-9.72e-4 -0.04651,-0.001 -0.06715,0.113079 -0.134699,0.23121 -0.203088,0.3545 -0.06909,0.124547 -0.139084,0.254117 -0.208773,0.388607 -0.06969,0.13449 -0.139152,0.274107 -0.208774,0.418062 -0.01875,0.03878 -0.03761,0.08045 -0.05633,0.11989 0.03943,0.0061 0.07782,0.01292 0.118338,0.0186 0.07908,0.0111 0.160119,0.021 0.242879,0.02997 0.08276,0.009 0.166836,0.01693 0.252698,0.02325 0.08586,0.0063 0.173104,0.01131 0.261482,0.01447 0.0073,2.62e-4 0.01488,2.79e-4 0.02222,5.17e-4 z"
           style="display:inline;opacity:1;fill:#ffffff;stroke:none;stroke-width:0.529;stroke-dasharray:none;stroke-dashoffset:4.8"
           id="path25" /></g><g
         id="g87"
         style="display:inline;opacity:0.25"><path
           d="m 25.732816,28.065779 c -0.02009,0.139286 -0.04025,0.278723 -0.05788,0.418062 -0.02388,0.188777 -0.04528,0.377516 -0.06408,0.566374 -0.01877,0.188516 -0.03499,0.377275 -0.04806,0.565857 0.04003,0.0046 0.08001,0.0097 0.120406,0.01344 0.07109,0.0066 0.142482,0.01185 0.214457,0.01602 0.07197,0.0042 0.144518,0.0071 0.217041,0.0088 0.07252,0.0017 0.145338,0.0023 0.218075,0.0016 0.07274,-7.82e-4 0.145461,-0.0029 0.218075,-0.0062 0.07261,-0.0033 0.144887,-0.0077 0.217041,-0.01344 0.06921,-0.0055 0.138224,-0.01231 0.206705,-0.02015 0.103823,-0.465347 0.208837,-0.917975 0.314193,-1.37356 -0.102063,-0.0041 -0.204067,-0.0081 -0.305408,-0.01447 -0.121065,-0.0077 -0.24182,-0.01751 -0.361218,-0.02894 -0.119398,-0.01143 -0.237461,-0.02458 -0.3545,-0.04031 -0.117039,-0.01573 -0.232762,-0.0337 -0.346749,-0.05426 -0.06372,-0.0115 -0.125507,-0.02562 -0.188102,-0.03876 z"
           style="display:inline;opacity:1;fill:#ffffff;stroke:none;stroke-width:0.529;stroke-dasharray:none;stroke-dashoffset:4.8"
           id="path60" /><path
           d="m 28.237057,22.49816 c 6.27e-4,-0.01149 0.0015,-0.0226 0.0021,-0.03411 0.01068,-0.201318 0.01878,-0.405509 0.02377,-0.612365 0.005,-0.206857 0.0069,-0.41645 0.0057,-0.629419 -0.0012,-0.21297 -0.0056,-0.428882 -0.01344,-0.64854 -0.09858,-0.0071 -0.198843,-0.01102 -0.300239,-0.01188 -0.101397,-8.61e-4 -0.203853,9.78e-4 -0.306959,0.0057 -0.103105,0.0047 -0.206869,0.01207 -0.310575,0.0217 -0.0478,0.0044 -0.09539,0.01115 -0.143144,0.01654 -0.02735,0.18541 -0.05711,0.370835 -0.08837,0.556555 -0.03135,0.186224 -0.06458,0.37262 -0.09922,0.559139 -0.03464,0.186519 -0.07072,0.373375 -0.108004,0.560173 -0.01038,0.052 -0.02149,0.104041 -0.03204,0.156062 0.0656,7.07e-4 0.130197,-7.51e-4 0.195853,5.17e-4 0.133046,0.0026 0.266147,0.0062 0.398426,0.01137 0.132278,0.0051 0.263609,0.01161 0.393775,0.01964 0.129124,0.008 0.256678,0.01779 0.382406,0.02894 z"
           style="display:inline;opacity:1;fill:#ffffff;stroke:none;stroke-width:0.529;stroke-dasharray:none;stroke-dashoffset:4.8"
           id="path28" /><path
           d="m 27.288793,28.242512 c 0.01986,8.01e-4 0.03955,0.0024 0.05943,0.0031 0.122039,0.0044 0.244066,0.0076 0.366386,0.0093 0.12232,0.0017 0.244994,0.002 0.366902,0.0016 0.198744,-7.46e-4 0.394918,-0.0052 0.590145,-0.0098 0.0089,-0.02403 0.01813,-0.04769 0.02687,-0.07183 0.03593,-0.09923 0.07079,-0.19948 0.104386,-0.30024 0.03359,-0.10076 0.06586,-0.201838 0.09715,-0.303858 0.03129,-0.102019 0.0614,-0.204985 0.09043,-0.307991 0.02904,-0.103007 0.05689,-0.206339 0.08372,-0.310059 0.01305,-0.05045 0.02364,-0.101355 0.03617,-0.151928 -0.189113,-0.02004 -0.378298,-0.04023 -0.568441,-0.06201 -0.265667,-0.03044 -0.531495,-0.06273 -0.795817,-0.09767 -0.03265,-0.0043 -0.06456,-0.0096 -0.09715,-0.01395 -0.05973,0.281988 -0.120045,0.563734 -0.183452,0.844393 -0.05762,0.255059 -0.117588,0.515254 -0.176733,0.771012 z"
           style="opacity:1;fill:#ffffff;stroke:none;stroke-width:0.132292;stroke-dasharray:none;stroke-dashoffset:4.8"
           id="path48" /><path
           d="m 29.472639,24.845303 c 0.01561,-0.122857 0.03263,-0.246682 0.04547,-0.367419 0.02118,-0.199187 0.03881,-0.394868 0.05271,-0.586528 0.0139,-0.191659 0.02406,-0.379258 0.03101,-0.561206 0.0069,-0.181947 0.01052,-0.358601 0.01085,-0.52865 5.2e-5,-0.02676 -0.0014,-0.05057 -0.0015,-0.077 -0.09733,-0.02685 -0.198617,-0.05194 -0.304374,-0.07441 -0.108255,-0.023 -0.220663,-0.04378 -0.336414,-0.06253 -0.115751,-0.01875 -0.234665,-0.03529 -0.356567,-0.05013 -0.121902,-0.01484 -0.246914,-0.02801 -0.373621,-0.03927 -0.001,-9e-5 -0.0021,9e-5 -0.0031,0 -0.01036,0.189527 -0.02275,0.377109 -0.03772,0.562239 -0.01588,0.196356 -0.03469,0.390426 -0.05529,0.582394 -0.0206,0.191968 -0.04338,0.381836 -0.06821,0.569991 -0.02096,0.158798 -0.04404,0.315863 -0.0677,0.472322 0.08876,0.0086 0.179576,0.01661 0.267167,0.02532 0.283634,0.02821 0.560277,0.05769 0.822172,0.08837 0.129001,0.01511 0.254082,0.03053 0.375171,0.04651 z"
           style="opacity:1;fill:#ffffff;stroke:none;stroke-width:0.132292;stroke-dasharray:none;stroke-dashoffset:4.8"
           id="path33" /><path
           d="m 29.110388,26.80074 c 0.03899,-0.157364 0.07806,-0.314933 0.112138,-0.47284 0.04503,-0.208655 0.08573,-0.417083 0.122473,-0.624768 0.03675,-0.207685 0.06939,-0.414555 0.09819,-0.619083 0.01134,-0.08055 0.01931,-0.158918 0.02946,-0.238746 -0.12109,-0.01598 -0.24617,-0.0314 -0.375172,-0.04651 -0.261895,-0.03068 -0.538538,-0.06015 -0.822171,-0.08837 -0.08759,-0.0087 -0.178413,-0.01675 -0.267168,-0.02532 -0.0044,0.02893 -0.0079,0.05848 -0.0124,0.08733 -0.02859,0.184916 -0.0591,0.3681 -0.09095,0.550354 -0.03185,0.182253 -0.0651,0.36347 -0.09973,0.543636 -0.03463,0.180165 -0.07056,0.359299 -0.107486,0.537951 -0.01542,0.07459 -0.03282,0.148333 -0.04858,0.222726 0.03259,0.0044 0.0645,0.0096 0.09715,0.01395 0.264322,0.03494 0.53015,0.06723 0.795817,0.09767 0.190143,0.02178 0.379328,0.04197 0.568441,0.06201 z"
           style="display:inline;opacity:1;fill:#ffffff;stroke:none;stroke-width:0.529;stroke-dasharray:none;stroke-dashoffset:4.8"
           id="path45" /><path
           d="m 26.866597,22.437698 c -0.20026,-0.0022 -0.40123,-0.0044 -0.597896,-0.0021 -0.261087,0.0031 -0.516912,0.0095 -0.762227,0.01809 -0.04772,0.0017 -0.08903,0.0039 -0.13591,0.0057 -0.01085,0.03856 -0.02239,0.07785 -0.03307,0.116271 -0.05131,0.184503 -0.10024,0.367888 -0.147795,0.549321 -0.04755,0.181433 -0.09371,0.361322 -0.137459,0.540019 -0.04375,0.178696 -0.08516,0.355974 -0.125057,0.532267 -0.01161,0.0513 -0.02179,0.101848 -0.03307,0.152962 0.03312,0.0051 0.063,0.01046 0.09715,0.0155 0.22491,0.0332 0.471844,0.06433 0.733288,0.09405 0.220287,0.02505 0.454737,0.0488 0.691431,0.07235 0.04165,-0.188769 0.08296,-0.377819 0.12454,-0.566373 0.08272,-0.375068 0.164825,-0.749328 0.243396,-1.123446 0.02835,-0.134986 0.05533,-0.269776 0.08268,-0.404627 z"
           style="display:inline;opacity:1;fill:#ffffff;stroke:none;stroke-width:0.529;stroke-dasharray:none;stroke-dashoffset:4.8"
           id="path34" /><path
           d="m 24.400597,27.58157 c 0.03831,0.02251 0.07672,0.04506 0.116272,0.06615 0.04584,0.02445 0.09262,0.04767 0.140043,0.07028 0.09485,0.04521 0.192333,0.0868 0.293006,0.125057 0.100673,0.03826 0.204255,0.07359 0.310058,0.10542 0.105804,0.03183 0.214287,0.06037 0.324528,0.0863 0.04862,0.01143 0.09893,0.02064 0.148312,0.03101 0.0071,-0.04942 0.01325,-0.0989 0.02067,-0.148312 0.02832,-0.188678 0.05883,-0.377292 0.09095,-0.565857 0.03212,-0.188564 0.06602,-0.376906 0.101286,-0.56534 0.02652,-0.141699 0.05418,-0.283163 0.08216,-0.42478 -0.06777,-0.01358 -0.136259,-0.02663 -0.203088,-0.04082 -0.121921,-0.02589 -0.24178,-0.05256 -0.360185,-0.08062 -0.118405,-0.02805 -0.234931,-0.05748 -0.349333,-0.08785 -0.114401,-0.03037 -0.227022,-0.06171 -0.33693,-0.09457 -0.06586,-0.01969 -0.129163,-0.04087 -0.19327,-0.06149 -0.01399,0.09131 -0.02904,0.182861 -0.04186,0.273885 -0.02395,0.170017 -0.0458,0.339214 -0.06563,0.508496 -0.01983,0.169282 -0.03757,0.338582 -0.05323,0.507462 -0.0091,0.09857 -0.01606,0.197067 -0.02377,0.295589 z"
           style="opacity:1;fill:#ffffff;stroke:none;stroke-width:0.132292;stroke-dasharray:none;stroke-dashoffset:4.8"
           id="path50" /><path
           d="m 24.894107,24.350243 c -0.02748,0.124543 -0.05562,0.24906 -0.08113,0.372587 -0.03599,0.174224 -0.06978,0.347377 -0.101802,0.519865 -0.03203,0.172488 -0.0619,0.344645 -0.08992,0.515731 -0.01302,0.07949 -0.02403,0.158471 -0.03617,0.237712 0.06411,0.02063 0.127409,0.0418 0.193269,0.06149 0.109908,0.03286 0.22253,0.06419 0.33693,0.09457 0.114402,0.03037 0.230928,0.0598 0.349333,0.08785 0.118405,0.02805 0.238264,0.05473 0.360186,0.08062 0.06683,0.01419 0.135317,0.02725 0.203088,0.04082 0.0092,-0.04671 0.01802,-0.09334 0.02739,-0.140043 0.07555,-0.376573 0.155486,-0.753245 0.237194,-1.12913 0.04063,-0.18692 0.08231,-0.373447 0.123507,-0.560173 -0.236694,-0.02355 -0.471144,-0.0473 -0.691432,-0.07235 -0.261443,-0.02973 -0.508377,-0.06085 -0.733288,-0.09405 -0.03415,-0.005 -0.06404,-0.01036 -0.09715,-0.0155 z"
           style="opacity:1;fill:#ffffff;stroke:none;stroke-width:0.132292;stroke-dasharray:none;stroke-dashoffset:4.8"
           id="path43" /></g><g
         id="g88"
         style="display:inline;opacity:0"><path
           d="m 29.110388,26.80074 c 0.07512,0.008 0.151029,0.01655 0.225826,0.02429 0.262585,0.02716 0.522627,0.05281 0.778764,0.07803 0.01034,-0.0337 0.02173,-0.06683 0.03152,-0.100769 0.02571,-0.08912 0.04974,-0.179171 0.07183,-0.269751 0.02209,-0.09058 0.04234,-0.181682 0.06098,-0.273368 0.01864,-0.09169 0.03581,-0.184036 0.05116,-0.276469 0.01535,-0.09243 0.0291,-0.185198 0.04134,-0.27802 0.01224,-0.09282 0.02274,-0.185685 0.03204,-0.278536 0.0093,-0.09285 0.01725,-0.185498 0.02377,-0.278019 0.0033,-0.04686 0.0051,-0.09333 0.0078,-0.140043 -0.0871,-0.01995 -0.181004,-0.03936 -0.281637,-0.05788 -0.100986,-0.01858 -0.208632,-0.03695 -0.321427,-0.05426 -0.112794,-0.01731 -0.231202,-0.03389 -0.353984,-0.05013 -0.0018,-2.41e-4 -0.0039,-2.75e-4 -0.0057,-5.17e-4 -0.01015,0.07983 -0.01811,0.158192 -0.02946,0.238746 -0.0288,0.204528 -0.06144,0.411398 -0.09819,0.619083 -0.03675,0.207685 -0.07744,0.416113 -0.122473,0.624768 -0.03408,0.157907 -0.07315,0.315476 -0.112138,0.47284 z"
           style="display:inline;opacity:1;fill:#ffffff;stroke:none;stroke-width:0.529;stroke-dasharray:none;stroke-dashoffset:4.8"
           id="path46" /><path
           d="m 23.755675,24.08411 c -0.04783,0.163148 -0.09439,0.327438 -0.139009,0.494026 -0.05018,0.187349 -0.0985,0.376965 -0.144178,0.568441 -0.03051,0.127892 -0.05849,0.257928 -0.08682,0.387573 0.133594,0.05669 0.264715,0.111231 0.38654,0.160714 0.136181,0.05531 0.263387,0.105501 0.377238,0.149345 0.09945,0.0383 0.201514,0.07509 0.306441,0.110587 0.04205,0.01423 0.08632,0.02755 0.129191,0.04134 0.01214,-0.07924 0.02316,-0.158222 0.03617,-0.237712 0.02801,-0.171086 0.05789,-0.343243 0.08992,-0.515731 0.03202,-0.172488 0.06582,-0.345641 0.101802,-0.519865 0.02551,-0.123527 0.05365,-0.248044 0.08113,-0.372587 -0.07593,-0.01179 -0.152684,-0.0233 -0.222725,-0.03566 -0.100591,-0.01774 -0.195248,-0.03622 -0.282154,-0.05529 -0.0762,-0.01673 -0.154567,-0.03589 -0.234611,-0.05684 -0.08004,-0.02096 -0.161694,-0.04373 -0.244429,-0.06821 -0.0507,-0.01501 -0.103147,-0.03401 -0.154513,-0.05013 z"
           style="display:inline;opacity:1;fill:#ffffff;stroke:none;stroke-width:0.529;stroke-dasharray:none;stroke-dashoffset:4.8"
           id="path42" /><path
           d="m 24.400597,27.58157 c -0.0055,0.07028 -0.01229,0.140558 -0.01705,0.21084 -0.01144,0.168813 -0.02074,0.337352 -0.02791,0.506429 -0.0072,0.169078 -0.01215,0.338303 -0.01499,0.50798 -0.0028,0.169505 -0.0036,0.339611 -0.0021,0.510046 0.05139,0.02153 0.103996,0.04251 0.15813,0.06201 0.05872,0.02115 0.118727,0.04119 0.180352,0.05994 0.06162,0.01876 0.124946,0.03636 0.189136,0.05271 0.06419,0.01635 0.129435,0.03154 0.195854,0.04548 0.06642,0.01394 0.133743,0.02621 0.202054,0.03772 0.06831,0.01151 0.137354,0.02193 0.207223,0.03101 0.03017,0.0039 0.06106,0.0069 0.09147,0.01034 0.01306,-0.188582 0.02929,-0.377341 0.04806,-0.565857 0.0188,-0.188858 0.04019,-0.377597 0.06408,-0.566374 0.01763,-0.139339 0.03778,-0.278776 0.05788,-0.418062 -0.04938,-0.01036 -0.09969,-0.01957 -0.148312,-0.03101 -0.110241,-0.02593 -0.218724,-0.05447 -0.324528,-0.0863 -0.105803,-0.03183 -0.209385,-0.06716 -0.310058,-0.10542 -0.100673,-0.03825 -0.198156,-0.07984 -0.293006,-0.125057 -0.04742,-0.02261 -0.0942,-0.04583 -0.140043,-0.07028 -0.03955,-0.02109 -0.07796,-0.04364 -0.116272,-0.06615 z"
           style="display:inline;opacity:1;fill:#ffffff;stroke:none;stroke-width:0.529;stroke-dasharray:none;stroke-dashoffset:4.8"
           id="path59" /><path
           d="m 26.866597,22.437698 c 0.01055,-0.05202 0.02166,-0.104062 0.03204,-0.156062 0.03728,-0.186798 0.07337,-0.373654 0.108004,-0.560173 0.03464,-0.186519 0.06787,-0.372915 0.09922,-0.559139 0.03126,-0.18572 0.06102,-0.371145 0.08837,-0.556555 -0.05585,0.0063 -0.111799,0.01161 -0.167432,0.01912 -0.103199,0.01393 -0.205889,0.02995 -0.307474,0.04754 -0.101586,0.01759 -0.20241,0.03674 -0.301274,0.05736 -0.09886,0.02062 -0.195903,0.04263 -0.290938,0.06563 -0.09503,0.023 -0.187922,0.04708 -0.278019,0.07183 -0.06225,0.195714 -0.12273,0.389199 -0.181385,0.580843 -0.05865,0.191643 -0.115525,0.381568 -0.170532,0.569474 -0.04355,0.148776 -0.08537,0.295213 -0.126607,0.441834 0.04688,-0.0018 0.08819,-0.004 0.135909,-0.0057 0.245316,-0.0086 0.50114,-0.01502 0.762227,-0.01809 0.196666,-0.0023 0.397637,-9.1e-5 0.597897,0.0021 z"
           style="display:inline;opacity:1;fill:#ffffff;stroke:none;stroke-width:0.529;stroke-dasharray:none;stroke-dashoffset:4.8"
           id="path27" /><path
           d="m 27.288793,28.242512 c -0.105356,0.455585 -0.21037,0.908213 -0.314193,1.37356 0.0029,-3.35e-4 0.0059,-6.95e-4 0.0088,-10e-4 0.07136,-0.0083 0.142163,-0.01761 0.212389,-0.02842 0.07023,-0.01081 0.140015,-0.02335 0.208774,-0.03669 0.06876,-0.01334 0.13665,-0.02752 0.203605,-0.04341 0.06696,-0.01589 0.132588,-0.03324 0.197403,-0.05168 0.06482,-0.01844 0.128863,-0.03791 0.191204,-0.05891 0.06234,-0.02101 0.12289,-0.0436 0.182417,-0.06718 0.01062,-0.0042 0.02048,-0.0091 0.03101,-0.01344 0.04545,-0.0899 0.08983,-0.181389 0.132808,-0.273885 0.0432,-0.09299 0.08484,-0.186813 0.125574,-0.282154 0.04074,-0.09534 0.08054,-0.191967 0.118856,-0.289388 0.029,-0.07372 0.0566,-0.148464 0.08423,-0.223242 -0.195227,0.0047 -0.391401,0.0091 -0.590145,0.0098 -0.121909,4.57e-4 -0.244582,1.66e-4 -0.366902,-0.0016 -0.12232,-0.0017 -0.244347,-0.0049 -0.366386,-0.0093 -0.01988,-7.21e-4 -0.03956,-0.0023 -0.05943,-0.0031 z"
           style="display:inline;opacity:1;fill:#ffffff;stroke:none;stroke-width:0.529;stroke-dasharray:none;stroke-dashoffset:4.8"
           id="path61" /><path
           d="m 28.671654,28.246646 c 0.04428,-0.0011 0.08984,-8.8e-4 0.133842,-0.0021 0.237309,-0.0064 0.470045,-0.01457 0.696082,-0.02222 0.03731,-0.05519 0.07483,-0.110239 0.109554,-0.167431 0.04639,-0.07641 0.09038,-0.154428 0.132292,-0.234095 0.04191,-0.07967 0.08176,-0.161345 0.119372,-0.243912 0.03761,-0.08257 0.07298,-0.166039 0.106454,-0.251148 0.03347,-0.08511 0.06506,-0.171607 0.09457,-0.258899 0.01827,-0.05404 0.03436,-0.109046 0.05116,-0.163814 -0.256137,-0.02522 -0.516179,-0.05087 -0.778764,-0.07803 -0.0748,-0.0077 -0.150709,-0.01633 -0.225826,-0.02429 -0.01253,0.05057 -0.02313,0.101476 -0.03617,0.151928 -0.02682,0.10372 -0.05468,0.207052 -0.08372,0.310059 -0.02904,0.103006 -0.05914,0.205972 -0.09043,0.307991 -0.03129,0.10202 -0.06356,0.203098 -0.09715,0.303858 -0.03359,0.10076 -0.06845,0.201013 -0.104386,0.30024 -0.0087,0.02414 -0.01799,0.0478 -0.02687,0.07183 z"
           style="display:inline;opacity:1;fill:#ffffff;stroke:none;stroke-width:0.529;stroke-dasharray:none;stroke-dashoffset:4.8"
           id="path47" /><path
           d="m 25.370564,22.459403 c -0.19412,0.0075 -0.386534,0.01566 -0.562757,0.0248 -0.09166,0.0048 -0.183056,0.0072 -0.273368,0.0078 -0.08283,4.93e-4 -0.164757,-4.7e-4 -0.24598,-0.0031 -0.05724,0.152771 -0.11392,0.306629 -0.168982,0.463538 -0.0609,0.173547 -0.12049,0.349749 -0.178283,0.528133 -0.05779,0.178384 -0.113729,0.359101 -0.167949,0.542086 -0.006,0.02028 -0.01161,0.04116 -0.01757,0.0615 0.05137,0.01612 0.103811,0.03512 0.154513,0.05013 0.08273,0.02449 0.164386,0.04725 0.244429,0.06821 0.08004,0.02096 0.158407,0.04012 0.234612,0.05684 0.08691,0.01908 0.181563,0.03755 0.282153,0.05529 0.07004,0.01236 0.146797,0.02387 0.222725,0.03566 0.01128,-0.05111 0.02146,-0.101663 0.03307,-0.152962 0.0399,-0.176293 0.08131,-0.353571 0.125057,-0.532267 0.04375,-0.178697 0.0899,-0.358586 0.137459,-0.540019 0.04755,-0.181433 0.09649,-0.364818 0.147795,-0.549321 0.01068,-0.03842 0.02223,-0.07771 0.03307,-0.116271 z"
           style="display:inline;opacity:1;fill:#ffffff;stroke:none;stroke-width:0.529;stroke-dasharray:none;stroke-dashoffset:4.8"
           id="path35" /><path
           d="m 29.472639,24.845303 c 0.0018,2.42e-4 0.0039,2.76e-4 0.0057,5.17e-4 0.122783,0.01623 0.241189,0.03281 0.353984,0.05013 0.112795,0.01731 0.220442,0.03568 0.321427,0.05426 0.100633,0.01851 0.194535,0.03792 0.281637,0.05788 0.0026,-0.04551 0.0058,-0.09111 0.0078,-0.136426 0.0039,-0.09183 0.0068,-0.183617 0.0083,-0.274401 0.0015,-0.09079 0.0018,-0.180891 0.001,-0.270268 -0.0015,-0.178756 -0.0075,-0.354057 -0.01705,-0.525033 -0.0096,-0.170975 -0.02305,-0.33732 -0.03927,-0.497644 -0.0093,-0.09157 -0.02147,-0.176194 -0.03256,-0.26355 -0.0315,-0.02098 -0.06462,-0.04133 -0.09922,-0.06098 -0.03571,-0.02027 -0.07278,-0.0395 -0.111621,-0.05839 -0.03885,-0.01889 -0.07911,-0.03722 -0.120924,-0.05478 -0.04181,-0.01756 -0.0851,-0.03438 -0.129708,-0.05064 -0.08922,-0.03252 -0.184291,-0.06233 -0.283703,-0.08992 -0.0023,-6.36e-4 -0.0049,-9.17e-4 -0.0072,-0.0015 1.07e-4,0.02643 0.0016,0.05024 0.0015,0.077 -3.28e-4,0.170049 -0.0039,0.346703 -0.01085,0.52865 -0.0069,0.181948 -0.01711,0.369547 -0.03101,0.561206 -0.0139,0.19166 -0.03153,0.387341 -0.05271,0.586528 -0.01284,0.120737 -0.02986,0.244562 -0.04547,0.367419 z"
           style="display:inline;opacity:1;fill:#ffffff;stroke:none;stroke-width:0.529;stroke-dasharray:none;stroke-dashoffset:4.8"
           id="path31" /><path
           d="m 29.611132,22.724503 c -5.75e-4,-0.141548 -0.0022,-0.280954 -0.0072,-0.412378 -0.006,-0.155965 -0.01496,-0.304205 -0.02687,-0.443901 -0.01191,-0.139696 -0.02639,-0.270983 -0.04393,-0.392224 -0.01754,-0.121241 -0.03815,-0.232713 -0.06098,-0.333313 -0.01141,-0.0503 -0.0235,-0.0979 -0.03617,-0.142627 -0.01256,-0.04434 -0.02551,-0.08542 -0.03927,-0.124023 -0.02476,-0.01391 -0.04927,-0.02795 -0.07493,-0.04082 -0.03812,-0.01912 -0.07731,-0.03737 -0.117306,-0.05426 -0.04,-0.01689 -0.08073,-0.03228 -0.122473,-0.04703 -0.04174,-0.01474 -0.08429,-0.02866 -0.127641,-0.04134 -0.04335,-0.01268 -0.08748,-0.02445 -0.132291,-0.03514 -0.08963,-0.02138 -0.182329,-0.0388 -0.276986,-0.05271 -0.09466,-0.0139 -0.191324,-0.02394 -0.289905,-0.03101 0.0078,0.219658 0.01225,0.43557 0.01344,0.64854 0.0012,0.212969 -6.96e-4,0.422562 -0.0057,0.629419 -0.005,0.206856 -0.01309,0.411047 -0.02377,0.612365 -6.11e-4,0.01151 -0.0014,0.02262 -0.0021,0.03411 0.001,9e-5 0.0021,-9e-5 0.0031,0 0.126707,0.01126 0.251719,0.02444 0.373621,0.03927 0.121902,0.01484 0.240816,0.03138 0.356567,0.05013 0.115751,0.01875 0.228159,0.03953 0.336414,0.06253 0.105758,0.02247 0.20704,0.04757 0.304374,0.07441 z"
           style="display:inline;opacity:1;fill:#ffffff;stroke:none;stroke-width:0.529;stroke-dasharray:none;stroke-dashoffset:4.8"
           id="path29" /><path
           d="m 23.157779,26.759915 c 0.05312,0.0324 0.109036,0.06495 0.160714,0.09715 0.15413,0.09603 0.301086,0.190747 0.437182,0.282153 0.136096,0.09141 0.261251,0.179425 0.371554,0.262 0.04056,0.03036 0.08213,0.06004 0.12454,0.08837 0.04241,0.02833 0.08606,0.0553 0.130225,0.08165 0.0061,0.0036 0.01251,0.0068 0.0186,0.01033 0.0077,-0.09852 0.01463,-0.197019 0.02377,-0.295589 0.01566,-0.16888 0.0334,-0.33818 0.05323,-0.507462 0.01983,-0.169282 0.04168,-0.338479 0.06563,-0.508496 0.01282,-0.09102 0.02787,-0.182578 0.04186,-0.273885 -0.04287,-0.0138 -0.08714,-0.02712 -0.129191,-0.04134 -0.104927,-0.0355 -0.206986,-0.07229 -0.306441,-0.110587 -0.113851,-0.04384 -0.241057,-0.09403 -0.377238,-0.149345 -0.121825,-0.04948 -0.252946,-0.10402 -0.38654,-0.160714 -0.01408,0.06446 -0.02937,0.127876 -0.04289,0.192753 -0.04071,0.195368 -0.07893,0.392672 -0.114205,0.591695 -0.02586,0.145892 -0.04807,0.293572 -0.0708,0.441317 z"
           style="opacity:1;fill:#ffffff;stroke:none;stroke-width:0.132292;stroke-dasharray:none;stroke-dashoffset:4.8"
           id="path51" /></g><g
         id="g91"
         inkscape:label="excl"
         transform="translate(1.2485225,-6.69334)"><path
           style="opacity:1;fill:#ffffff;fill-opacity:1;stroke-width:0.132292;stroke-dashoffset:4.8"
           d="m 25.820188,29.358592 0.949605,0.05653 -0.791338,3.538405 -0.655679,-0.135657 z"
           id="path90" /><path
           style="opacity:1;fill:#ffffff;fill-opacity:1;stroke-width:0.132292;stroke-dashoffset:4.8"
           d="m 25.187118,33.733554 0.565241,0.07914 -0.113048,0.644374 -0.58785,-0.06783 z"
           id="path91" /></g></g><g
       id="g85"
       transform="translate(-1.2485225,6.69334)"
       inkscape:label="pixels spiral"
       style="display:none;stroke:none;stroke-width:0.529167;stroke-dasharray:none"><g
         id="g14"
         style="display:inline;opacity:1;fill:#ffffff;stroke:none;stroke-width:0.529167;stroke-dasharray:none"
         transform="translate(1.2485225,-6.6933401)"><path
           d="m 24.484294,34.759119 c -0.02009,0.139286 -0.04025,0.278723 -0.05788,0.418062 -0.02388,0.188777 -0.04528,0.377516 -0.06408,0.566374 -0.01877,0.188516 -0.03499,0.377275 -0.04806,0.565857 0.04003,0.0046 0.08001,0.0097 0.120406,0.01344 0.07109,0.0066 0.142482,0.01185 0.214457,0.01602 0.07197,0.0042 0.144518,0.0071 0.217041,0.0088 0.07252,0.0017 0.145338,0.0023 0.218075,0.0016 0.07274,-7.82e-4 0.145461,-0.0029 0.218075,-0.0062 0.07261,-0.0033 0.144887,-0.0077 0.217041,-0.01344 0.06921,-0.0055 0.138224,-0.01231 0.206705,-0.02015 0.103823,-0.465347 0.208837,-0.917975 0.314193,-1.37356 -0.102063,-0.0041 -0.204067,-0.0081 -0.305408,-0.01447 -0.121065,-0.0077 -0.24182,-0.01751 -0.361218,-0.02894 -0.119398,-0.01143 -0.237461,-0.02458 -0.3545,-0.04031 -0.117039,-0.01573 -0.232762,-0.0337 -0.346749,-0.05426 -0.06372,-0.0115 -0.125507,-0.02562 -0.188102,-0.03876 z"
           style="display:inline;fill:#ffffff;stroke:none;stroke-width:0.529;stroke-dashoffset:4.8"
           id="path5" /><path
           d="m 20.035986,32.429028 c -0.0072,0.02828 -0.01573,0.05527 -0.02274,0.08372 -0.04482,0.181942 -0.08651,0.367266 -0.124541,0.556039 -0.03803,0.188772 -0.07266,0.380834 -0.103352,0.576709 -0.0052,0.03315 -0.0085,0.06793 -0.01344,0.101285 0.0099,0.0022 0.01954,0.0039 0.02945,0.0062 0.07737,0.01803 0.155579,0.03817 0.233578,0.06046 0.078,0.02229 0.155795,0.04664 0.233577,0.07286 0.07778,0.02623 0.155305,0.0544 0.232027,0.08423 0.02649,0.0103 0.05225,0.02185 0.07855,0.03256 0.01139,-0.06466 0.02106,-0.130623 0.03307,-0.19482 0.03885,-0.207577 0.08062,-0.412525 0.125573,-0.614949 0.02711,-0.122081 0.05717,-0.241152 0.0863,-0.361219 -0.07591,-0.04087 -0.153017,-0.08405 -0.227376,-0.122989 -0.161687,-0.08466 -0.318983,-0.164226 -0.467672,-0.236678 -0.03319,-0.01617 -0.06071,-0.02797 -0.09302,-0.04341 z"
           style="display:inline;fill:#ffffff;stroke:none;stroke-width:0.529;stroke-dashoffset:4.8"
           id="path6" /><path
           d="m 27.861865,33.49408 c 0.07512,0.008 0.15103,0.01655 0.225826,0.02429 0.262585,0.02716 0.522627,0.05281 0.778764,0.07803 0.01034,-0.0337 0.02173,-0.06683 0.03152,-0.100769 0.02571,-0.08912 0.04974,-0.179171 0.07183,-0.269751 0.02209,-0.09058 0.04234,-0.181682 0.06098,-0.273368 0.01864,-0.09169 0.03581,-0.184036 0.05116,-0.276469 0.01535,-0.09243 0.0291,-0.185198 0.04134,-0.27802 0.01224,-0.09282 0.02274,-0.185685 0.03204,-0.278536 0.0093,-0.09285 0.01725,-0.185498 0.02377,-0.278019 0.0033,-0.04686 0.0051,-0.09333 0.0078,-0.140043 -0.0871,-0.01995 -0.181004,-0.03936 -0.281637,-0.05788 -0.100986,-0.01858 -0.208632,-0.03695 -0.321427,-0.05426 -0.112795,-0.01731 -0.231202,-0.03389 -0.353984,-0.05013 -0.0018,-2.41e-4 -0.0039,-2.75e-4 -0.0057,-5.17e-4 -0.01015,0.07983 -0.01811,0.158192 -0.02946,0.238746 -0.0288,0.204528 -0.06144,0.411398 -0.09819,0.619083 -0.03675,0.207685 -0.07744,0.416113 -0.122473,0.624768 -0.03408,0.157907 -0.07315,0.315476 -0.112138,0.47284 z"
           style="display:inline;fill:#ffffff;stroke:none;stroke-width:0.529;stroke-dashoffset:4.8"
           id="path7" /><path
           d="m 22.507153,30.77745 c -0.04783,0.163148 -0.09439,0.327438 -0.139009,0.494026 -0.05018,0.187349 -0.0985,0.376965 -0.144178,0.568441 -0.03051,0.127892 -0.05849,0.257928 -0.08682,0.387573 0.133594,0.05669 0.264715,0.111231 0.38654,0.160714 0.136181,0.05531 0.263387,0.105501 0.377238,0.149345 0.09945,0.0383 0.201514,0.07509 0.306441,0.110587 0.04205,0.01423 0.08632,0.02755 0.129191,0.04134 0.01214,-0.07924 0.02316,-0.158222 0.03617,-0.237712 0.02801,-0.171086 0.05789,-0.343243 0.08992,-0.515731 0.03202,-0.172488 0.06582,-0.345641 0.101802,-0.519865 0.02551,-0.123527 0.05365,-0.248044 0.08113,-0.372587 -0.07593,-0.01179 -0.152684,-0.0233 -0.222725,-0.03566 -0.100591,-0.01774 -0.195248,-0.03622 -0.282154,-0.05529 -0.0762,-0.01673 -0.154567,-0.03589 -0.234611,-0.05684 -0.08004,-0.02096 -0.161694,-0.04373 -0.244429,-0.06821 -0.0507,-0.01501 -0.103147,-0.03401 -0.154513,-0.05013 z"
           style="display:inline;fill:#ffffff;stroke:none;stroke-width:0.529;stroke-dashoffset:4.8"
           id="path8" /><path
           d="m 23.039937,29.182198 c -0.0073,-2.38e-4 -0.0149,-2.55e-4 -0.02222,-5.17e-4 -0.08838,-0.0032 -0.17562,-0.0081 -0.261482,-0.01447 -0.08586,-0.0063 -0.169937,-0.01428 -0.252698,-0.02325 -0.08276,-0.009 -0.163803,-0.01887 -0.242879,-0.02997 -0.04051,-0.0057 -0.07891,-0.01246 -0.118339,-0.0186 -0.05077,0.106979 -0.101602,0.21382 -0.151929,0.325561 -0.06888,0.15294 -0.137165,0.309843 -0.204639,0.471289 -0.06747,0.161447 -0.134075,0.327137 -0.199471,0.496611 -0.007,0.01805 -0.01373,0.03716 -0.02067,0.05529 0.03064,0.01197 0.05838,0.02372 0.0894,0.03566 0.16407,0.06313 0.332937,0.125618 0.502295,0.184485 0.117465,0.04083 0.233578,0.07669 0.349849,0.113172 0.006,-0.02033 0.01156,-0.04122 0.01757,-0.0615 0.05422,-0.182985 0.110156,-0.363702 0.167949,-0.542086 0.05779,-0.178384 0.117383,-0.354586 0.178283,-0.528133 0.05506,-0.156909 0.111742,-0.310767 0.168982,-0.463538 z"
           style="display:inline;fill:#ffffff;stroke:none;stroke-width:0.529;stroke-dashoffset:4.8"
           id="path9" /><path
           d="m 26.988534,29.1915 c 6.28e-4,-0.01149 0.0015,-0.0226 0.0021,-0.03411 0.01068,-0.201318 0.01878,-0.405509 0.02377,-0.612365 0.005,-0.206857 0.0069,-0.41645 0.0057,-0.629419 -0.0012,-0.21297 -0.0056,-0.428882 -0.01344,-0.64854 -0.09858,-0.0071 -0.198843,-0.01102 -0.30024,-0.01188 -0.101397,-8.61e-4 -0.203852,9.78e-4 -0.306958,0.0057 -0.103105,0.0047 -0.206869,0.01207 -0.310575,0.0217 -0.0478,0.0044 -0.09539,0.01115 -0.143144,0.01654 -0.02735,0.18541 -0.05711,0.370835 -0.08837,0.556555 -0.03135,0.186224 -0.06458,0.37262 -0.09922,0.559139 -0.03464,0.186519 -0.07072,0.373375 -0.108004,0.560173 -0.01038,0.052 -0.02149,0.104041 -0.03204,0.156062 0.0656,7.07e-4 0.130196,-7.51e-4 0.195853,5.17e-4 0.133046,0.0026 0.266147,0.0062 0.398426,0.01137 0.132278,0.0051 0.263608,0.01161 0.393774,0.01964 0.129125,0.008 0.256679,0.01779 0.382406,0.02894 z"
           style="display:inline;fill:#ffffff;stroke:none;stroke-width:0.529;stroke-dashoffset:4.8"
           id="path10" /><path
           d="m 20.824052,32.832104 c 0.08915,0.04799 0.177011,0.09413 0.267167,0.144178 0.166926,0.09266 0.334787,0.188289 0.499194,0.284737 0.109284,0.06411 0.213526,0.127998 0.318844,0.192236 0.02272,-0.147745 0.04494,-0.295425 0.0708,-0.441317 0.03528,-0.199023 0.07349,-0.396327 0.114205,-0.591695 0.01352,-0.06488 0.02881,-0.128296 0.04289,-0.192753 -0.01574,-0.0067 -0.02961,-0.01235 -0.04547,-0.01912 -0.150463,-0.06419 -0.305808,-0.132108 -0.462504,-0.202572 -0.156697,-0.07046 -0.314857,-0.143415 -0.469739,-0.217557 -0.01525,-0.0073 -0.02925,-0.0149 -0.04444,-0.02222 -0.02505,0.08253 -0.05122,0.163233 -0.07545,0.247013 -0.05514,0.190681 -0.108267,0.384568 -0.158647,0.58136 -0.02,0.07811 -0.03767,0.158694 -0.05684,0.237711 z"
           style="opacity:1;fill:#ffffff;stroke:none;stroke-width:0.132292;stroke-dashoffset:4.8"
           id="path11" /><path
           d="m 22.165055,27.78125 c -0.0312,0.04728 -0.063,0.09325 -0.09405,0.141077 -0.08349,0.128605 -0.166543,0.258993 -0.248563,0.391707 -0.08202,0.132714 -0.162863,0.268048 -0.24288,0.405143 -0.04521,0.07747 -0.0894,0.15723 -0.133842,0.236162 0.05532,0.01352 0.104225,0.02683 0.164848,0.04031 0.129036,0.02868 0.269481,0.05676 0.419096,0.08217 0.03648,0.0062 0.07512,0.01172 0.112655,0.01757 0.01872,-0.03944 0.03757,-0.08111 0.05633,-0.11989 0.06962,-0.143955 0.139084,-0.283572 0.208773,-0.418062 0.06969,-0.13449 0.139686,-0.26406 0.208773,-0.388607 0.06839,-0.12329 0.135942,-0.241421 0.203088,-0.3545 -0.09805,-3.72e-4 -0.193781,-0.0024 -0.283704,-0.0067 -0.104663,-0.0051 -0.203914,-0.01213 -0.299206,-0.02015 -0.02573,-0.0022 -0.04619,-0.0039 -0.07131,-0.0062 z"
           style="opacity:1;fill:#ffffff;stroke:none;stroke-width:0.132292;stroke-dashoffset:4.8"
           id="path12" /><path
           d="m 26.040271,34.935852 c 0.01986,8.01e-4 0.03955,0.0024 0.05943,0.0031 0.122039,0.0044 0.244066,0.0076 0.366386,0.0093 0.12232,0.0017 0.244994,0.002 0.366902,0.0016 0.198744,-7.46e-4 0.394918,-0.0052 0.590145,-0.0098 0.0089,-0.02403 0.01813,-0.04769 0.02687,-0.07183 0.03593,-0.09923 0.07079,-0.19948 0.104386,-0.30024 0.03359,-0.10076 0.06586,-0.201838 0.09715,-0.303858 0.03129,-0.102019 0.0614,-0.204985 0.09043,-0.307991 0.02904,-0.103007 0.05689,-0.206339 0.08372,-0.310059 0.01305,-0.05045 0.02364,-0.101355 0.03617,-0.151928 -0.189113,-0.02004 -0.378298,-0.04023 -0.568441,-0.06201 -0.265667,-0.03044 -0.531495,-0.06273 -0.795817,-0.09767 -0.03265,-0.0043 -0.06456,-0.0096 -0.09715,-0.01395 -0.05973,0.281988 -0.120045,0.563734 -0.183452,0.844393 -0.05762,0.255059 -0.117588,0.515254 -0.176733,0.771012 z"
           style="opacity:1;fill:#ffffff;stroke:none;stroke-width:0.132292;stroke-dashoffset:4.8"
           id="path13" /><path
           d="m 28.224117,31.538643 c 0.01561,-0.122857 0.03263,-0.246682 0.04547,-0.367419 0.02118,-0.199187 0.03881,-0.394868 0.05271,-0.586528 0.0139,-0.191659 0.02406,-0.379258 0.03101,-0.561206 0.0069,-0.181947 0.01052,-0.358601 0.01085,-0.52865 5.2e-5,-0.02676 -0.0014,-0.05057 -0.0015,-0.077 -0.09733,-0.02685 -0.198616,-0.05194 -0.304374,-0.07441 -0.108255,-0.023 -0.220663,-0.04378 -0.336414,-0.06253 -0.115751,-0.01875 -0.234665,-0.03529 -0.356567,-0.05013 -0.121902,-0.01484 -0.246914,-0.02801 -0.373621,-0.03927 -0.001,-9e-5 -0.0021,9e-5 -0.0031,0 -0.01036,0.189527 -0.02275,0.377109 -0.03772,0.562239 -0.01588,0.196356 -0.03469,0.390426 -0.05529,0.582394 -0.0206,0.191968 -0.04338,0.381836 -0.06821,0.569991 -0.02096,0.158798 -0.04404,0.315863 -0.0677,0.472322 0.08876,0.0086 0.179576,0.01661 0.267167,0.02532 0.283634,0.02821 0.560277,0.05769 0.822172,0.08837 0.129001,0.01511 0.254082,0.03053 0.375171,0.04651 z"
           style="opacity:1;fill:#ffffff;stroke:none;stroke-width:0.132292;stroke-dashoffset:4.8"
           id="path14" /></g><g
         id="g65"
         style="display:inline;opacity:0.5;fill:#ffffff;stroke:none;stroke-width:0.529167;stroke-dasharray:none"
         transform="translate(1.2485225,-6.6933401)"><path
           d="m 23.152075,34.27491 c -0.0055,0.07028 -0.01229,0.140558 -0.01705,0.21084 -0.01144,0.168813 -0.02074,0.337352 -0.02791,0.506429 -0.0072,0.169078 -0.01215,0.338303 -0.01499,0.50798 -0.0028,0.169505 -0.0036,0.339611 -0.0021,0.510046 0.05139,0.02153 0.103996,0.04251 0.15813,0.06201 0.05872,0.02115 0.118727,0.04119 0.180351,0.05994 0.06162,0.01876 0.124947,0.03636 0.189136,0.05271 0.06419,0.01635 0.129435,0.03154 0.195854,0.04548 0.06642,0.01394 0.133743,0.02621 0.202054,0.03772 0.06831,0.01151 0.137354,0.02193 0.207223,0.03101 0.03017,0.0039 0.06106,0.0069 0.09147,0.01034 0.01306,-0.188582 0.02929,-0.377341 0.04806,-0.565857 0.0188,-0.188858 0.04019,-0.377597 0.06408,-0.566374 0.01763,-0.139339 0.03778,-0.278776 0.05788,-0.418062 -0.04938,-0.01036 -0.09969,-0.01957 -0.148312,-0.03101 -0.110241,-0.02593 -0.218724,-0.05447 -0.324528,-0.0863 -0.105803,-0.03183 -0.209385,-0.06716 -0.310058,-0.10542 -0.100673,-0.03825 -0.198156,-0.07984 -0.293006,-0.125057 -0.04742,-0.02261 -0.0942,-0.04583 -0.140043,-0.07028 -0.03955,-0.02109 -0.07796,-0.04364 -0.116272,-0.06615 z"
           style="display:inline;fill:#ffffff;stroke:none;stroke-width:0.529;stroke-dashoffset:4.8"
           id="path15" /><path
           d="m 20.035986,32.429028 c -0.112422,-0.05372 -0.224634,-0.106848 -0.324011,-0.150378 -0.127767,-0.05597 -0.242765,-0.103091 -0.342098,-0.138493 -0.02278,0.10584 -0.04528,0.213572 -0.06615,0.324011 -0.02332,0.12347 -0.04544,0.249469 -0.06615,0.378789 -0.02071,0.129319 -0.04001,0.2616 -0.05788,0.396875 -0.01787,0.135274 -0.0343,0.273625 -0.04909,0.414961 0.07043,0.0032 0.142938,0.0091 0.216524,0.01757 0.07359,0.0085 0.148375,0.01964 0.224276,0.03307 0.06617,0.01171 0.133174,0.02612 0.200505,0.04134 0.005,-0.03336 0.0082,-0.06814 0.01344,-0.101285 0.0307,-0.195875 0.06533,-0.387937 0.103352,-0.576709 0.03803,-0.188773 0.07972,-0.374097 0.124541,-0.556039 0.007,-0.02844 0.01557,-0.05544 0.02274,-0.08372 z"
           style="display:inline;fill:#ffffff;stroke:none;stroke-width:0.529;stroke-dashoffset:4.8"
           id="path16" /><path
           d="m 27.861865,33.49408 c 0.03899,-0.157364 0.07806,-0.314933 0.112138,-0.47284 0.04503,-0.208655 0.08573,-0.417083 0.122473,-0.624768 0.03675,-0.207685 0.06939,-0.414555 0.09819,-0.619083 0.01134,-0.08055 0.01931,-0.158918 0.02946,-0.238746 -0.121089,-0.01598 -0.24617,-0.0314 -0.375171,-0.04651 -0.261895,-0.03068 -0.538538,-0.06015 -0.822172,-0.08837 -0.08759,-0.0087 -0.178412,-0.01675 -0.267167,-0.02532 -0.0044,0.02893 -0.0079,0.05848 -0.0124,0.08733 -0.02859,0.184916 -0.0591,0.3681 -0.09095,0.550354 -0.03185,0.182253 -0.0651,0.36347 -0.09973,0.543636 -0.03463,0.180165 -0.07056,0.359299 -0.107487,0.537951 -0.01542,0.07459 -0.03282,0.148333 -0.04858,0.222726 0.03259,0.0044 0.0645,0.0096 0.09715,0.01395 0.264322,0.03494 0.53015,0.06723 0.795817,0.09767 0.190143,0.02178 0.379328,0.04197 0.568441,0.06201 z"
           style="display:inline;fill:#ffffff;stroke:none;stroke-width:0.529;stroke-dashoffset:4.8"
           id="path17" /><path
           d="m 26.988534,29.1915 c -0.125727,-0.01115 -0.253281,-0.02098 -0.382406,-0.02894 -0.130166,-0.008 -0.261496,-0.01451 -0.393774,-0.01964 -0.132279,-0.0051 -0.26538,-0.0088 -0.398426,-0.01137 -0.06566,-0.0013 -0.130255,1.9e-4 -0.195853,-5.17e-4 -0.02735,0.134851 -0.05433,0.269641 -0.08268,0.404627 -0.07857,0.374118 -0.16068,0.748378 -0.243396,1.123446 -0.04158,0.188554 -0.08289,0.377604 -0.12454,0.566373 0.04422,0.0044 0.08458,0.0091 0.129191,0.01344 0.283408,0.02774 0.574259,0.05493 0.865064,0.08217 0.200998,0.01882 0.399248,0.03818 0.597896,0.05736 0.02366,-0.156459 0.04674,-0.313524 0.0677,-0.472322 0.02484,-0.188155 0.04761,-0.378023 0.06821,-0.569991 0.0206,-0.191968 0.03941,-0.386038 0.05529,-0.582394 0.01497,-0.18513 0.02736,-0.372712 0.03772,-0.562239 z"
           style="display:inline;fill:#ffffff;stroke:none;stroke-width:0.529;stroke-dashoffset:4.8"
           id="path18" /><path
           d="m 25.618075,29.131038 c 0.01055,-0.05202 0.02166,-0.104062 0.03204,-0.156062 0.03728,-0.186798 0.07337,-0.373654 0.108004,-0.560173 0.03464,-0.186519 0.06787,-0.372915 0.09922,-0.559139 0.03126,-0.18572 0.06102,-0.371145 0.08837,-0.556555 -0.05585,0.0063 -0.1118,0.01161 -0.167432,0.01912 -0.103199,0.01393 -0.205889,0.02995 -0.307474,0.04754 -0.101586,0.01759 -0.20241,0.03674 -0.301274,0.05736 -0.09886,0.02062 -0.195904,0.04263 -0.290938,0.06563 -0.09503,0.023 -0.187922,0.04708 -0.278019,0.07183 -0.06225,0.195714 -0.12273,0.389199 -0.181385,0.580843 -0.05865,0.191643 -0.115525,0.381568 -0.170532,0.569474 -0.04355,0.148776 -0.08537,0.295213 -0.126607,0.441834 0.04688,-0.0018 0.08819,-0.004 0.135909,-0.0057 0.245316,-0.0086 0.50114,-0.01502 0.762227,-0.01809 0.196666,-0.0023 0.397637,-9.1e-5 0.597897,0.0021 z"
           style="display:inline;fill:#ffffff;stroke:none;stroke-width:0.529;stroke-dashoffset:4.8"
           id="path19" /><path
           d="m 22.165055,27.78125 c -0.161004,-0.01448 -0.315215,-0.03078 -0.456819,-0.04134 0,0 -0.03301,0.02183 -0.09147,0.06873 -0.02923,0.02345 -0.06483,0.05295 -0.105936,0.0894 -0.04111,0.03645 -0.08733,0.07993 -0.138493,0.130224 -0.05116,0.0503 -0.107003,0.107608 -0.166398,0.1726 -0.05939,0.06499 -0.122816,0.137538 -0.188619,0.218074 -0.0658,0.08054 -0.134251,0.169204 -0.204639,0.266134 -0.01613,0.02222 -0.03329,0.04924 -0.04961,0.07235 0.0011,4.13e-4 0.08271,0.03087 0.229443,0.07596 0.07386,0.0227 0.163382,0.0487 0.267167,0.07648 0.05503,0.01473 0.123603,0.03022 0.186035,0.04548 0.04444,-0.07893 0.08863,-0.158697 0.133842,-0.236162 0.08002,-0.137095 0.160859,-0.272429 0.24288,-0.405143 0.08202,-0.132714 0.165071,-0.263102 0.248563,-0.391707 0.03105,-0.04783 0.06285,-0.09379 0.09405,-0.141077 z"
           style="display:inline;fill:#ffffff;stroke:none;stroke-width:0.529;stroke-dashoffset:4.8"
           id="path20" /><path
           d="m 20.351729,31.368628 c -0.01061,0.03082 -0.02213,0.06044 -0.03256,0.09147 -0.05681,0.169097 -0.110664,0.341381 -0.161747,0.516765 -0.0431,0.147967 -0.08277,0.299548 -0.12144,0.452168 0.03231,0.01544 0.05983,0.02724 0.09302,0.04341 0.148689,0.07245 0.305985,0.152019 0.467672,0.236678 0.07436,0.03893 0.151465,0.08212 0.227376,0.122989 0.01917,-0.07902 0.03685,-0.159603 0.05684,-0.237711 0.05038,-0.196792 0.103508,-0.390679 0.158647,-0.58136 0.02423,-0.08378 0.0504,-0.164479 0.07545,-0.247013 -0.139074,-0.06704 -0.276474,-0.134756 -0.40721,-0.202572 -0.125872,-0.06529 -0.243272,-0.130539 -0.356051,-0.19482 z"
           style="opacity:1;fill:#ffffff;stroke:none;stroke-width:0.132292;stroke-dashoffset:4.8"
           id="path21" /><path
           d="m 21.445719,28.955339 c -0.03421,0.06076 -0.06913,0.120246 -0.102836,0.181901 -0.07748,0.141748 -0.153481,0.285857 -0.227893,0.432531 -0.07441,0.146674 -0.147263,0.295647 -0.218074,0.447518 -0.01965,0.04213 -0.03802,0.08613 -0.05736,0.128675 0.107738,0.04646 0.219388,0.09434 0.342615,0.14521 0.121321,0.05008 0.252036,0.101629 0.383439,0.152963 0.0069,-0.01814 0.01371,-0.03725 0.02067,-0.05529 0.0654,-0.169474 0.131997,-0.335164 0.199471,-0.496611 0.06747,-0.161446 0.135757,-0.318349 0.204639,-0.471289 0.05033,-0.111741 0.10116,-0.218582 0.151929,-0.325561 -0.03753,-0.0058 -0.07617,-0.01138 -0.112655,-0.01757 -0.149615,-0.02541 -0.29006,-0.05348 -0.419096,-0.08217 -0.06062,-0.01348 -0.109525,-0.02679 -0.164848,-0.04031 z"
           style="opacity:1;fill:#ffffff;stroke:none;stroke-width:0.132292;stroke-dashoffset:4.8"
           id="path22" /><path
           d="m 22.507153,30.77745 c -0.116271,-0.03649 -0.232384,-0.07234 -0.349849,-0.113172 -0.169358,-0.05887 -0.338225,-0.121356 -0.502295,-0.184485 -0.03102,-0.01194 -0.05876,-0.02369 -0.0894,-0.03566 -0.0582,0.152163 -0.115591,0.306402 -0.171566,0.464571 -0.06265,0.177022 -0.123707,0.357994 -0.182935,0.542085 -0.0332,0.103207 -0.06415,0.209916 -0.09612,0.315227 0.01519,0.0073 0.02919,0.01492 0.04444,0.02222 0.154882,0.07414 0.313042,0.147094 0.469739,0.217557 0.156696,0.07046 0.312041,0.138385 0.462504,0.202572 0.01586,0.0068 0.02973,0.01244 0.04547,0.01912 0.02833,-0.129645 0.05631,-0.259681 0.08682,-0.387573 0.04568,-0.191476 0.094,-0.381092 0.144178,-0.568441 0.04462,-0.166588 0.09117,-0.330878 0.139009,-0.494026 z"
           style="opacity:1;fill:#ffffff;stroke:none;stroke-width:0.132292;stroke-dashoffset:4.8"
           id="path63" /><path
           d="m 24.484294,34.759119 c 0.0626,0.01313 0.124384,0.02726 0.188102,0.03876 0.113987,0.02056 0.22971,0.03853 0.346749,0.05426 0.117039,0.01573 0.235102,0.02888 0.3545,0.04031 0.119398,0.01143 0.240153,0.02128 0.361218,0.02894 0.101341,0.0064 0.203345,0.01036 0.305408,0.01447 0.05915,-0.255758 0.11911,-0.515953 0.176733,-0.771012 0.06341,-0.280659 0.123721,-0.562405 0.183452,-0.844393 -0.23129,-0.03119 -0.4623,-0.06353 -0.689364,-0.09922 -0.259063,-0.04072 -0.514402,-0.08504 -0.764294,-0.132808 -0.05646,-0.01079 -0.111564,-0.0224 -0.167432,-0.03359 -0.02798,0.141617 -0.05564,0.283081 -0.08216,0.42478 -0.03527,0.188434 -0.06917,0.376776 -0.101286,0.56534 -0.03212,0.188565 -0.06263,0.377179 -0.09095,0.565857 -0.0074,0.04941 -0.01354,0.09889 -0.02067,0.148312 z"
           style="opacity:1;fill:#ffffff;stroke:none;stroke-width:0.132292;stroke-dashoffset:4.8"
           id="path64" /></g><g
         id="g74"
         style="opacity:0;fill:#ffffff;stroke-width:0.529167;stroke-dasharray:none"
         transform="translate(1.2485225,-6.6933401)"><path
           d="m 27.423132,34.939986 c -0.02763,0.07478 -0.05524,0.149518 -0.08423,0.223242 -0.03831,0.09742 -0.07812,0.194047 -0.118856,0.289388 -0.04074,0.09534 -0.08237,0.189165 -0.125574,0.282154 -0.04297,0.0925 -0.08735,0.183986 -0.132808,0.273885 0.04847,-0.01975 0.09682,-0.03948 0.143144,-0.06098 0.05638,-0.02617 0.110918,-0.05392 0.163814,-0.08268 0.0529,-0.02876 0.104403,-0.05855 0.153479,-0.08992 0.04908,-0.03137 0.09616,-0.06419 0.141076,-0.09819 0.04492,-0.03399 0.08722,-0.06932 0.127641,-0.105937 0.06599,-0.05978 0.129848,-0.122076 0.190686,-0.186552 0.06084,-0.06448 0.118815,-0.131176 0.174667,-0.199987 0.05585,-0.06881 0.109161,-0.139602 0.160197,-0.21239 0.01283,-0.0183 0.02415,-0.03779 0.03669,-0.05633 -0.226038,0.0077 -0.458773,0.01582 -0.696082,0.02222 -0.044,0.0012 -0.08957,0.001 -0.133842,0.0021 z"
           style="display:inline;fill:#ffffff;stroke:none;stroke-width:0.529;stroke-dashoffset:4.8"
           id="path65" /><path
           d="m 21.909257,33.453255 c -0.0083,0.05381 -0.01799,0.106669 -0.02584,0.160714 -0.02938,0.202442 -0.05605,0.406741 -0.07906,0.612366 -0.01761,0.157379 -0.03131,0.316301 -0.04496,0.475423 0.03367,0.03001 0.0682,0.05988 0.0987,0.09043 0.04567,0.04575 0.08771,0.09231 0.125574,0.139009 0.03786,0.04669 0.07156,0.09377 0.100769,0.141077 0.02921,0.04731 0.05367,0.09504 0.07338,0.142627 0.01748,0.04222 0.03808,0.08307 0.0615,0.12299 0.02341,0.03992 0.05006,0.07866 0.07906,0.116272 0.029,0.03761 0.06031,0.07426 0.09457,0.109554 0.03426,0.03529 0.07141,0.06936 0.110588,0.102319 0.03917,0.03296 0.08078,0.06446 0.12454,0.09508 0.04376,0.03062 0.08946,0.06009 0.137459,0.08837 0.048,0.02827 0.09795,0.05574 0.149862,0.08165 0.05191,0.02591 0.105746,0.05036 0.161231,0.0739 0.0043,0.0018 0.0091,0.0033 0.01344,0.0052 -0.0015,-0.170435 -7.71e-4,-0.340541 0.0021,-0.510046 0.0028,-0.169677 0.0078,-0.338902 0.01499,-0.50798 0.0072,-0.169077 0.01647,-0.337616 0.02791,-0.506429 0.0048,-0.07028 0.01156,-0.140562 0.01705,-0.21084 -0.0061,-0.0036 -0.01254,-0.0067 -0.0186,-0.01033 -0.04417,-0.02635 -0.08782,-0.05332 -0.130225,-0.08165 -0.04241,-0.02833 -0.08398,-0.058 -0.12454,-0.08837 -0.110303,-0.08257 -0.235458,-0.170593 -0.371554,-0.262 -0.136096,-0.09141 -0.283052,-0.186122 -0.437182,-0.282153 -0.05168,-0.0322 -0.107591,-0.06475 -0.160714,-0.09715 z"
           style="display:inline;fill:#ffffff;stroke:none;stroke-width:0.529;stroke-dashoffset:4.8"
           id="path66" /><path
           d="m 20.351729,31.368628 c -0.01715,-0.0098 -0.03748,-0.01972 -0.05426,-0.02946 -0.06355,-0.03686 -0.124334,-0.07305 -0.181901,-0.109037 -0.05757,-0.03599 -0.11169,-0.07165 -0.162264,-0.106453 -0.05057,-0.0348 -0.09747,-0.06903 -0.140043,-0.10232 -0.04216,-0.03296 -0.08035,-0.06496 -0.113688,-0.09612 -0.02119,0.06368 -0.0425,0.126801 -0.06305,0.192753 -0.0315,0.101135 -0.06218,0.20505 -0.09198,0.311609 -0.0298,0.106559 -0.05895,0.215539 -0.08682,0.327629 -0.02787,0.11209 -0.05439,0.226954 -0.0801,0.344682 -0.0027,0.01242 -0.0051,0.02575 -0.0078,0.03824 0.09933,0.0354 0.214331,0.08253 0.342098,0.138493 0.09938,0.04353 0.211589,0.09666 0.324011,0.150378 0.03867,-0.15262 0.07834,-0.304201 0.12144,-0.452168 0.05108,-0.175384 0.104933,-0.347668 0.161747,-0.516765 0.01043,-0.03103 0.02195,-0.06064 0.03256,-0.09147 z"
           style="display:inline;fill:#ffffff;stroke:none;stroke-width:0.529;stroke-dashoffset:4.8"
           id="path67" /><path
           d="m 25.167456,31.225484 c -0.0412,0.186726 -0.08288,0.373253 -0.123507,0.560173 -0.08171,0.375885 -0.161646,0.752557 -0.237194,1.12913 -0.0094,0.0467 -0.01816,0.09334 -0.02739,0.140043 0.05587,0.01119 0.110973,0.0228 0.167432,0.03359 0.249892,0.04777 0.505231,0.09209 0.764294,0.132808 0.227064,0.03569 0.458074,0.06803 0.689364,0.09922 0.01576,-0.07439 0.03316,-0.14814 0.04858,-0.222726 0.03693,-0.178652 0.07285,-0.357786 0.107487,-0.537951 0.03463,-0.180166 0.06788,-0.361383 0.09973,-0.543636 0.03185,-0.182254 0.06236,-0.365438 0.09095,-0.550354 0.0045,-0.02885 0.008,-0.05841 0.0124,-0.08733 -0.198648,-0.01918 -0.396898,-0.03854 -0.597896,-0.05736 -0.290805,-0.02723 -0.581656,-0.05443 -0.865064,-0.08217 -0.04461,-0.0044 -0.08497,-0.009 -0.129191,-0.01344 z"
           style="display:inline;fill:#ffffff;stroke:none;stroke-width:0.529;stroke-dashoffset:4.8"
           id="path68" /><path
           d="m 20.839555,30.145964 c -0.05038,0.110814 -0.100649,0.22169 -0.148828,0.33538 -0.06668,0.157341 -0.131258,0.317507 -0.19327,0.48059 -0.05063,0.133158 -0.09853,0.269543 -0.145728,0.406694 0.112779,0.06428 0.230179,0.129527 0.356051,0.19482 0.130736,0.06782 0.268136,0.135531 0.40721,0.202572 0.03197,-0.105311 0.06291,-0.21202 0.09612,-0.315227 0.05923,-0.184091 0.120288,-0.365063 0.182935,-0.542085 0.05598,-0.158169 0.113368,-0.312408 0.171566,-0.464571 -0.131403,-0.05133 -0.262118,-0.102878 -0.383439,-0.152963 -0.123227,-0.05087 -0.234877,-0.09875 -0.342615,-0.14521 z"
           style="display:inline;fill:#ffffff;stroke:none;stroke-width:0.529;stroke-dashoffset:4.8"
           id="path69" /><path
           d="m 21.445719,28.955339 c -0.06243,-0.01526 -0.131009,-0.03075 -0.186035,-0.04548 -0.103785,-0.02778 -0.193305,-0.05378 -0.267167,-0.07648 -0.146732,-0.0451 -0.228334,-0.07555 -0.229443,-0.07596 -0.05487,0.0777 -0.1095,0.155911 -0.165882,0.243913 -0.07315,0.114172 -0.147605,0.237222 -0.221692,0.369486 -0.03704,0.06613 -0.07365,0.134341 -0.110587,0.205155 -0.03694,0.07081 -0.07399,0.144023 -0.110588,0.219625 -0.0055,0.01137 -0.01104,0.02366 -0.01654,0.03514 0,0 0.111348,0.05318 0.297656,0.13746 0.09315,0.04214 0.204761,0.092 0.330729,0.146761 0.02221,0.0097 0.05032,0.02106 0.07338,0.03101 0.01934,-0.04255 0.03771,-0.08654 0.05736,-0.128675 0.07081,-0.151871 0.143662,-0.300844 0.218074,-0.447518 0.07441,-0.146674 0.150413,-0.290783 0.227893,-0.432531 0.0337,-0.06165 0.06863,-0.121142 0.102836,-0.181901 z"
           style="display:inline;fill:#ffffff;stroke:none;stroke-width:0.529;stroke-dashoffset:4.8"
           id="path70" /><path
           d="m 25.618075,29.131038 c -0.20026,-0.0022 -0.401231,-0.0044 -0.597897,-0.0021 -0.261087,0.0031 -0.516911,0.0095 -0.762227,0.01809 -0.04772,0.0017 -0.08903,0.0039 -0.135909,0.0057 -0.01085,0.03856 -0.02239,0.07785 -0.03307,0.116271 -0.05131,0.184503 -0.10024,0.367888 -0.147795,0.549321 -0.04755,0.181433 -0.09371,0.361322 -0.137459,0.540019 -0.04375,0.178696 -0.08516,0.355974 -0.125057,0.532267 -0.01161,0.0513 -0.02179,0.101848 -0.03307,0.152962 0.03312,0.0051 0.063,0.01046 0.09715,0.0155 0.224911,0.0332 0.471845,0.06433 0.733288,0.09405 0.220287,0.02505 0.454737,0.0488 0.691431,0.07235 0.04165,-0.188769 0.08296,-0.377819 0.12454,-0.566373 0.08272,-0.375068 0.164825,-0.749328 0.243396,-1.123446 0.02835,-0.134986 0.05533,-0.269776 0.08268,-0.404627 z"
           style="display:inline;fill:#ffffff;stroke:none;stroke-width:0.529;stroke-dashoffset:4.8"
           id="path71" /><path
           d="m 28.36261,29.417843 c 0.0023,6.33e-4 0.0049,9.14e-4 0.0072,0.0015 0.09941,0.02759 0.194478,0.0574 0.283703,0.08992 0.04461,0.01626 0.08789,0.03309 0.129708,0.05064 0.04181,0.01756 0.08208,0.03588 0.120923,0.05478 0.03885,0.01889 0.07591,0.03812 0.111621,0.05839 0.0346,0.01964 0.06772,0.04 0.09922,0.06098 -0.0083,-0.0656 -0.01506,-0.134962 -0.02429,-0.19792 -0.02152,-0.146801 -0.04534,-0.286106 -0.0708,-0.416512 -0.02546,-0.130407 -0.05259,-0.252145 -0.08061,-0.363286 -0.02803,-0.111141 -0.05706,-0.211753 -0.0863,-0.300757 -0.02924,-0.089 -0.05876,-0.166482 -0.08785,-0.230476 -0.01809,-0.0398 -0.03732,-0.07779 -0.05839,-0.114722 -0.02108,-0.03693 -0.04377,-0.07282 -0.0677,-0.10697 -0.02393,-0.03415 -0.04933,-0.06674 -0.07597,-0.09819 -0.02664,-0.03145 -0.0545,-0.06161 -0.08371,-0.09043 -0.02921,-0.02882 -0.05982,-0.05641 -0.09147,-0.08268 -0.03165,-0.02628 -0.06424,-0.05112 -0.09818,-0.07493 -0.03394,-0.02381 -0.06932,-0.04627 -0.10542,-0.0677 -0.01179,-0.007 -0.02416,-0.0134 -0.03617,-0.02015 0.01376,0.0386 0.02671,0.07968 0.03927,0.124023 0.01267,0.04473 0.02476,0.09233 0.03617,0.142627 0.02283,0.1006 0.04344,0.212072 0.06098,0.333313 0.01754,0.121241 0.03201,0.252528 0.04393,0.392224 0.01191,0.139696 0.02091,0.287936 0.02687,0.443901 0.005,0.131424 0.0067,0.27083 0.0072,0.412378 z"
           style="display:inline;fill:#ffffff;stroke:none;stroke-width:0.529;stroke-dashoffset:4.8"
           id="path72" /><path
           d="m 24.122042,29.152743 c 0.04124,-0.146621 0.08305,-0.293058 0.126607,-0.441834 0.05501,-0.187906 0.111878,-0.377831 0.170532,-0.569474 0.05866,-0.191644 0.119134,-0.385129 0.181385,-0.580843 -0.08901,0.02446 -0.175582,0.04689 -0.259933,0.06718 -0.08435,0.02029 -0.166587,0.03833 -0.246496,0.05478 -0.07991,0.01645 -0.157372,0.03099 -0.233061,0.04392 -0.07569,0.01293 -0.149486,0.02436 -0.221175,0.03411 -0.0055,7.47e-4 -0.01055,0.0013 -0.01602,0.0021 -0.05777,0.128798 -0.115227,0.258813 -0.172082,0.391708 -0.06743,0.157619 -0.134268,0.317943 -0.199988,0.481107 -0.06572,0.163165 -0.130244,0.329171 -0.193787,0.497644 -0.0061,0.01615 -0.01202,0.03289 -0.01809,0.04909 0.08122,0.0026 0.163152,0.0036 0.24598,0.0031 0.09031,-5.39e-4 0.181708,-0.003 0.273368,-0.0078 0.176223,-0.0091 0.368636,-0.0173 0.562757,-0.0248 z"
           style="display:inline;fill:#ffffff;stroke:none;stroke-width:0.529;stroke-dashoffset:4.8"
           id="path73" /><path
           d="m 23.152075,34.27491 c 0.03831,0.02251 0.07672,0.04506 0.116272,0.06615 0.04584,0.02445 0.09262,0.04767 0.140043,0.07028 0.09485,0.04521 0.192333,0.0868 0.293006,0.125057 0.100673,0.03826 0.204255,0.07359 0.310058,0.10542 0.105804,0.03183 0.214287,0.06037 0.324528,0.0863 0.04862,0.01143 0.09893,0.02064 0.148312,0.03101 0.0071,-0.04942 0.01325,-0.0989 0.02067,-0.148312 0.02832,-0.188678 0.05883,-0.377292 0.09095,-0.565857 0.03212,-0.188564 0.06602,-0.376906 0.101286,-0.56534 0.02652,-0.141699 0.05418,-0.283163 0.08216,-0.42478 -0.06777,-0.01358 -0.136259,-0.02663 -0.203088,-0.04082 -0.121921,-0.02589 -0.24178,-0.05256 -0.360185,-0.08062 -0.118405,-0.02805 -0.234931,-0.05748 -0.349333,-0.08785 -0.114401,-0.03037 -0.227022,-0.06171 -0.33693,-0.09457 -0.06586,-0.01969 -0.129163,-0.04087 -0.19327,-0.06149 -0.01399,0.09131 -0.02904,0.182861 -0.04186,0.273885 -0.02395,0.170017 -0.0458,0.339214 -0.06563,0.508496 -0.01983,0.169282 -0.03757,0.338582 -0.05323,0.507462 -0.0091,0.09857 -0.01606,0.197067 -0.02377,0.295589 z"
           style="opacity:1;fill:#ffffff;stroke:none;stroke-width:0.132292;stroke-dashoffset:4.8"
           id="path74" /></g><g
         id="g84"
         style="display:inline;opacity:0.5;fill:#ffffff;stroke:none;stroke-width:0.529167;stroke-dasharray:none"
         transform="translate(1.2485225,-6.6933401)"><path
           d="m 26.040271,34.935852 c -0.105356,0.455585 -0.21037,0.908213 -0.314193,1.37356 0.0029,-3.35e-4 0.0059,-6.95e-4 0.0088,-0.001 0.07136,-0.0083 0.142163,-0.01761 0.21239,-0.02842 0.07023,-0.01081 0.140014,-0.02335 0.208773,-0.03669 0.06876,-0.01334 0.13665,-0.02752 0.203605,-0.04341 0.06696,-0.01589 0.132589,-0.03324 0.197404,-0.05168 0.06482,-0.01844 0.128863,-0.03791 0.191203,-0.05891 0.06234,-0.02101 0.12289,-0.0436 0.182418,-0.06718 0.01062,-0.0042 0.02048,-0.0091 0.03101,-0.01344 0.04545,-0.0899 0.08983,-0.181389 0.132808,-0.273885 0.0432,-0.09299 0.08484,-0.186813 0.125574,-0.282154 0.04074,-0.09534 0.08054,-0.191967 0.118856,-0.289388 0.029,-0.07372 0.0566,-0.148464 0.08423,-0.223242 -0.195227,0.0047 -0.391401,0.0091 -0.590145,0.0098 -0.121908,4.57e-4 -0.244582,1.66e-4 -0.366902,-0.0016 -0.12232,-0.0017 -0.244347,-0.0049 -0.366386,-0.0093 -0.01988,-7.21e-4 -0.03956,-0.0023 -0.05943,-0.0031 z"
           style="display:inline;fill:#ffffff;stroke:none;stroke-width:0.529;stroke-dashoffset:4.8"
           id="path75" /><path
           d="m 20.824052,32.832104 c -0.02913,0.120067 -0.05919,0.239138 -0.0863,0.361219 -0.04495,0.202424 -0.08672,0.407372 -0.125573,0.614949 -0.01202,0.0642 -0.02168,0.130161 -0.03307,0.19482 0.04986,0.02029 0.09984,0.04034 0.148828,0.06201 0.07482,0.0331 0.148588,0.06732 0.220658,0.103353 0.07207,0.03604 0.142879,0.07349 0.211357,0.112138 0.06848,0.03864 0.134912,0.07845 0.198954,0.119372 0.06404,0.04092 0.125722,0.08323 0.184485,0.126091 0.05876,0.04286 0.114275,0.08627 0.166915,0.130741 0.01748,0.01477 0.03235,0.03004 0.04909,0.04496 0.01365,-0.159122 0.02734,-0.318044 0.04496,-0.475423 0.02302,-0.205625 0.04969,-0.409924 0.07906,-0.612366 0.0078,-0.05404 0.01756,-0.106907 0.02584,-0.160714 -0.105318,-0.06424 -0.20956,-0.128126 -0.318844,-0.192236 -0.164407,-0.09645 -0.332268,-0.19208 -0.499194,-0.284737 -0.09016,-0.05004 -0.178019,-0.09618 -0.267167,-0.144178 z"
           style="display:inline;fill:#ffffff;stroke:none;stroke-width:0.529;stroke-dashoffset:4.8"
           id="path76" /><path
           d="m 27.423132,34.939986 c 0.04428,-0.0011 0.08984,-8.8e-4 0.133842,-0.0021 0.237309,-0.0064 0.470044,-0.01457 0.696082,-0.02222 0.03731,-0.05519 0.07483,-0.110239 0.109554,-0.167431 0.04639,-0.07641 0.09038,-0.154428 0.132292,-0.234095 0.04191,-0.07967 0.08176,-0.161345 0.119372,-0.243912 0.03761,-0.08257 0.07298,-0.166039 0.106454,-0.251148 0.03347,-0.08511 0.06506,-0.171607 0.09457,-0.258899 0.01827,-0.05404 0.03436,-0.109046 0.05116,-0.163814 -0.256137,-0.02522 -0.516179,-0.05087 -0.778764,-0.07803 -0.0748,-0.0077 -0.150709,-0.01633 -0.225826,-0.02429 -0.01253,0.05057 -0.02313,0.101476 -0.03617,0.151928 -0.02682,0.10372 -0.05468,0.207052 -0.08372,0.310059 -0.02904,0.103006 -0.05914,0.205972 -0.09043,0.307991 -0.03129,0.10202 -0.06356,0.203098 -0.09715,0.303858 -0.03359,0.10076 -0.06845,0.201013 -0.104386,0.30024 -0.0087,0.02414 -0.01799,0.0478 -0.02687,0.07183 z"
           style="display:inline;fill:#ffffff;stroke:none;stroke-width:0.529;stroke-dashoffset:4.8"
           id="path77" /><path
           d="m 20.839555,30.145964 c -0.02306,-0.0099 -0.05117,-0.02135 -0.07338,-0.03101 -0.125968,-0.05476 -0.237575,-0.104622 -0.330729,-0.146761 -0.186308,-0.08428 -0.297656,-0.13746 -0.297656,-0.13746 -0.03104,0.06485 -0.06188,0.130564 -0.0925,0.198955 -0.03604,0.0805 -0.07172,0.163583 -0.10697,0.24908 -0.03525,0.0855 -0.07016,0.173463 -0.104387,0.264067 -0.03423,0.0906 -0.06779,0.183753 -0.100769,0.279569 -0.01147,0.03333 -0.02229,0.06887 -0.03359,0.102836 0.03334,0.03116 0.07152,0.06316 0.113688,0.09612 0.04257,0.03328 0.08947,0.06752 0.140043,0.10232 0.05057,0.0348 0.104697,0.07046 0.162264,0.106453 0.05757,0.03599 0.118347,0.07218 0.181901,0.109037 0.01678,0.0097 0.03711,0.01968 0.05426,0.02946 0.0472,-0.137151 0.0951,-0.273536 0.145728,-0.406694 0.06201,-0.163083 0.126592,-0.323249 0.19327,-0.48059 0.04818,-0.11369 0.09845,-0.224566 0.148828,-0.33538 z"
           style="display:inline;fill:#ffffff;stroke:none;stroke-width:0.529;stroke-dashoffset:4.8"
           id="path78" /><path
           d="m 24.122042,29.152743 c -0.194121,0.0075 -0.386534,0.01566 -0.562757,0.0248 -0.09166,0.0048 -0.183056,0.0072 -0.273368,0.0078 -0.08283,4.93e-4 -0.164757,-4.7e-4 -0.24598,-0.0031 -0.05724,0.152771 -0.11392,0.306629 -0.168982,0.463538 -0.0609,0.173547 -0.12049,0.349749 -0.178283,0.528133 -0.05779,0.178384 -0.113729,0.359101 -0.167949,0.542086 -0.006,0.02028 -0.01161,0.04116 -0.01757,0.0615 0.05137,0.01612 0.103811,0.03512 0.154513,0.05013 0.08273,0.02449 0.164386,0.04725 0.244429,0.06821 0.08004,0.02096 0.158407,0.04012 0.234611,0.05684 0.08691,0.01908 0.181563,0.03755 0.282154,0.05529 0.07004,0.01236 0.146797,0.02387 0.222725,0.03566 0.01128,-0.05111 0.02146,-0.101663 0.03307,-0.152962 0.0399,-0.176293 0.08131,-0.353571 0.125057,-0.532267 0.04375,-0.178697 0.0899,-0.358586 0.137459,-0.540019 0.04755,-0.181433 0.09649,-0.364818 0.147795,-0.549321 0.01068,-0.03842 0.02223,-0.07771 0.03307,-0.116271 z"
           style="display:inline;fill:#ffffff;stroke:none;stroke-width:0.529;stroke-dashoffset:4.8"
           id="path79" /><path
           d="m 28.224117,31.538643 c 0.0018,2.42e-4 0.0039,2.76e-4 0.0057,5.17e-4 0.122782,0.01623 0.241189,0.03281 0.353984,0.05013 0.112795,0.01731 0.220441,0.03568 0.321427,0.05426 0.100633,0.01851 0.194535,0.03792 0.281637,0.05788 0.0026,-0.04551 0.0058,-0.09111 0.0078,-0.136426 0.0039,-0.09183 0.0068,-0.183617 0.0083,-0.274401 0.0015,-0.09079 0.0018,-0.180891 0.001,-0.270268 -0.0015,-0.178756 -0.0075,-0.354057 -0.01705,-0.525033 -0.0096,-0.170975 -0.02305,-0.33732 -0.03927,-0.497644 -0.0093,-0.09157 -0.02147,-0.176194 -0.03256,-0.26355 -0.0315,-0.02098 -0.06462,-0.04133 -0.09922,-0.06098 -0.03571,-0.02027 -0.07278,-0.0395 -0.111621,-0.05839 -0.03885,-0.01889 -0.07911,-0.03722 -0.120923,-0.05478 -0.04181,-0.01756 -0.0851,-0.03438 -0.129708,-0.05064 -0.08922,-0.03252 -0.184291,-0.06233 -0.283703,-0.08992 -0.0023,-6.36e-4 -0.0049,-9.17e-4 -0.0072,-0.0015 1.07e-4,0.02643 0.0016,0.05024 0.0015,0.077 -3.28e-4,0.170049 -0.0039,0.346703 -0.01085,0.52865 -0.0069,0.181948 -0.01711,0.369547 -0.03101,0.561206 -0.0139,0.19166 -0.03153,0.387341 -0.05271,0.586528 -0.01284,0.120737 -0.02986,0.244562 -0.04547,0.367419 z"
           style="display:inline;fill:#ffffff;stroke:none;stroke-width:0.529;stroke-dashoffset:4.8"
           id="path80" /><path
           d="m 28.36261,29.417843 c -5.76e-4,-0.141548 -0.0022,-0.280954 -0.0072,-0.412378 -0.006,-0.155965 -0.01496,-0.304205 -0.02687,-0.443901 -0.01191,-0.139696 -0.02639,-0.270983 -0.04393,-0.392224 -0.01754,-0.121241 -0.03815,-0.232713 -0.06098,-0.333313 -0.01141,-0.0503 -0.0235,-0.0979 -0.03617,-0.142627 -0.01256,-0.04434 -0.02551,-0.08542 -0.03927,-0.124023 -0.02476,-0.01391 -0.04927,-0.02795 -0.07493,-0.04082 -0.03812,-0.01912 -0.07731,-0.03737 -0.117306,-0.05426 -0.04,-0.01689 -0.08073,-0.03228 -0.122473,-0.04703 -0.04174,-0.01474 -0.08429,-0.02866 -0.127641,-0.04134 -0.04335,-0.01268 -0.08748,-0.02445 -0.132291,-0.03514 -0.08963,-0.02138 -0.182329,-0.0388 -0.276986,-0.05271 -0.09466,-0.0139 -0.191324,-0.02394 -0.289905,-0.03101 0.0078,0.219658 0.01225,0.43557 0.01344,0.64854 0.0012,0.212969 -6.96e-4,0.422562 -0.0057,0.629419 -0.005,0.206856 -0.01309,0.411047 -0.02377,0.612365 -6.11e-4,0.01151 -0.0014,0.02262 -0.0021,0.03411 0.001,9e-5 0.0021,-9e-5 0.0031,0 0.126707,0.01126 0.251719,0.02444 0.373621,0.03927 0.121902,0.01484 0.240816,0.03138 0.356567,0.05013 0.115751,0.01875 0.228159,0.03953 0.336414,0.06253 0.105758,0.02247 0.20704,0.04757 0.304374,0.07441 z"
           style="display:inline;fill:#ffffff;stroke:none;stroke-width:0.529;stroke-dashoffset:4.8"
           id="path81" /><path
           d="m 23.039937,29.182198 c 0.0061,-0.0162 0.012,-0.03294 0.01809,-0.04909 0.06354,-0.168473 0.128066,-0.334479 0.193787,-0.497644 0.06572,-0.163164 0.132555,-0.323488 0.199988,-0.481107 0.05685,-0.132895 0.114314,-0.26291 0.172082,-0.391708 -0.06592,0.0088 -0.130563,0.01638 -0.19327,0.02274 -0.06791,0.0069 -0.134084,0.01219 -0.198437,0.01654 -0.128707,0.0087 -0.250585,0.01292 -0.366386,0.01344 -0.01631,7.2e-5 -0.03043,-9.72e-4 -0.04651,-0.001 -0.06715,0.113079 -0.134699,0.23121 -0.203088,0.3545 -0.06909,0.124547 -0.139084,0.254117 -0.208773,0.388607 -0.06969,0.13449 -0.139152,0.274107 -0.208773,0.418062 -0.01875,0.03878 -0.03761,0.08045 -0.05633,0.11989 0.03943,0.0061 0.07782,0.01292 0.118339,0.0186 0.07908,0.0111 0.160118,0.021 0.242879,0.02997 0.08276,0.009 0.166836,0.01693 0.252698,0.02325 0.08586,0.0063 0.173104,0.01131 0.261482,0.01447 0.0073,2.62e-4 0.01488,2.79e-4 0.02222,5.17e-4 z"
           style="display:inline;fill:#ffffff;stroke:none;stroke-width:0.529;stroke-dashoffset:4.8"
           id="path82" /><path
           d="m 23.645585,31.043583 c -0.02748,0.124543 -0.05562,0.24906 -0.08113,0.372587 -0.03599,0.174224 -0.06978,0.347377 -0.101802,0.519865 -0.03203,0.172488 -0.0619,0.344645 -0.08992,0.515731 -0.01302,0.07949 -0.02403,0.158471 -0.03617,0.237712 0.06411,0.02063 0.127409,0.0418 0.19327,0.06149 0.109908,0.03286 0.222529,0.06419 0.33693,0.09457 0.114402,0.03037 0.230928,0.0598 0.349333,0.08785 0.118405,0.02805 0.238264,0.05473 0.360185,0.08062 0.06683,0.01419 0.135317,0.02725 0.203088,0.04082 0.0092,-0.04671 0.01802,-0.09334 0.02739,-0.140043 0.07555,-0.376573 0.155486,-0.753245 0.237194,-1.12913 0.04063,-0.18692 0.08231,-0.373447 0.123507,-0.560173 -0.236694,-0.02355 -0.471144,-0.0473 -0.691431,-0.07235 -0.261443,-0.02973 -0.508377,-0.06085 -0.733288,-0.09405 -0.03415,-0.005 -0.06404,-0.01036 -0.09715,-0.0155 z"
           style="opacity:1;fill:#ffffff;stroke:none;stroke-width:0.132292;stroke-dashoffset:4.8"
           id="path83" /><path
           d="m 21.909257,33.453255 c 0.05312,0.0324 0.109036,0.06495 0.160714,0.09715 0.15413,0.09603 0.301086,0.190747 0.437182,0.282153 0.136096,0.09141 0.261251,0.179425 0.371554,0.262 0.04056,0.03036 0.08213,0.06004 0.12454,0.08837 0.04241,0.02833 0.08606,0.0553 0.130225,0.08165 0.0061,0.0036 0.01251,0.0068 0.0186,0.01033 0.0077,-0.09852 0.01463,-0.197019 0.02377,-0.295589 0.01566,-0.16888 0.0334,-0.33818 0.05323,-0.507462 0.01983,-0.169282 0.04168,-0.338479 0.06563,-0.508496 0.01282,-0.09102 0.02787,-0.182578 0.04186,-0.273885 -0.04287,-0.0138 -0.08714,-0.02712 -0.129191,-0.04134 -0.104927,-0.0355 -0.206986,-0.07229 -0.306441,-0.110587 -0.113851,-0.04384 -0.241057,-0.09403 -0.377238,-0.149345 -0.121825,-0.04948 -0.252946,-0.10402 -0.38654,-0.160714 -0.01408,0.06446 -0.02937,0.127876 -0.04289,0.192753 -0.04071,0.195368 -0.07893,0.392672 -0.114205,0.591695 -0.02586,0.145892 -0.04807,0.293572 -0.0708,0.441317 z"
           style="opacity:1;fill:#ffffff;stroke:none;stroke-width:0.132292;stroke-dashoffset:4.8"
           id="path84" /></g></g></g><g
     inkscape:groupmode="layer"
     id="layer4"
     inkscape:label="Layer 3" /></svg>
