<?xml version="1.0" encoding="UTF-8" standalone="no"?>
<!-- Created with Inkscape (http://www.inkscape.org/) -->

<svg
   width="32"
   height="32"
   viewBox="0 0 8.4666665 8.4666669"
   version="1.1"
   id="svg5"
   inkscape:version="1.1.2 (b8e25be833, 2022-02-05)"
   sodipodi:docname="StatusEffects_inkscape.svg"
   inkscape:export-filename="E:\godot\projects\LewdGame\AssetsSource\bodywritings.png"
   inkscape:export-xdpi="192"
   inkscape:export-ydpi="192"
   xmlns:inkscape="http://www.inkscape.org/namespaces/inkscape"
   xmlns:sodipodi="http://sodipodi.sourceforge.net/DTD/sodipodi-0.dtd"
   xmlns:xlink="http://www.w3.org/1999/xlink"
   xmlns="http://www.w3.org/2000/svg"
   xmlns:svg="http://www.w3.org/2000/svg">
  <sodipodi:namedview
     id="namedview7"
     pagecolor="#ffffff"
     bordercolor="#666666"
     borderopacity="1.0"
     inkscape:pageshadow="2"
     inkscape:pageopacity="0.0"
     inkscape:pagecheckerboard="0"
     inkscape:document-units="mm"
     showgrid="false"
     units="px"
     inkscape:zoom="6.7275"
     inkscape:cx="45.261984"
     inkscape:cy="24.749164"
     inkscape:window-width="1920"
     inkscape:window-height="1018"
     inkscape:window-x="-8"
     inkscape:window-y="-8"
     inkscape:window-maximized="1"
     inkscape:current-layer="layer1"
     width="32px"
     inkscape:snap-global="true"
     inkscape:snap-bbox="false"
     inkscape:bbox-nodes="false"
     inkscape:snap-bbox-edge-midpoints="false"
     inkscape:snap-bbox-midpoints="false">
    <inkscape:grid
       type="xygrid"
       id="grid824"
       empspacing="4" />
  </sodipodi:namedview>
  <defs
     id="defs2">
    <linearGradient
       inkscape:collect="always"
       id="linearGradient5207">
      <stop
         style="stop-color:#ffffff;stop-opacity:1"
         offset="0"
         id="stop5203" />
      <stop
         style="stop-color:#d6d6d6;stop-opacity:1"
         offset="1"
         id="stop5205" />
    </linearGradient>
    <radialGradient
       inkscape:collect="always"
       xlink:href="#linearGradient5207"
       id="radialGradient3489"
       cx="4.5341163"
       cy="3.2093091"
       fx="4.5341163"
       fy="3.2093091"
       r="3.1285607"
       gradientTransform="matrix(0.97707384,0.11243022,-0.10574736,0.9190563,-16.295749,-8.4370696)"
       gradientUnits="userSpaceOnUse" />
    <radialGradient
       inkscape:collect="always"
       xlink:href="#linearGradient5207"
       id="radialGradient3491"
       cx="4.7166423"
       cy="7.3979564"
       fx="4.7166423"
       fy="7.3979564"
       r="2.3242178"
       gradientTransform="matrix(0.98352073,0,0,0.39831859,-16.799858,-4.0021361)"
       gradientUnits="userSpaceOnUse" />
    <radialGradient
       inkscape:collect="always"
       xlink:href="#linearGradient5207"
       id="radialGradient3493"
       cx="1.3219636"
       cy="3.9349214"
       fx="1.3219636"
       fy="3.9349214"
       r="0.90038083"
       gradientTransform="matrix(0.98352073,0,0,2.4930976,-16.799858,-14.271613)"
       gradientUnits="userSpaceOnUse" />
    <radialGradient
       inkscape:collect="always"
       xlink:href="#linearGradient5207"
       id="radialGradient3495"
       cx="7.4288327"
       cy="3.6716626"
       fx="7.4288327"
       fy="3.6716626"
       r="0.80020955"
       gradientTransform="matrix(0.98352073,0,0,0.95887047,-16.799858,-8.2410481)"
       gradientUnits="userSpaceOnUse" />
    <radialGradient
       inkscape:collect="always"
       xlink:href="#linearGradient5207"
       id="radialGradient3499"
       cx="6.2969709"
       cy="5.2433029"
       fx="6.2969709"
       fy="5.2433029"
       r="1.8438907"
       gradientTransform="matrix(0.98352073,0,0,0.4113625,-16.799858,-5.3315062)"
       gradientUnits="userSpaceOnUse" />
    <radialGradient
       inkscape:collect="always"
       xlink:href="#linearGradient5207"
       id="radialGradient3501"
       cx="3.7341664"
       cy="1.9247936"
       fx="3.7341664"
       fy="1.9247936"
       r="0.90177967"
       gradientTransform="matrix(1.743549,0.48154348,-0.44169335,1.5993658,-18.759867,-11.946913)"
       gradientUnits="userSpaceOnUse" />
    <radialGradient
       inkscape:collect="always"
       xlink:href="#linearGradient5207"
       id="radialGradient5866"
       cx="5.267067"
       cy="1.0864727"
       fx="5.267067"
       fy="1.0864727"
       r="1.0718718"
       gradientTransform="matrix(0.98352073,0,0,0.6762006,-16.799858,-7.9977433)"
       gradientUnits="userSpaceOnUse" />
    <clipPath
       clipPathUnits="userSpaceOnUse"
       id="clipPath3352">
      <rect
         style="opacity:1;fill:#babdb6;fill-opacity:0.55157;stroke:none;stroke-width:1.875;stroke-linecap:butt;stroke-linejoin:miter;stroke-miterlimit:4;stroke-dasharray:none;stroke-dashoffset:0;stroke-opacity:1"
         id="rect3354"
         width="198.17136"
         height="128"
         x="663.81201"
         y="171.37723" />
    </clipPath>
  </defs>
  <g
     inkscape:label="Layer 1"
     inkscape:groupmode="layer"
     id="layer1">
    <rect
       style="fill:#ffe0b2;stroke:none;stroke-width:0.529167;stroke-linecap:square;stroke-linejoin:round"
       id="rect1523-6-1-4-4-0"
       width="8.4666662"
       height="8.4666662"
       x="101.60004"
       y="-8.4666643"
       ry="0" />
    <rect
       style="fill:#ffe0b2;stroke:none;stroke-width:0.529167;stroke-linecap:square;stroke-linejoin:round"
       id="rect1523-6-1-4-4-0-3"
       width="8.4666662"
       height="8.4666662"
       x="1.1444092e-05"
       y="1.9073486e-06"
       ry="0" />
    <rect
       style="fill:#ffe0b2;stroke:none;stroke-width:0.529167;stroke-linecap:square;stroke-linejoin:round"
       id="rect1523-6-1-4"
       width="8.4666662"
       height="8.4666662"
       x="2.8610229e-06"
       y="-8.4666643"
       ry="0" />
    <rect
       style="fill:#ffe0b2;stroke:none;stroke-width:0.529167;stroke-linecap:square;stroke-linejoin:round"
       id="rect1523-6-1-4-4"
       width="8.4666662"
       height="8.4666662"
       x="8.4666634"
       y="-8.4666643"
       ry="0" />
    <rect
       style="fill:#ffe0b2;stroke:none;stroke-width:0.529167;stroke-linecap:square;stroke-linejoin:round"
       id="rect1523-6-1-4-4-3"
       width="8.4666662"
       height="8.4666662"
       x="16.933332"
       y="-8.4666643"
       ry="0" />
    <rect
       style="fill:#ffe0b2;stroke:none;stroke-width:0.529167;stroke-linecap:square;stroke-linejoin:round"
       id="rect1523-6-1-4-4-3-9"
       width="8.4666662"
       height="8.4666662"
       x="25.400013"
       y="-8.4666643"
       ry="0" />
    <rect
       style="fill:#ffe0b2;stroke:none;stroke-width:0.529167;stroke-linecap:square;stroke-linejoin:round"
       id="rect1523-6-1-4-4-3-9-2"
       width="8.4666662"
       height="8.4666662"
       x="33.866684"
       y="-8.4666643"
       ry="0" />
    <rect
       style="fill:#ffe0b2;stroke:none;stroke-width:0.529167;stroke-linecap:square;stroke-linejoin:round"
       id="rect1523-6-1-4-4-3-9-2-5"
       width="8.4666662"
       height="8.4666662"
       x="42.333359"
       y="-8.4666643"
       ry="0" />
    <rect
       style="fill:#ffe0b2;stroke:none;stroke-width:0.529167;stroke-linecap:square;stroke-linejoin:round"
       id="rect1523-6-1-4-4-3-9-2-5-2"
       width="8.4666662"
       height="8.4666662"
       x="50.800041"
       y="-8.4666643"
       ry="0" />
    <rect
       style="fill:#ffe0b2;stroke:none;stroke-width:0.529167;stroke-linecap:square;stroke-linejoin:round"
       id="rect1523-6-1-4-4-3-9-2-5-2-8"
       width="8.4666662"
       height="8.4666662"
       x="76.200035"
       y="-8.4666643"
       ry="0" />
    <rect
       style="fill:#ffe0b2;stroke:none;stroke-width:0.529167;stroke-linecap:square;stroke-linejoin:round"
       id="rect1523-6-1-4-4-3-9-2-5-2-8-8"
       width="8.4666662"
       height="8.4666662"
       x="84.666702"
       y="-8.4666643"
       ry="0" />
    <path
       style="fill:#ffffff;fill-opacity:1;stroke:none;stroke-width:0.264583px;stroke-linecap:butt;stroke-linejoin:miter;stroke-opacity:1"
       d="m 54.504196,-0.52916418 h 1.058334 l 0.264583,-3.43958332 0.529165,-0.2645834 h -2.645834 l 0.529169,0.2645833 z"
       id="path1842"
       sodipodi:nodetypes="ccccccc" />
    <path
       style="fill:#ffffff;fill-opacity:1;stroke:#000000;stroke-width:0.264583px;stroke-linecap:butt;stroke-linejoin:round;stroke-opacity:1"
       d="m 1.5875198,-3.9687476 v -3.4395833 l 1.852083,0.2645833 c 0.212952,0.4261521 0.186993,0.8866279 -0.201314,1.8415386 -0.130192,0.3201634 -0.288757,0.9261123 -0.327853,1.3334615 z"
       id="path7085"
       sodipodi:nodetypes="cccscc" />
    <rect
       style="fill:#ffe0b2;stroke:none;stroke-width:0.529167;stroke-linecap:square;stroke-linejoin:round"
       id="rect1523-6-1"
       width="8.4666662"
       height="8.4666662"
       x="-8.4666548"
       y="-8.4666643"
       ry="0" />
    <path
       style="color:#000000;fill:#ffffff;fill-opacity:1;stroke:#000000;stroke-width:0.132292;stroke-linecap:round;stroke-linejoin:round;stroke-miterlimit:4;stroke-dasharray:none;stroke-opacity:1"
       d="m -6.6877883,-6.2132389 c -0.2453496,0.1562329 -0.3183987,0.4854118 -0.1621656,0.7307615 0.1562326,0.2453498 0.4854117,0.3183992 0.7307603,0.1621664 l 0.4464637,-0.2842977 c 0.24535,-0.1562328 0.318399,-0.4854118 0.162167,-0.7307616 -0.156233,-0.2453497 -0.4854117,-0.3183991 -0.7307617,-0.1621662 z m 0.142673,0.2240557 0.4464637,-0.2842976 c 0.125571,-0.07996 0.2857201,-0.045835 0.3656797,0.079735 0.07996,0.1255703 0.04314,0.2851215 -0.08243,0.3650816 l -0.446464,0.2842977 c -0.1255704,0.07996 -0.2840725,0.044786 -0.3640335,-0.080784 -0.07996,-0.1255702 -0.04479,-0.2840723 0.08078,-0.3640325 z"
       id="rect1000" />
    <path
       id="path1577"
       style="color:#000000;fill:#ffffff;fill-opacity:1;stroke:#000000;stroke-width:0.211667;stroke-linecap:round;stroke-linejoin:round;stroke-miterlimit:4;stroke-dasharray:none;stroke-opacity:1"
       d="m -7.108748,-5.5527228 c -0.3219256,0 -0.5813596,0.259434 -0.5813596,0.5813597 v 0.6965984 c 0,0.078674 0.01532,0.1533806 0.04341,0.2216917 -0.3623167,0.3218646 -0.5917367,0.7905769 -0.5916947,1.3110311 -7.7e-5,0.965844 0.7885707,1.75449202 1.754414,1.75441502 0.9658434,7.7e-5 1.7544912,-0.78857102 1.7544132,-1.75441502 -4.3e-5,-0.2446097 -0.05131,-0.4863825 -0.1503781,-0.710034 a 0.26458332,0.26458332 0 0 0 -0.348816,-0.1348756 0.26458332,0.26458332 0 0 0 -0.1348747,0.3488158 c 0.06919,0.1561957 0.1048731,0.3252608 0.1049031,0.4960938 5.4e-5,0.6798315 -0.5454167,1.2253026 -1.2252475,1.2252483 -0.6798317,5.43e-5 -1.2253023,-0.5454168 -1.2252473,-1.2252483 -3.2e-5,-0.3939588 0.183393,-0.7426444 0.4697376,-0.9663491 0.042,0.00959 0.08575,0.014469 0.130742,0.014469 h 1.1932084 c 0.3219247,0 0.5813588,-0.2589173 0.5813588,-0.580843 v -0.6965981 c 0,-0.3219257 -0.2594341,-0.58136 -0.5813588,-0.5813597 z m 0.5818757,0.4128945 a 0.2645833,0.2645833 0 0 1 0.2645837,0.2645833 0.2645833,0.2645833 0 0 1 -0.1322916,0.2294435 v 0.2335773 c 0,0.036645 -0.0295,0.066146 -0.06615,0.066146 h -0.132291 c -0.03665,0 -0.06615,-0.029501 -0.06615,-0.066146 v -0.2335773 a 0.2645833,0.2645833 0 0 1 -0.132292,-0.2294435 0.2645833,0.2645833 0 0 1 0.264583,-0.2645833 z" />
    <path
       style="color:#000000;fill:#ffffff;fill-opacity:1;stroke:#000000;stroke-width:0.132292;stroke-linecap:round;stroke-linejoin:round;stroke-miterlimit:4;stroke-dasharray:none;stroke-opacity:1"
       d="m -5.9805156,-6.9715736 c -0.24535,0.1562329 -0.3183986,0.4854119 -0.162167,0.7307616 0.156233,0.2453497 0.4854117,0.3183992 0.7307617,0.1621663 l 0.4464637,-0.2842975 c 0.2453501,-0.1562329 0.3183987,-0.4854119 0.1621661,-0.7307616 -0.1562331,-0.2453497 -0.4854117,-0.3183992 -0.7307608,-0.1621663 z m 0.1426731,0.2240557 0.4464636,-0.2842975 c 0.1255701,-0.07996 0.2857197,-0.045835 0.3656797,0.079735 0.07996,0.1255702 0.04419,0.2867689 -0.08138,0.366729 l -0.4464637,0.2842976 c -0.125571,0.07996 -0.2851216,0.043139 -0.3650817,-0.082431 -0.07996,-0.1255702 -0.04479,-0.2840724 0.08078,-0.3640326 z"
       id="rect1000-24" />
    <path
       style="color:#000000;fill:#ffffff;fill-opacity:1;stroke:#000000;stroke-width:0.132292;stroke-linecap:round;stroke-linejoin:round;stroke-miterlimit:4;stroke-dasharray:none;stroke-opacity:1"
       d="m -4.6721965,-7.1595334 c -0.2904137,-0.016269 -0.5418037,0.2084499 -0.5580717,0.4988643 -0.01627,0.2904144 0.20845,0.5418038 0.4988641,0.5580724 l 0.5284677,0.029604 c 0.2904146,0.016269 0.5398537,-0.2085592 0.5561224,-0.4989736 0.01627,-0.2904143 -0.2064998,-0.5416945 -0.4969138,-0.5579631 z m -0.01486,0.2652092 0.5284677,0.029604 c 0.148634,0.00833 0.256838,0.1293722 0.248512,0.2780065 -0.0083,0.1486344 -0.129482,0.2587881 -0.2781156,0.2504618 l -0.5284687,-0.029604 c -0.1486341,-0.00833 -0.2586781,-0.1314315 -0.2503521,-0.2800659 0.0083,-0.1486343 0.131322,-0.2567287 0.2799567,-0.2484024 z"
       id="rect1000-24-0" />
    <path
       id="path1577-3"
       style="color:#000000;fill:#ffffff;fill-opacity:1;stroke:#000000;stroke-width:0.211667;stroke-linecap:round;stroke-linejoin:round;stroke-miterlimit:4;stroke-dasharray:none;stroke-opacity:1"
       d="m -4.4434825,-6.0395696 c -0.23028,0.2249607 -0.234567,0.591831 -0.0096,0.8221108 l 0.4867807,0.4982907 c 0.05498,0.056277 0.118138,0.099013 0.185968,0.1282472 -0.03425,0.4834223 0.1291701,0.9790196 0.4928927,1.3512816 0.6748738,0.6909414 1.7901138,0.703972 2.48094652,0.028988 0.6909457,-0.6748737 0.7039757,-1.7901143 0.02899,-2.4809479 -0.170963,-0.1749443 -0.37658672,-0.3120624 -0.60373772,-0.4028176 a 0.26458332,0.26458332 0 0 0 -0.3437647,0.1472722 0.26458332,0.26458332 0 0 0 0.1472721,0.3437656 c 0.1586386,0.063382 0.3023086,0.1593805 0.4217076,0.2815599 0.47510272,0.4862592 0.46608972,1.2576189 -0.02024,1.7326443 -0.4862587,0.475103 -1.2576184,0.4660903 -1.7326441,-0.020245 -0.2753196,-0.2817844 -0.3877727,-0.6593829 -0.3392677,-1.0195007 0.03675,-0.022492 0.07145,-0.049572 0.1036331,-0.081011 l 0.8535253,-0.8338108 c 0.2302798,-0.2249608 0.2349277,-0.5914612 0.01,-0.8217411 l -0.4867837,-0.4982907 c -0.22496,-0.2302798 -0.5918307,-0.2345667 -0.8221097,-0.00961 z m 0.7047568,-0.1112619 a 0.2645833,0.2645833 0 0 1 0.3741516,0.00437 0.2645833,0.2645833 0 0 1 0.0657,0.2565705 l 0.1632231,0.1670825 c 0.02561,0.026213 0.02512,0.067931 -0.0011,0.093538 l -0.09463,0.092445 c -0.02621,0.025607 -0.06793,0.02512 -0.09354,-0.00109 l -0.163211,-0.1670837 a 0.2645833,0.2645833 0 0 1 -0.2549647,-0.071681 0.2645833,0.2645833 0 0 1 0.0044,-0.3741517 z" />
    <rect
       style="fill:#ffe0b2;stroke:none;stroke-width:0.529167;stroke-linecap:square;stroke-linejoin:round"
       id="rect1523-6"
       width="8.4666662"
       height="8.4666662"
       x="-16.933302"
       y="-8.4666643"
       ry="0" />
    <rect
       style="fill:#ffe0b2;stroke:none;stroke-width:0.529167;stroke-linecap:square;stroke-linejoin:round"
       id="rect1523"
       width="8.4666662"
       height="8.4666662"
       x="-25.399971"
       y="-8.4666643"
       ry="0" />
    <path
       style="fill:#ec0000;fill-opacity:1;stroke:#000000;stroke-width:0.264583px;stroke-linecap:butt;stroke-linejoin:miter;stroke-opacity:1"
       d="m -24.341634,-1.058331 0.52917,-1.5874999 1.322917,-0.79375 0.79375,-1.3229166 1.32291,-0.79375 0.79375,-1.3229167 1.5875,-0.5291667 -0.52916,1.5875 -1.32292,0.79375 -0.79375,1.3229167 -1.32292,0.7937499 -0.79375,1.3229168 z"
       id="path864"
       sodipodi:nodetypes="ccccccccccccc" />
    <path
       style="fill:#ec0000;fill-opacity:1;stroke:#000000;stroke-width:0.264583px;stroke-linecap:butt;stroke-linejoin:miter;stroke-opacity:1"
       d="m -21.695797,-0.52916428 0.52916,-1.58749992 1.32292,-0.79375 0.79375,-1.3229167 1.587499,-0.5291667 -0.529169,1.5875 -1.32291,0.79375 -0.79375,1.3229168 z"
       id="path864-8"
       sodipodi:nodetypes="ccccccccc" />
    <path
       style="fill:#ec0000;fill-opacity:1;stroke:#000000;stroke-width:0.264583px;stroke-linecap:butt;stroke-linejoin:miter;stroke-opacity:1"
       d="m -24.870804,-3.7041643 0.52917,-1.5874999 1.322917,-0.79375 0.79375,-1.3229167 1.5875,-0.5291668 -0.52916,1.5875001 -1.32292,0.79375 -0.79375,1.3229168 z"
       id="path864-8-4"
       sodipodi:nodetypes="ccccccccc" />
    <path
       style="fill:url(#radialGradient3489);fill-opacity:1;stroke:#000000;stroke-width:0.265;stroke-linecap:butt;stroke-linejoin:miter;stroke-miterlimit:4;stroke-dasharray:none;stroke-opacity:1"
       d="m -16.044429,-1.2713281 c 0,0 1.291837,-1.0078685 1.607957,-1.7906058 0.626528,-1.5513339 1.593402,-3.2781669 2.965836,-3.516449 0.950483,-0.1650229 1.302587,0.4492352 1.365258,1.0327787 0.1198657,1.1161074 -1.794328,0.8431458 -3.305728,3.0176718 -0.571387,0.8220818 -2.633323,1.2566043 -2.633323,1.2566043 z"
       id="path859"
       sodipodi:nodetypes="cssssc" />
    <path
       style="fill:url(#radialGradient3491);fill-opacity:1;stroke:#000000;stroke-width:0.264583px;stroke-linecap:butt;stroke-linejoin:miter;stroke-opacity:1"
       d="m -14.064315,-0.92394008 c 0.614219,-0.53251002 2.756323,-1.38729542 3.777448,-0.61817442 0.3914947,0.2948771 0.3665477,0.82948892 -0.02244,1.12753202 -0.775262,0.5940035 -1.098834,-0.71048222 -3.755005,-0.5093576 z"
       id="path2361"
       sodipodi:nodetypes="cssc" />
    <path
       style="fill:url(#radialGradient3493);fill-opacity:1;stroke:#000000;stroke-width:0.264583px;stroke-linecap:butt;stroke-linejoin:miter;stroke-opacity:1"
       d="m -16.111119,-2.569799 c 0.62164,-0.5238253 1.799535,-2.5067626 1.19883,-3.6352319 -0.230308,-0.4326494 -0.76227,-0.4912547 -1.11724,-0.1534076 -0.707459,0.6733338 0.53069,1.196102 -0.0816,3.7886395 z"
       id="path2361-4"
       sodipodi:nodetypes="cssc" />
    <path
       style="fill:url(#radialGradient3495);fill-opacity:1;stroke:#000000;stroke-width:0.264583px;stroke-linecap:butt;stroke-linejoin:miter;stroke-opacity:1"
       d="m -10.072765,-4.3142755 c 0.06174,-0.2979495 0.5027997,-1.0393421 0.9780464,-1.0432959 0.1822067,-0.00152 0.2952337,0.1629486 0.2473067,0.3399996 -0.09552,0.3528647 -0.4850237,0.039056 -1.2253531,0.7032963 z"
       id="path2361-2"
       sodipodi:nodetypes="cssc" />
    <path
       style="fill:url(#radialGradient5866);fill-opacity:1;stroke:#000000;stroke-width:0.264583px;stroke-linecap:butt;stroke-linejoin:miter;stroke-opacity:1"
       d="m -12.393411,-6.8471787 c 0.152716,-0.342086 0.877428,-1.1176142 1.448398,-0.997226 0.218907,0.046156 0.311023,0.2737198 0.206794,0.474038 -0.20773,0.3992365 -0.591965,-0.080746 -1.655192,0.523188 z"
       id="path2361-2-6"
       sodipodi:nodetypes="cssc" />
    <path
       style="fill:url(#radialGradient3499);fill-opacity:1;stroke:#000000;stroke-width:0.264583px;stroke-linecap:butt;stroke-linejoin:miter;stroke-opacity:1"
       d="m -12.124387,-2.5967741 c 0.386927,-0.5222749 1.905355,-1.5124371 2.8621724,-1.1110259 0.3668387,0.153899 0.4420597,0.5637745 0.195874,0.8694798 -0.4998397,0.6206851 -0.9402474,-0.1078558 -3.0580464,0.2415461 z"
       id="path2361-6"
       sodipodi:nodetypes="cssc" />
    <path
       style="fill:url(#radialGradient3501);fill-opacity:1;stroke:#000000;stroke-width:0.264583px;stroke-linecap:butt;stroke-linejoin:miter;stroke-opacity:1"
       d="m -14.035532,-4.9503337 c -0.280849,-0.5861848 -0.446451,-2.3913916 0.355621,-3.0496684 0.30751,-0.2523799 0.705006,-0.1273048 0.860186,0.2332288 0.315069,0.732005 -0.53482,0.7808367 -1.215807,2.8164396 z"
       id="path2361-6-8"
       sodipodi:nodetypes="cssc" />
    <rect
       style="fill:#ffffff;fill-opacity:1;stroke:#000000;stroke-width:0.264583;stroke-linecap:round;stroke-linejoin:round;stroke-miterlimit:4;stroke-dasharray:none;stroke-opacity:1"
       id="rect4940"
       width="1.8520833"
       height="2.1166666"
       x="1.0583353"
       y="-2.6458302"
       ry="0.13229166" />
    <rect
       style="fill:#ffffff;fill-opacity:1;stroke:#000000;stroke-width:0.211667;stroke-linecap:round;stroke-linejoin:round;stroke-miterlimit:4;stroke-dasharray:none;stroke-opacity:1"
       id="rect7796"
       width="0.62502873"
       height="1.8227978"
       x="0.95096803"
       y="-7.6392298"
       ry="0.30379963"
       transform="rotate(2.4420836)" />
    <rect
       style="fill:#ffffff;fill-opacity:1;stroke:#000000;stroke-width:0.211667;stroke-linecap:round;stroke-linejoin:round;stroke-miterlimit:4;stroke-dasharray:none;stroke-opacity:1"
       id="rect7796-7"
       width="0.62506735"
       height="1.8837035"
       x="1.5041587"
       y="-7.6510468"
       ry="0.31395057"
       transform="matrix(0.99903007,0.04403305,-0.04123181,0.99914961,0,0)" />
    <rect
       style="fill:#ffffff;fill-opacity:1;stroke:#000000;stroke-width:0.211666;stroke-linecap:round;stroke-linejoin:round;stroke-miterlimit:4;stroke-dasharray:none;stroke-opacity:1"
       id="rect7919"
       width="0.58479416"
       height="1.7181159"
       x="1.4775943"
       y="-7.8102837"
       ry="0.28635263"
       transform="matrix(0.99235327,0.12343007,-0.12280309,0.99243106,0,0)" />
    <rect
       style="fill:#ffffff;fill-opacity:1;stroke:#000000;stroke-width:0.211676;stroke-linecap:round;stroke-linejoin:round;stroke-miterlimit:4;stroke-dasharray:none;stroke-opacity:1"
       id="rect7919-7"
       width="0.45590314"
       height="1.1344703"
       x="1.4073908"
       y="-7.8930459"
       ry="0.18907839"
       transform="matrix(0.98158514,0.19102515,-0.20437397,0.97889288,0,0)" />
    <path
       style="fill:#ffffff;fill-opacity:1;stroke:#000000;stroke-width:0.264583px;stroke-linecap:butt;stroke-linejoin:round;stroke-opacity:1"
       d="m 1.0583536,-3.9687476 c -0.0713001,-0.7843259 -0.71373078,-0.7640622 -0.79970178,-1.3494088 -0.05285,-0.3598177 -0.0054,-0.9652569 0.2705351,-1.2964245 0.1560676,-0.1873365 0.49930168,-0.4143865 0.79374928,-0.2645833 0.2161616,0.1099744 0.4660646,0.2302448 1.0968756,0.3241922 -0.09759,0.189849 -0.195449,0.5187683 -0.567709,0.4695578 -0.190236,-0.025148 -0.3403496,0.08961 -0.5291666,0 10e-4,0.1880797 -0.101637,0.2727279 -0.103872,0.4160733 0.168702,0.015838 0.5009466,-0.046864 0.6330386,0.3776767 0.131009,0.4210619 0.02976,0.8705434 0,1.3229166 z"
       id="path5055"
       sodipodi:nodetypes="cssscsccscc" />
    <rect
       style="fill:#ffffff;fill-opacity:1;stroke:#000000;stroke-width:0.264583;stroke-linecap:round;stroke-linejoin:round;stroke-miterlimit:4;stroke-dasharray:none;stroke-opacity:1"
       id="rect8974"
       width="2.3812499"
       height="1.3229166"
       x="0.79374886"
       y="-3.9687471"
       ry="0.13229166" />
    <g
       id="g9121"
       transform="matrix(-1,0,0,1,14.287519,-9.5249976)"
       style="fill:#fffefd;fill-opacity:1">
      <path
         style="fill:#fffefd;fill-opacity:1;stroke:#000000;stroke-width:0.264583px;stroke-linecap:butt;stroke-linejoin:round;stroke-opacity:1"
         d="M 7.4083333,5.5562499 V 2.1166666 L 9.2604166,2.3812499 C 9.4733691,2.807402 9.4474092,3.2678778 9.0591023,4.2227885 8.9289103,4.5429519 8.7703456,5.1489008 8.73125,5.55625 Z"
         id="path7085-0"
         sodipodi:nodetypes="cccscc" />
      <rect
         style="fill:#fffefd;fill-opacity:1;stroke:#000000;stroke-width:0.264583;stroke-linecap:round;stroke-linejoin:round;stroke-miterlimit:4;stroke-dasharray:none;stroke-opacity:1"
         id="rect4940-7"
         width="1.8520833"
         height="2.1166666"
         x="6.8791666"
         y="6.8791671"
         ry="0.13229166" />
      <rect
         style="fill:#fffefd;fill-opacity:1;stroke:#000000;stroke-width:0.211667;stroke-linecap:round;stroke-linejoin:round;stroke-miterlimit:4;stroke-dasharray:none;stroke-opacity:1"
         id="rect7796-72"
         width="0.62502873"
         height="1.8227978"
         x="7.1723542"
         y="1.6290923"
         ry="0.30379963"
         transform="rotate(2.4420836)" />
      <rect
         style="fill:#fffefd;fill-opacity:1;stroke:#000000;stroke-width:0.211667;stroke-linecap:round;stroke-linejoin:round;stroke-miterlimit:4;stroke-dasharray:none;stroke-opacity:1"
         id="rect7796-7-3"
         width="0.62506735"
         height="1.8837035"
         x="7.7127724"
         y="1.6084375"
         ry="0.31395057"
         transform="matrix(0.99903007,0.04403305,-0.04123181,0.99914961,0,0)" />
      <rect
         style="fill:#fffefd;fill-opacity:1;stroke:#000000;stroke-width:0.211666;stroke-linecap:round;stroke-linejoin:round;stroke-miterlimit:4;stroke-dasharray:none;stroke-opacity:1"
         id="rect7919-6"
         width="0.58479416"
         height="1.7181159"
         x="8.4240437"
         y="0.92341602"
         ry="0.28635263"
         transform="matrix(0.99235327,0.12343007,-0.12280309,0.99243106,0,0)" />
      <rect
         style="fill:#fffefd;fill-opacity:1;stroke:#000000;stroke-width:0.211676;stroke-linecap:round;stroke-linejoin:round;stroke-miterlimit:4;stroke-dasharray:none;stroke-opacity:1"
         id="rect7919-7-7"
         width="0.45590314"
         height="1.1344703"
         x="9.0527449"
         y="0.3453826"
         ry="0.18907839"
         transform="matrix(0.98158514,0.19102515,-0.20437397,0.97889288,0,0)" />
      <path
         style="fill:#fffefd;fill-opacity:1;stroke:#000000;stroke-width:0.264583px;stroke-linecap:butt;stroke-linejoin:round;stroke-opacity:1"
         d="M 6.8791666,5.5562499 C 6.8078642,4.771924 6.1654355,4.7921877 6.0794643,4.2068411 6.0266171,3.8470234 6.0741091,3.2415842 6.35,2.9104166 6.5060672,2.7230801 6.8493015,2.4960301 7.1437499,2.6458333 7.359912,2.7558077 7.609815,2.8760781 8.2406255,2.9700255 8.143038,3.1598745 8.0451771,3.4887938 7.6729166,3.4395833 c -0.1902358,-0.025148 -0.3403498,0.08961 -0.5291667,0 0.00105,0.1880797 -0.101637,0.2727279 -0.1038718,0.4160733 0.1687017,0.015838 0.500947,-0.046864 0.6330385,0.3776767 0.131009,0.4210619 0.029761,0.8705434 0,1.3229166 z"
         id="path5055-0"
         sodipodi:nodetypes="cssscsccscc" />
      <rect
         style="fill:#fffefd;fill-opacity:1;stroke:#000000;stroke-width:0.264583;stroke-linecap:round;stroke-linejoin:round;stroke-miterlimit:4;stroke-dasharray:none;stroke-opacity:1"
         id="rect8974-1"
         width="2.3812499"
         height="1.3229166"
         x="6.6145835"
         y="5.5562501"
         ry="0.13229166" />
    </g>
    <path
       style="color:#000000;fill:#000000;fill-opacity:1;stroke:#000000;stroke-width:0.132292;stroke-linecap:round;stroke-linejoin:round;stroke-miterlimit:4;stroke-dasharray:none;stroke-opacity:1"
       d="m 3.6208098,-3.598788 c -0.112366,0 -0.204472,0.1311187 -0.204472,0.2910757 0,0.1599577 0.09211,0.2910757 0.204472,0.2910757 h 0.204472 c 0.112366,0 0.204473,-0.1311186 0.204473,-0.2910757 0,-0.1599578 -0.09211,-0.2910757 -0.204473,-0.2910757 z m 0,0.146075 h 0.204472 c 0.05751,0 0.102614,0.063133 0.102614,0.1450009 0,0.081866 -0.0451,0.1450009 -0.102614,0.1450009 h -0.204472 c -0.05751,0 -0.101859,-0.063133 -0.101859,-0.1450009 0,-0.081866 0.04435,-0.1450009 0.101859,-0.1450009 z"
       id="rect1000-2-9" />
    <path
       style="color:#000000;fill:#000000;fill-opacity:1;stroke:#000000;stroke-width:0.132292;stroke-linecap:round;stroke-linejoin:round;stroke-miterlimit:4;stroke-dasharray:none;stroke-opacity:1"
       d="m 4.6426678,-3.598788 c -0.112365,0 -0.204472,0.1311187 -0.204472,0.2910757 0,0.1599577 0.09211,0.2910757 0.204472,0.2910757 h 0.204473 c 0.112365,0 0.204472,-0.1311186 0.204472,-0.2910757 0,-0.1599578 -0.09211,-0.2910757 -0.204472,-0.2910757 z m 0,0.146075 h 0.204473 c 0.05751,0 0.102613,0.063133 0.102613,0.1450009 0,0.081866 -0.0451,0.1450009 -0.102613,0.1450009 h -0.204473 c -0.05751,0 -0.101859,-0.063133 -0.101859,-0.1450009 0,-0.081866 0.04435,-0.1450009 0.101859,-0.1450009 z"
       id="rect1000-2-9-1" />
    <path
       style="color:#000000;fill:#ffffff;fill-opacity:1;stroke:#000000;stroke-width:0.132292;stroke-linecap:round;stroke-linejoin:round;stroke-miterlimit:4;stroke-dasharray:none;stroke-opacity:1"
       d="m 4.1310048,-3.3558617 c -0.112365,0 -0.204472,0.021689 -0.204472,0.048149 0,0.02646 0.09211,0.048149 0.204472,0.048149 h 0.204473 c 0.112365,0 0.204472,-0.021689 0.204472,-0.048149 0,-0.02646 -0.09211,-0.048149 -0.204472,-0.048149 z m 0,0.024163 h 0.204473 c 0.05751,0 0.102613,0.010444 0.102613,0.023986 0,0.013542 -0.0451,0.023986 -0.102613,0.023986 h -0.204473 c -0.05751,0 -0.101858,-0.010444 -0.101859,-0.023986 0,-0.013542 0.04435,-0.023986 0.101859,-0.023986 z"
       id="rect1000-2-9-1-9" />
    <path
       style="color:#000000;fill:#ffffff;fill-opacity:1;stroke:#000000;stroke-width:0.132293;stroke-linecap:round;stroke-linejoin:round;stroke-miterlimit:4;stroke-dasharray:none;stroke-opacity:1"
       d="m 5.0907788,-3.3613067 c -0.07415,0 -0.134923,0.021689 -0.134923,0.048149 0,0.02646 0.06078,0.048149 0.134923,0.048149 h 0.334133 c 0.07415,0 0.134923,-0.021689 0.134923,-0.048149 0,-0.02646 -0.06078,-0.048149 -0.134923,-0.048149 z m 0,0.024163 h 0.334133 c 0.03795,0 0.06771,0.010444 0.06771,0.023986 0,0.013542 -0.02976,0.023986 -0.06771,0.023986 h -0.334133 c -0.03795,0 -0.06721,-0.010444 -0.06721,-0.023986 0,-0.013542 0.02927,-0.023986 0.06721,-0.023986 z"
       id="rect1000-2-9-1-9-5"
       sodipodi:nodetypes="ssssssssssssss" />
    <path
       style="color:#000000;fill:#ffffff;fill-opacity:1;stroke:#000000;stroke-width:0.132293;stroke-linecap:round;stroke-linejoin:round;stroke-miterlimit:4;stroke-dasharray:none;stroke-opacity:1"
       d="m 3.0386898,-3.3608631 c -0.07415,0 -0.134923,0.021689 -0.134923,0.048149 0,0.02646 0.06078,0.048149 0.134923,0.048149 h 0.342263 c 0.07415,0 0.134924,-0.021689 0.134924,-0.048149 0,-0.02646 -0.06078,-0.048149 -0.134924,-0.048149 z m 0,0.024163 h 0.342263 c 0.03795,0 0.06771,0.010443 0.06771,0.023986 0,0.013542 -0.02976,0.023986 -0.06771,0.023986 h -0.342263 c -0.03795,0 -0.06721,-0.010444 -0.06721,-0.023986 0,-0.013542 0.02926,-0.023986 0.06721,-0.023986 z"
       id="rect1000-2-9-1-9-5-6"
       sodipodi:nodetypes="ssssssssssssss" />
    <rect
       style="fill:#ffe0b2;stroke:none;stroke-width:0.529167;stroke-linecap:square;stroke-linejoin:round"
       id="rect1523-6-1-4-8"
       width="8.4666662"
       height="8.4666662"
       x="93.133369"
       y="-8.4666643"
       ry="0" />
    <rect
       style="fill:#ffffff;fill-opacity:1;stroke:#000000;stroke-width:0.264583;stroke-linecap:round;stroke-linejoin:round;stroke-miterlimit:4;stroke-dasharray:none;stroke-opacity:1"
       id="rect4940-3"
       width="1.8520833"
       height="2.1166666"
       x="94.191704"
       y="-2.6458292"
       ry="0.13229166" />
    <path
       style="fill:#ffffff;fill-opacity:1;stroke:#000000;stroke-width:0.264583px;stroke-linecap:butt;stroke-linejoin:miter;stroke-opacity:1"
       d="m 94.07658,-2.7034037 -0.136705,0.721244 2.449302,-0.01603 -0.21645,-0.689188 z"
       id="path6295" />
    <rect
       style="fill:#ffffff;fill-opacity:1;stroke:#000000;stroke-width:0.264583;stroke-linecap:round;stroke-linejoin:round;stroke-miterlimit:4;stroke-dasharray:none;stroke-opacity:1"
       id="rect8974-3"
       width="2.3812499"
       height="1.3229166"
       x="93.927116"
       y="-3.9687462"
       ry="0.13229166" />
    <path
       style="color:#000000;fill:#ffffff;fill-opacity:1;stroke:#000000;stroke-width:0.132293;stroke-linecap:round;stroke-linejoin:round;stroke-miterlimit:4;stroke-dasharray:none;stroke-opacity:1"
       d="m 96.172058,-3.3608617 c -0.07415,0 -0.134923,0.02169 -0.134923,0.04815 0,0.02646 0.06078,0.04815 0.134923,0.04815 h 0.342263 c 0.07415,0 0.134924,-0.02169 0.134924,-0.04815 0,-0.02646 -0.06078,-0.04815 -0.134924,-0.04815 z m 0,0.02416 h 0.342263 c 0.03795,0 0.06771,0.01044 0.06771,0.02399 0,0.01354 -0.02976,0.02399 -0.06771,0.02399 h -0.342263 c -0.03795,0 -0.06721,-0.01044 -0.06721,-0.02399 0,-0.01354 0.02926,-0.02399 0.06721,-0.02399 z"
       id="rect1000-2-9-1-9-5-6-4"
       sodipodi:nodetypes="ssssssssssssss" />
    <path
       style="fill:#ffffff;fill-opacity:1;stroke:#000000;stroke-width:0.396875;stroke-linecap:butt;stroke-linejoin:miter;stroke-miterlimit:4;stroke-dasharray:none;stroke-opacity:1"
       d="m 9.5250188,-4.2333309 c 0,0 1.0583332,-1.8520834 3.1750002,-1.8520833 2.116667,10e-8 3.175,1.8520833 3.175,1.8520833 0,0 -1.058333,1.8583662 -3.175,1.8583661 -2.116667,-1e-7 -3.1750002,-1.8583661 -3.1750002,-1.8583661 z"
       id="path10304"
       sodipodi:nodetypes="cscsc" />
    <circle
       style="fill:#ffffff;fill-opacity:1;stroke:#000000;stroke-width:0.396875;stroke-linecap:round;stroke-linejoin:round;stroke-miterlimit:4;stroke-dasharray:none;stroke-opacity:1"
       id="path11815"
       cx="12.699995"
       cy="-4.2333307"
       r="1.8520831" />
    <circle
       style="fill:#000000;fill-opacity:1;stroke:none;stroke-width:0.529167;stroke-linecap:round;stroke-linejoin:round;stroke-miterlimit:4;stroke-dasharray:none;stroke-opacity:1"
       id="path10734"
       cx="12.699995"
       cy="-4.2333307"
       r="1.0583333" />
    <circle
       style="fill:#ffffff;fill-opacity:1;stroke:none;stroke-width:0.529167;stroke-linecap:round;stroke-linejoin:round;stroke-miterlimit:4;stroke-dasharray:none;stroke-opacity:1"
       id="path12284"
       cx="13.029999"
       cy="-4.6490545"
       r="0.39687499" />
    <path
       style="fill:none;stroke:#ffffff;stroke-width:0.529167;stroke-linecap:round;stroke-linejoin:miter;stroke-miterlimit:4;stroke-dasharray:none;stroke-opacity:1"
       d="m 8.9531348,-1.7744997 7.4083332,-4.7625"
       id="path12966"
       sodipodi:nodetypes="cc" />
    <path
       style="fill:none;stroke:#000000;stroke-width:0.529167;stroke-linecap:round;stroke-linejoin:miter;stroke-miterlimit:4;stroke-dasharray:none;stroke-opacity:1"
       d="m 9.0485758,-1.5874975 7.4083332,-4.7625"
       id="path12638"
       sodipodi:nodetypes="cc" />
    <path
       id="path15044"
       style="color:#000000;fill:#ffffff;fill-opacity:1;stroke:#000000;stroke-width:0.264583;stroke-linecap:round;stroke-miterlimit:4;stroke-dasharray:none;stroke-opacity:1"
       d="m 21.165652,-7.6739478 a 0.26458349,0.26458349 0 0 0 -0.26355,0.2661337 v 5.7107626 l -1.663981,-1.6639813 a 0.26458349,0.26458349 0 0 0 -0.187585,-0.078031 0.26458349,0.26458349 0 0 0 -0.187586,0.078031 0.26458349,0.26458349 0 0 0 0,0.3731038 l 2.117184,2.11718342 a 0.26458349,0.26458349 0 0 0 0.0083,0.00672 0.26458349,0.26458349 0 0 0 0.02325,0.019637 0.26458349,0.26458349 0 0 0 0.06408,0.03359 0.26458349,0.26458349 0 0 0 0.01395,0.00517 0.26458349,0.26458349 0 0 0 0.03566,0.00827 0.26458349,0.26458349 0 0 0 0.04031,0.00465 0.26458349,0.26458349 0 0 0 0.205155,-0.096118 l 2.099614,-2.09909672 a 0.26458349,0.26458349 0 0 0 0,-0.3731038 0.26458349,0.26458349 0 0 0 -0.187588,-0.078037 0.26458349,0.26458349 0 0 0 -0.187586,0.078031 l -1.663981,1.6639813 v -5.7107623 a 0.26458349,0.26458349 0 0 0 -0.265617,-0.2661337 z" />
    <rect
       style="fill:#ffffff;fill-opacity:1;stroke:#000000;stroke-width:0.26458299;stroke-linecap:round;stroke-linejoin:round;stroke-miterlimit:4;stroke-dasharray:none;stroke-opacity:1"
       id="rect16004"
       width="5.2916665"
       height="2.1166666"
       x="27.252098"
       y="-5.2916646"
       ry="0.19315599" />
    <rect
       style="fill:#ffffff;fill-opacity:1;stroke:#000000;stroke-width:0.264583;stroke-linecap:round;stroke-linejoin:round;stroke-miterlimit:4;stroke-dasharray:none;stroke-opacity:1"
       id="rect16130"
       width="0.26458326"
       height="1.0583333"
       x="26.987514"
       y="-4.7624979"
       ry="0.13229166" />
    <rect
       style="fill:#ffffff;fill-opacity:1;stroke:#000000;stroke-width:0.265;stroke-linecap:butt;stroke-linejoin:miter;stroke-miterlimit:4;stroke-dasharray:none;stroke-opacity:1"
       id="rect16237"
       width="0.26458332"
       height="1.0583333"
       x="31.750019"
       y="-4.7624979"
       ry="0"
       rx="0" />
    <g
       id="g20969"
       transform="matrix(0.74666657,0,0,0.74666657,29.21355,-14.171079)"
       style="stroke-width:1.33929">
      <path
         style="fill:none;stroke:#000000;stroke-width:0.354353px;stroke-linecap:butt;stroke-linejoin:miter;stroke-opacity:1"
         d="M 12.964583,15.08125 15.08125,14.2875"
         id="path20652-5" />
      <circle
         style="fill:#ffffff;fill-opacity:1;stroke:#000000;stroke-width:0.35491;stroke-linecap:butt;stroke-linejoin:miter;stroke-miterlimit:4;stroke-dasharray:none;stroke-opacity:1"
         id="path20469-4-0-7"
         cx="14.978416"
         cy="14.504916"
         r="0.52916664" />
      <path
         style="fill:none;stroke:#000000;stroke-width:0.354353px;stroke-linecap:butt;stroke-linejoin:miter;stroke-opacity:1"
         d="m 8.7312497,14.2875 2.1166663,0.79375"
         id="path20650-4" />
      <circle
         style="fill:#ffffff;fill-opacity:1;stroke:#000000;stroke-width:0.35491;stroke-linecap:butt;stroke-linejoin:miter;stroke-miterlimit:4;stroke-dasharray:none;stroke-opacity:1"
         id="path20469-4-0-9-4"
         cx="8.8444834"
         cy="14.470805"
         r="0.52916664" />
      <path
         style="fill:#ffffff;fill-opacity:1;stroke:#000000;stroke-width:0.354353px;stroke-linecap:butt;stroke-linejoin:miter;stroke-opacity:1"
         d="m 8.9958327,13.758333 c -0.793749,0 -1.322916,-0.264583 -1.852083,-0.79375 0,0 2.116667,-1.058333 4.7624993,-1.058333 2.645835,0 4.762501,1.058333 4.762501,1.058333 -0.529166,0.529167 -1.058333,0.79375 -1.852083,0.79375 v 1.322917 c 0.529167,0 2.116667,-0.79375 2.116666,-1.322917 v -1.322916 c 10e-7,-0.264584 -0.793749,-1.5875 -5.027084,-1.5875 -4.2333323,0 -5.0270823,1.322916 -5.0270823,1.5875 v 1.322916 c 0,0.529167 1.5875,1.322917 2.116666,1.322917 z"
         id="path18403-2"
         sodipodi:nodetypes="ccscccccscccc" />
      <circle
         style="fill:#ffffff;fill-opacity:1;stroke:#000000;stroke-width:0.35491;stroke-linecap:butt;stroke-linejoin:miter;stroke-miterlimit:4;stroke-dasharray:none;stroke-opacity:1"
         id="path20469-2"
         cx="10.450618"
         cy="14.777052"
         r="0.52916664" />
      <circle
         style="fill:#ffffff;fill-opacity:1;stroke:#000000;stroke-width:0.35491;stroke-linecap:butt;stroke-linejoin:miter;stroke-miterlimit:4;stroke-dasharray:none;stroke-opacity:1"
         id="path20469-4-3"
         cx="13.354771"
         cy="14.780322"
         r="0.52916664" />
      <circle
         style="fill:#ffffff;fill-opacity:1;stroke:#000000;stroke-width:0.35491;stroke-linecap:butt;stroke-linejoin:miter;stroke-miterlimit:4;stroke-dasharray:none;stroke-opacity:1"
         id="path20365-4"
         cx="11.90625"
         cy="14.816667"
         r="1.5875" />
    </g>
    <path
       style="fill:#fffefd;fill-opacity:1;stroke:#000000;stroke-width:0.265;stroke-linecap:butt;stroke-linejoin:bevel;stroke-miterlimit:4;stroke-dasharray:none;stroke-opacity:1"
       d="m 43.127112,-4.7624976 2.910416,2.38125 h 1.058334 l 2.910417,-2.38125 z"
       id="path22322" />
    <path
       id="rect21436"
       style="fill:#ffffff;fill-opacity:1;stroke:#000000;stroke-width:0.264999;stroke-linecap:butt;stroke-linejoin:miter;stroke-miterlimit:4;stroke-dasharray:none;stroke-opacity:1"
       d="m 43.127112,-5.6885392 v 1.0836871 c 1.5875,-0.1576454 2.645833,0.9006879 2.976465,2.3558962 h 0.926656 c 0.330212,-1.4552083 1.388545,-2.5135416 2.976046,-2.3563136 v -1.0832697 c -2.381251,0.1322917 -4.497917,0.1322917 -6.879167,0 z"
       sodipodi:nodetypes="ccccccc" />
    <path
       style="fill:none;stroke:#ffffff;stroke-width:0.529167;stroke-linecap:round;stroke-linejoin:miter;stroke-miterlimit:4;stroke-dasharray:none;stroke-opacity:1"
       d="m 42.767088,-2.0390831 7.408333,-4.7625"
       id="path12966-1"
       sodipodi:nodetypes="cc" />
    <path
       style="fill:none;stroke:#000000;stroke-width:0.529167;stroke-linecap:round;stroke-linejoin:miter;stroke-miterlimit:4;stroke-dasharray:none;stroke-opacity:1"
       d="m 42.862529,-1.8520809 7.408333,-4.7625"
       id="path12638-3"
       sodipodi:nodetypes="cc" />
    <path
       id="path22973"
       style="fill:#ffffff;fill-opacity:1;stroke:#010101;stroke-width:0.264584;stroke-linecap:butt;stroke-linejoin:miter;stroke-miterlimit:4;stroke-dasharray:none;stroke-opacity:1"
       d="m 54.903904,-7.3352727 c -0.291132,-0.00207 -0.978405,0.041968 -1.349166,0.5408 -0.130172,-0.066867 -0.543965,-0.2339865 -0.710228,-0.2487739 -0.355714,-0.031636 -0.549743,-0.019336 -0.88801,0.095155 -0.386713,0.1308872 -0.718867,0.3410773 -0.865339,0.7221602 -0.166561,0.4333465 0.01495,0.9649922 0.238035,1.3721344 -0.127995,0.5812545 0.615441,1.4227329 1.145434,1.045805 0.551377,-0.3921362 0.180895,-1.5789799 -0.735882,-1.4995042 -0.02151,-0.043274 -0.04707,-0.084711 -0.06533,-0.1294579 -0.164351,-0.4028083 -0.04907,-0.7687701 0.305449,-0.9163475 0.239647,-0.099759 0.554043,-0.1733384 0.808068,-0.1199126 0.330984,0.069612 0.537446,0.3138443 0.552731,0.5986682 0.01538,0.28656 0.04111,0.4552632 0.04832,0.6568348 0.0081,0.2266691 0.167102,0.7604959 0.236843,0.9581077 0.178291,0.505193 0.520492,0.7475722 0.536325,1.1543826 0.02769,0.7114536 0.0055,1.7995537 0.01521,2.39347942 0.005,0.3053632 0.542164,0.3352768 0.551538,0.00925 0.0019,-0.066239 2.15e-4,-1.34105352 0.0182,-2.05730652 0.0043,-0.1691053 -0.0035,-0.3438734 -0.04683,-0.5073943 -0.06879,-0.2597988 -0.123983,-0.5484532 -0.369581,-0.7892757 -0.138152,-0.1354657 -0.360723,-0.3613165 -0.388672,-0.6699595 -0.02745,-0.3031658 -0.07901,-0.6481049 -0.03818,-1.0034479 0.01682,-0.1464128 0.160857,-0.4142687 0.295307,-0.3478062 0.255341,0.1262225 0.682488,0.1825535 0.835212,0.1825535 0.152725,0 0.579871,-0.056331 0.835212,-0.1825535 0.13445,-0.066462 0.278484,0.2013934 0.295308,0.3478062 0.04083,0.355343 -0.01073,0.7002821 -0.03818,1.0034479 -0.02795,0.308643 -0.25052,0.5344938 -0.388673,0.6699595 -0.245598,0.2408225 -0.300789,0.5294769 -0.369581,0.7892756 -0.0433,0.1635209 -0.05108,0.3382889 -0.04683,0.5073915 0.01798,0.7162525 0.01629,1.99106742 0.0182,2.05730662 0.0094,0.3260296 0.546549,0.296116 0.551538,-0.00925 0.0097,-0.59392262 -0.01248,-1.68202232 0.01521,-2.39347592 0.01583,-0.4068114 0.358033,-0.6491904 0.536325,-1.1543834 0.06974,-0.1976118 0.228727,-0.7314388 0.236843,-0.9581078 0.0072,-0.2015715 0.03295,-0.3702747 0.04833,-0.6568348 0.01529,-0.284824 0.221748,-0.5290563 0.552732,-0.5986681 0.254024,-0.053426 0.56842,0.020154 0.808067,0.1199125 0.354519,0.1475775 0.4698,0.5135392 0.305449,0.9163471 -0.01826,0.044747 -0.04381,0.086184 -0.06533,0.1294581 -0.91678,-0.079476 -1.287262,1.107368 -0.735885,1.4995042 0.529993,0.3769279 1.27343,-0.4645505 1.145434,-1.045805 0.223085,-0.4071422 0.404596,-0.9387879 0.238036,-1.3721344 -0.146472,-0.3810829 -0.478627,-0.591273 -0.86534,-0.7221602 -0.338267,-0.1144904 -0.532296,-0.1267909 -0.88801,-0.095155 -0.166264,0.014787 -0.580056,0.1819067 -0.710228,0.2487739 -0.456321,-0.6139469 -1.392097,-0.539213 -1.478625,-0.5372203 -0.01622,-3.737e-4 -0.06227,-0.00311 -0.129458,-0.00358 z"
       sodipodi:nodetypes="cccsscsccssscsscccssscsssccsscscsscsssscscssscccc" />
    <rect
       style="fill:#ffe0b2;stroke:none;stroke-width:0.529167;stroke-linecap:square;stroke-linejoin:round"
       id="rect1523-6-1-4-4-3-9-2-5-2-83"
       width="8.4666662"
       height="8.4666662"
       x="59.266701"
       y="-8.4666643"
       ry="0" />
    <path
       style="fill:#ffffff;fill-opacity:1;stroke:none;stroke-width:0.264583px;stroke-linecap:butt;stroke-linejoin:miter;stroke-opacity:1"
       d="m 62.970862,-0.52916418 h 1.058333 l 0.264584,-3.43958332 0.529167,-1.0583334 h -2.645834 l 0.529167,1.0583333 z"
       id="path1842-6"
       sodipodi:nodetypes="ccccccc" />
    <path
       id="path22973-2"
       style="fill:#ffffff;fill-opacity:1;stroke:#010101;stroke-width:0.264584;stroke-linecap:butt;stroke-linejoin:miter;stroke-miterlimit:4;stroke-dasharray:none;stroke-opacity:1"
       d="m 63.37057,-7.3352727 c -0.291132,-0.00207 -0.978405,0.041968 -1.349166,0.5408 -0.130172,-0.066867 -0.543965,-0.2339865 -0.710228,-0.2487739 -0.355714,-0.031636 -0.549743,-0.019336 -0.88801,0.095155 -0.386713,0.1308872 -0.718866,0.3410773 -0.865339,0.7221602 -0.166561,0.4333465 0.01495,0.9649922 0.238036,1.3721344 -0.127995,0.5812545 0.61544,1.4227329 1.145433,1.045805 0.551377,-0.3921362 0.180895,-1.5789799 -0.735882,-1.4995042 -0.02151,-0.043274 -0.04707,-0.084711 -0.06533,-0.1294579 -0.164352,-0.4028083 -0.04907,-0.7687701 0.305448,-0.9163475 0.239648,-0.099759 0.554043,-0.1733384 0.808068,-0.1199126 0.330984,0.069612 0.537446,0.3138443 0.552731,0.5986682 0.01538,0.28656 0.04111,0.4552632 0.04832,0.6568348 0.0081,0.2266691 0.167102,0.7604959 0.236843,0.9581077 0.178292,0.505193 0.520493,0.7475722 0.536326,1.1543826 0.02769,0.7114536 0.0055,1.7995537 0.01521,2.39347942 0.005,0.3053632 0.542164,0.3352768 0.551538,0.00925 0.0019,-0.066239 2.15e-4,-1.34105352 0.0182,-2.05730652 0.0043,-0.1691053 -0.0035,-0.3438734 -0.04683,-0.5073943 -0.06879,-0.2597988 -0.123983,-0.5484532 -0.369581,-0.7892757 -0.138152,-0.1354657 -0.360723,-0.3613165 -0.388672,-0.6699595 -0.02745,-0.3031658 -0.07901,-0.6481049 -0.03818,-1.0034479 0.01682,-0.1464128 0.160857,-0.4142687 0.295307,-0.3478062 0.255341,0.1262225 0.682488,0.1825535 0.835212,0.1825535 0.152725,0 0.579871,-0.056331 0.835211,-0.1825535 0.134451,-0.066462 0.278484,0.2013934 0.295308,0.3478062 0.04083,0.355343 -0.01073,0.7002821 -0.03818,1.0034479 -0.02795,0.308643 -0.25052,0.5344938 -0.388673,0.6699595 -0.245598,0.2408225 -0.300789,0.5294769 -0.369581,0.7892756 -0.0433,0.1635209 -0.05108,0.3382889 -0.04683,0.5073915 0.01798,0.7162525 0.01629,1.99106742 0.0182,2.05730662 0.0094,0.3260296 0.546549,0.296116 0.551538,-0.00925 0.0097,-0.59392262 -0.01248,-1.68202232 0.01521,-2.39347592 0.01583,-0.4068114 0.358033,-0.6491904 0.536325,-1.1543834 0.06974,-0.1976118 0.228727,-0.7314388 0.236843,-0.9581078 0.0072,-0.2015715 0.03295,-0.3702747 0.04833,-0.6568348 0.01529,-0.284824 0.221749,-0.5290563 0.552732,-0.5986681 0.254024,-0.053426 0.568421,0.020154 0.808068,0.1199125 0.354519,0.1475775 0.4698,0.5135392 0.305449,0.9163471 -0.01826,0.044747 -0.04381,0.086184 -0.06533,0.1294581 -0.91678,-0.079476 -1.287262,1.107368 -0.735886,1.4995042 0.529994,0.3769279 1.273431,-0.4645505 1.145435,-1.045805 0.223085,-0.4071422 0.404596,-0.9387879 0.238036,-1.3721344 -0.146472,-0.3810829 -0.478627,-0.591273 -0.86534,-0.7221602 -0.338267,-0.1144904 -0.532296,-0.1267909 -0.88801,-0.095155 -0.166265,0.014787 -0.580056,0.1819067 -0.710228,0.2487739 -0.456321,-0.6139469 -1.392097,-0.539213 -1.478626,-0.5372203 -0.01622,-3.737e-4 -0.06227,-0.00311 -0.129457,-0.00358 z"
       sodipodi:nodetypes="cccsscsccssscsscccssscsssccsscscsscsssscscssscccc" />
    <rect
       style="fill:#ffe0b2;stroke:none;stroke-width:0.529167;stroke-linecap:square;stroke-linejoin:round"
       id="rect1523-6-1-4-4-3-9-2-5-2-83-6"
       width="8.4666662"
       height="8.4666662"
       x="67.733368"
       y="-8.4666643"
       ry="0" />
    <path
       style="fill:#ffffff;fill-opacity:1;stroke:none;stroke-width:0.264583px;stroke-linecap:butt;stroke-linejoin:miter;stroke-opacity:1"
       d="m 71.437526,-0.52916418 h 1.058333 l 0.264584,-3.43958332 0.529167,-1.8520834 h -2.645834 l 0.529167,1.8520833 z"
       id="path1842-6-4"
       sodipodi:nodetypes="ccccccc" />
    <path
       id="path22973-2-6"
       style="fill:#ffffff;fill-opacity:1;stroke:#010101;stroke-width:0.264584;stroke-linecap:butt;stroke-linejoin:miter;stroke-miterlimit:4;stroke-dasharray:none;stroke-opacity:1"
       d="m 71.837234,-7.3352727 c -0.291132,-0.00207 -0.978405,0.041968 -1.349166,0.5408 -0.130172,-0.066867 -0.543965,-0.2339865 -0.710228,-0.2487739 -0.355714,-0.031636 -0.549743,-0.019336 -0.88801,0.095155 -0.386713,0.1308872 -0.718866,0.3410773 -0.865339,0.7221602 -0.166561,0.4333465 0.01495,0.9649922 0.238036,1.3721344 -0.127995,0.5812545 0.61544,1.4227329 1.145433,1.045805 0.551377,-0.3921362 0.180895,-1.5789799 -0.735882,-1.4995042 -0.02151,-0.043274 -0.04707,-0.084711 -0.06533,-0.1294579 -0.164352,-0.4028083 -0.04907,-0.7687701 0.305448,-0.9163475 0.239648,-0.099759 0.554043,-0.1733384 0.808068,-0.1199126 0.330984,0.069612 0.537446,0.3138443 0.552731,0.5986682 0.01538,0.28656 0.04111,0.4552632 0.04832,0.6568348 0.0081,0.2266691 0.167102,0.7604959 0.236843,0.9581077 0.178292,0.505193 0.520493,0.7475722 0.536326,1.1543826 0.02769,0.7114536 0.0055,1.7995537 0.01521,2.39347942 0.005,0.3053632 0.542164,0.3352768 0.551538,0.00925 0.0019,-0.066239 2.15e-4,-1.34105352 0.0182,-2.05730652 0.0043,-0.1691053 -0.0035,-0.3438734 -0.04683,-0.5073943 -0.06879,-0.2597988 -0.123983,-0.5484532 -0.369581,-0.7892757 -0.138152,-0.1354657 -0.360723,-0.3613165 -0.388672,-0.6699595 -0.02745,-0.3031658 -0.07901,-0.6481049 -0.03818,-1.0034479 0.01682,-0.1464128 0.160857,-0.4142687 0.295307,-0.3478062 0.255341,0.1262225 0.682488,0.1825535 0.835212,0.1825535 0.152725,0 0.579871,-0.056331 0.835211,-0.1825535 0.134451,-0.066462 0.278484,0.2013934 0.295308,0.3478062 0.04083,0.355343 -0.01073,0.7002821 -0.03818,1.0034479 -0.02795,0.308643 -0.25052,0.5344938 -0.388673,0.6699595 -0.245598,0.2408225 -0.300789,0.5294769 -0.369581,0.7892756 -0.0433,0.1635209 -0.05108,0.3382889 -0.04683,0.5073915 0.01798,0.7162525 0.01629,1.99106742 0.0182,2.05730662 0.0094,0.3260296 0.546549,0.296116 0.551538,-0.00925 0.0097,-0.59392262 -0.01248,-1.68202232 0.01521,-2.39347592 0.01583,-0.4068114 0.358033,-0.6491904 0.536325,-1.1543834 0.06974,-0.1976118 0.228727,-0.7314388 0.236843,-0.9581078 0.0072,-0.2015715 0.03295,-0.3702747 0.04833,-0.6568348 0.01529,-0.284824 0.221749,-0.5290563 0.552732,-0.5986681 0.254024,-0.053426 0.568421,0.020154 0.808068,0.1199125 0.354519,0.1475775 0.4698,0.5135392 0.305449,0.9163471 -0.01826,0.044747 -0.04381,0.086184 -0.06533,0.1294581 -0.91678,-0.079476 -1.287262,1.107368 -0.735886,1.4995042 0.529994,0.3769279 1.273431,-0.4645505 1.145435,-1.045805 0.223085,-0.4071422 0.404596,-0.9387879 0.238036,-1.3721344 -0.146472,-0.3810829 -0.478627,-0.591273 -0.86534,-0.7221602 -0.338267,-0.1144904 -0.532296,-0.1267909 -0.88801,-0.095155 -0.166265,0.014787 -0.580056,0.1819067 -0.710228,0.2487739 -0.456321,-0.6139469 -1.392097,-0.539213 -1.478626,-0.5372203 -0.01622,-3.737e-4 -0.06227,-0.00311 -0.129457,-0.00358 z"
       sodipodi:nodetypes="cccsscsccssscsscccssscsssccsscscsscsssscscssscccc" />
    <path
       style="fill:#ffffff;fill-opacity:1;stroke:#000000;stroke-width:0.264583px;stroke-linecap:butt;stroke-linejoin:miter;stroke-opacity:1"
       d="m 79.639608,-6.6145809 c 0.79375,0.2645834 0.79375,0.2645834 1.5875,0 v 0.79375 h -1.5875 z"
       id="path5963"
       sodipodi:nodetypes="ccccc" />
    <g
       id="g5928"
       transform="matrix(0.70226674,0,0,0.70226674,65.568714,-11.384808)"
       style="stroke:#000000;stroke-width:1.42396;stroke-opacity:1">
      <path
         id="path2818"
         style="fill:#ffffff;fill-opacity:1;stroke:#000000;stroke-width:1.42396;stroke-linecap:butt;stroke-linejoin:miter;stroke-miterlimit:4;stroke-dasharray:none;stroke-opacity:1"
         d="m 71.125,23.414062 c -2.795363,0.0434 -5.806212,1.289572 -8.34375,3.732422 -3.27498,3.152776 -3.431617,6.932444 -2.050781,11.199219 C 63.001326,45.362649 70.505313,51.638472 80,57 89.494687,51.638472 96.998674,45.362649 99.269531,38.345703 100.65037,34.07893 100.49373,30.29926 97.21875,27.146484 90.722653,20.892788 81.116775,22.488679 80,32 79.319465,26.204039 75.485766,23.346365 71.125,23.414062 Z"
         transform="scale(0.26458333)" />
      <path
         style="fill:none;stroke:#000000;stroke-width:0.376756px;stroke-linecap:butt;stroke-linejoin:miter;stroke-opacity:1"
         d="m 21.166666,8.4666666 v 0.79375 c 0,1.5943814 -1.5875,2.1166664 -1.5875,2.1166664"
         id="path4381"
         sodipodi:nodetypes="csc" />
      <path
         style="fill:none;stroke:#000000;stroke-width:0.376756px;stroke-linecap:butt;stroke-linejoin:miter;stroke-opacity:1"
         d="m 21.166666,8.4666666 v 0.79375 c 0,1.5943814 1.5875,2.1166664 1.5875,2.1166664"
         id="path4381-8"
         sodipodi:nodetypes="csc" />
      <path
         style="fill:none;stroke:#000000;stroke-width:0.376756px;stroke-linecap:butt;stroke-linejoin:miter;stroke-opacity:1"
         d="M 21.166666,15.08125 V 10.713796"
         id="path5183"
         sodipodi:nodetypes="cc" />
      <path
         style="fill:none;stroke:#000000;stroke-width:0.376756px;stroke-linecap:butt;stroke-linejoin:miter;stroke-opacity:1"
         d="m 20.6375,10.583333 c 0.264583,0.264584 0.79375,0.264584 1.058333,0"
         id="path5313"
         sodipodi:nodetypes="cc" />
    </g>
    <path
       style="fill:#ffffff;fill-opacity:1;stroke:#010203;stroke-width:0.264583;stroke-linecap:butt;stroke-linejoin:miter;stroke-miterlimit:4;stroke-dasharray:none;stroke-opacity:1"
       d="m 86.521848,-3.9354049 c 0.124101,-0.2941877 0.649135,-1.5124086 1.118802,-2.1779273 0.434033,-0.6150272 0.885039,-1.2888082 1.544431,-1.6408406 0.187057,-0.099865 0.422116,-0.159536 0.625848,-0.1025524 0.182345,0.051002 0.295144,0.2407443 0.434974,0.3701214 0.08026,0.074266 0.09787,0.1695288 0.201528,0.2023075 0.103164,0.032619 0.24101,-0.027549 0.349054,-0.027445 0.138963,1.299e-4 0.288281,0.00762 0.410255,0.075255 0.100264,0.055602 0.196005,0.1451303 0.233617,0.254708 0.06336,0.1845985 0.01291,0.3984215 -0.04558,0.5846713 -0.113668,0.3619253 -0.363958,0.665039 -0.575497,0.9783106 -0.209165,0.3097581 -0.47562,0.5769145 -0.683494,0.8875689 -0.115619,0.1727847 -0.265232,0.3372769 -0.312006,0.5407316 -0.06836,0.2973231 -0.03628,0.6259086 0.06424,0.9136489 0.148392,0.4247784 0.520018,0.7308287 0.763331,1.1077374 0.134178,0.2078504 0.322659,0.3949661 0.383752,0.6356564 0.05046,0.1988125 0.06503,0.43279562 -0.02753,0.61531442 -0.06586,0.1298708 -0.209885,0.2071886 -0.339544,0.2703662 -0.218097,0.1062708 -0.464771,0.1626673 -0.706602,0.1678129 -0.311293,0.006622 -0.630284,-0.0554039 -0.917666,-0.1771356 -0.383732,-0.1625438 -0.719731,-0.4342218 -1.027786,-0.71786792 -0.302392,-0.2784314 -0.579833,-0.5950444 -0.789193,-0.9509418 -0.327559,-0.5568269 -0.601516,-1.4312596 -0.704934,-1.8094999 z"
       id="path7321"
       sodipodi:nodetypes="csssssssssssssssssssssc" />
    <path
       style="fill:#ffffff;fill-opacity:1;stroke:#010203;stroke-width:0.264583;stroke-linecap:butt;stroke-linejoin:miter;stroke-miterlimit:4;stroke-dasharray:none;stroke-opacity:1"
       d="m 89.20527,-4.0007501 c 0.05895,-0.235688 0.264266,-0.407533 0.423129,-0.589433 0.150013,-0.1717681 0.350585,-0.2938471 0.496408,-0.4692998 0.118845,-0.1429937 0.233454,-0.2961485 0.30336,-0.4692999 0.05336,-0.1321773 0.119515,-0.2823777 0.08274,-0.4202687 -0.02171,-0.081409 -0.09086,-0.1521237 -0.16547,-0.1891206 -0.161424,-0.080047 -0.360498,-0.064434 -0.537776,-0.035022 -0.347906,0.057721 -0.676721,0.2220469 -0.979027,0.4062597 -0.256128,0.1560732 -0.478059,0.3670267 -0.689456,0.5813713 -0.19057,0.1932269 -0.380839,0.3944815 -0.517093,0.6304027 -0.12333,0.2135455 -0.245506,0.44642 -0.261993,0.6934432 -0.01086,0.1627301 0.05001,0.325144 0.110313,0.4763045 0.107629,0.269788 0.255703,0.5276517 0.441252,0.7494787 0.149962,0.1792818 0.338683,0.3240422 0.530881,0.4552913 0.13565,0.092633 0.282791,0.1689975 0.434357,0.2311472 0.182085,0.074669 0.375773,0.1161552 0.565354,0.1681078 0.194276,0.053243 0.385315,0.1327428 0.586038,0.1470938 0.112916,0.00811 0.23075,0.00232 0.337833,-0.035025 0.06153,-0.021416 0.124853,-0.053454 0.16547,-0.1050677 0.03041,-0.038639 0.0401,-0.091319 0.04826,-0.1400897 0.0073,-0.043738 0.01507,-0.091449 0,-0.1330847 -0.06979,-0.1927565 -0.258019,-0.316393 -0.392992,-0.4692978 -0.192116,-0.2176397 -0.402277,-0.4184454 -0.592932,-0.6374073 -0.11464,-0.1316583 -0.261673,-0.2451792 -0.330939,-0.4062591 -0.05833,-0.1356577 -0.09361,-0.2967476 -0.05772,-0.4402249 z"
       id="path7730"
       sodipodi:nodetypes="sssssssssssssssssssssssss" />
    <path
       id="path7879"
       style="fill:#ffffff;fill-opacity:1;stroke:#010203;stroke-width:0.264583;stroke-linecap:butt;stroke-linejoin:miter;stroke-miterlimit:4;stroke-dasharray:none;stroke-opacity:1"
       d="m 90.047852,-6.1970173 c -0.08092,7.333e-4 -0.162609,0.010943 -0.240168,0.023806 -0.347907,0.05772 -0.67677,0.2220677 -0.979076,0.4062804 -0.0853,0.051979 -0.166743,0.110121 -0.245332,0.1723718 0.307049,0.017319 0.701584,0.03353 0.957363,0.021186 0.06848,-0.00332 0.137442,-0.010303 0.203958,-0.027171 0.05205,-0.013201 0.0975,-0.064715 0.150668,-0.057434 0.0557,0.00764 0.08596,0.075631 0.136567,0.1004774 0.08367,0.041082 0.177767,0.055829 0.268435,0.076534 0.02657,0.00606 0.06271,0.012603 0.09844,0.018697 0.01051,-0.021853 0.02037,-0.044007 0.02946,-0.066513 0.05336,-0.1321781 0.119526,-0.2823792 0.08275,-0.4202703 -0.02171,-0.081409 -0.09089,-0.1521206 -0.165496,-0.1891178 -0.0908,-0.045026 -0.193516,-0.059786 -0.297562,-0.058847 z" />
    <path
       id="path7881"
       style="fill:#ffffff;fill-opacity:1;stroke:#010203;stroke-width:0.264583;stroke-linecap:butt;stroke-linejoin:miter;stroke-miterlimit:4;stroke-dasharray:none;stroke-opacity:1"
       d="m 88.169006,-2.7159571 c -0.05671,3.862e-4 -0.113471,0.00452 -0.170197,0.00544 -0.03878,6.177e-4 -0.09374,0.00129 -0.145438,0.00194 0.01903,0.024579 0.03836,0.048854 0.05826,0.072632 0.149962,0.1792818 0.338714,0.3240597 0.530912,0.4553088 0.13565,0.092633 0.282763,0.1690011 0.434329,0.2311518 0.182085,0.074669 0.37582,0.1161148 0.565401,0.1680672 0.194276,0.053243 0.385267,0.1327325 0.585989,0.1470845 0.109903,0.00785 0.224433,0.0024 0.329206,-0.032278 0.04465,-0.019315 0.08722,-0.043119 0.12432,-0.073978 0.0647,-0.053828 0.129034,-0.1221626 0.149807,-0.2044551 0.03865,-0.1531205 -0.01586,-0.3194516 -0.06421,-0.4697013 -0.01964,-0.061033 -0.03838,-0.1324016 -0.0899,-0.1696143 -0.06596,-0.047647 -0.15888,-0.036353 -0.239771,-0.039146 -0.03817,-0.00129 -0.07643,-0.0012 -0.114722,6.73e-5 -0.01539,0.00516 -0.02659,0.00656 -0.03098,0.00176 -1.28e-4,-1.428e-4 -2.69e-4,-2.6e-4 -3.97e-4,-3.854e-4 -0.09205,0.0049 -0.183825,0.017232 -0.2734,0.037726 -0.04448,0.010177 -0.08373,0.057004 -0.128425,0.047813 -0.0287,-0.0059 -0.03709,-0.049665 -0.06421,-0.060867 -0.06215,-0.025662 -0.153504,-0.025027 -0.220574,-0.026437 -0.142697,-0.00305 -0.267271,-0.00609 -0.40871,0.013387 -0.05458,0.00748 -0.103944,0.056155 -0.158413,0.047813 -0.05596,-0.00857 -0.08816,-0.07583 -0.141268,-0.095702 -0.148325,-0.055483 -0.313067,-0.048569 -0.470936,-0.056497 -0.01889,-9.221e-4 -0.03776,-0.00129 -0.05667,-0.0012 z" />
    <path
       style="fill:#ffffff;fill-opacity:1;stroke:#000000;stroke-width:0.264583px;stroke-linecap:butt;stroke-linejoin:miter;stroke-opacity:1"
       d="m 93.993865,-3.9688017 c -0.124367,-0.40193 -0.787966,-1.676002 -0.540178,-2.368944 0.247787,-0.6929422 0.07258,-0.771139 0.626303,-1.0610174 0.553727,-0.2898784 1.860761,-0.1582856 2.141806,0.022623 0.281046,0.1809086 0.458175,0.3863574 0.563778,1.0383944 0.105603,0.652037 -0.563609,1.568587 -0.599647,2.368944 z"
       id="path2520"
       sodipodi:nodetypes="czzzzcc" />
    <path
       style="fill:none;stroke:#000000;stroke-width:0.264583px;stroke-linecap:butt;stroke-linejoin:miter;stroke-opacity:1"
       d="m 94.720871,-3.9687477 c -0.250966,-0.680697 -0.443571,-1.380846 -0.529167,-2.116666"
       id="path4358"
       sodipodi:nodetypes="cc" />
    <path
       style="fill:none;stroke:#000000;stroke-width:0.264583px;stroke-linecap:butt;stroke-linejoin:miter;stroke-opacity:1"
       d="m 95.514621,-3.9687477 c 0.209383,-0.599983 0.426306,-1.372508 0.529166,-2.38125"
       id="path4360"
       sodipodi:nodetypes="cc" />
    <g
       id="g7819"
       transform="matrix(-1,0,0,1,119.5917,-18.256249)">
      <rect
         style="fill:#ffffff;fill-opacity:1;stroke:#000000;stroke-width:0.264583;stroke-linecap:round;stroke-linejoin:round;stroke-miterlimit:4;stroke-dasharray:none;stroke-opacity:1"
         id="rect4940-3-3"
         width="1.8520833"
         height="2.1166666"
         x="19.049999"
         y="15.610418"
         ry="0.13229166" />
      <path
         style="fill:#ffffff;fill-opacity:1;stroke:#000000;stroke-width:0.264583px;stroke-linecap:butt;stroke-linejoin:miter;stroke-opacity:1"
         d="m 18.934876,15.552844 -0.136705,0.721244 2.449302,-0.01603 -0.21645,-0.689188 z"
         id="path6295-4" />
      <rect
         style="fill:#ffffff;fill-opacity:1;stroke:#000000;stroke-width:0.264583;stroke-linecap:round;stroke-linejoin:round;stroke-miterlimit:4;stroke-dasharray:none;stroke-opacity:1"
         id="rect8974-3-5"
         width="2.3812499"
         height="1.3229166"
         x="18.785414"
         y="14.287501"
         ry="0.13229166" />
      <path
         style="color:#000000;fill:#ffffff;fill-opacity:1;stroke:#000000;stroke-width:0.132293;stroke-linecap:round;stroke-linejoin:round;stroke-miterlimit:4;stroke-dasharray:none;stroke-opacity:1"
         d="m 21.030354,14.895386 c -0.07415,0 -0.134923,0.02169 -0.134923,0.04815 0,0.02646 0.06078,0.04815 0.134923,0.04815 h 0.342263 c 0.07415,0 0.134924,-0.02169 0.134924,-0.04815 0,-0.02646 -0.06078,-0.04815 -0.134924,-0.04815 z m 0,0.02416 h 0.342263 c 0.03795,0 0.06771,0.01044 0.06771,0.02399 0,0.01354 -0.02976,0.02399 -0.06771,0.02399 h -0.342263 c -0.03795,0 -0.06721,-0.01044 -0.06721,-0.02399 0,-0.01354 0.02926,-0.02399 0.06721,-0.02399 z"
         id="rect1000-2-9-1-9-5-6-4-5"
         sodipodi:nodetypes="ssssssssssssss" />
      <path
         style="fill:#ffffff;fill-opacity:1;stroke:#000000;stroke-width:0.264583px;stroke-linecap:butt;stroke-linejoin:miter;stroke-opacity:1"
         d="m 18.852161,14.287446 c -0.124366,-0.40193 -0.787966,-1.676002 -0.540178,-2.368944 0.247788,-0.692942 0.07258,-0.771139 0.626303,-1.061018 0.553727,-0.289878 1.860761,-0.158285 2.141806,0.02262 0.281046,0.180909 0.458175,0.386358 0.563778,1.038395 0.105603,0.652037 -0.563609,1.568587 -0.599647,2.368944 z"
         id="path2520-6"
         sodipodi:nodetypes="czzzzcc" />
      <path
         style="fill:none;stroke:#000000;stroke-width:0.264583px;stroke-linecap:butt;stroke-linejoin:miter;stroke-opacity:1"
         d="M 19.579167,14.2875 C 19.328202,13.606803 19.135596,12.906654 19.05,12.170834"
         id="path4358-8"
         sodipodi:nodetypes="cc" />
      <path
         style="fill:none;stroke:#000000;stroke-width:0.264583px;stroke-linecap:butt;stroke-linejoin:miter;stroke-opacity:1"
         d="m 20.372917,14.2875 c 0.209383,-0.599983 0.426306,-1.372508 0.529166,-2.38125"
         id="path4360-6"
         sodipodi:nodetypes="cc" />
    </g>
    <g
       id="g1953"
       transform="matrix(0.04178069,0,0,0.05710163,73.940586,-17.682198)"
       clip-path="url(#clipPath3352)"
       style="fill:#ffffff;fill-opacity:1;stroke:#000000;stroke-width:5.4169;stroke-miterlimit:4;stroke-dasharray:none;stroke-opacity:1">
      <path
         d="m 173.17267,172.82101 c 0.64546,15.94932 1.48955,31.89619 2.22666,47.8432 1.02686,23.54364 1.64283,47.10197 2.2144,70.66012 l -13.70691,7.02582 c -0.56762,-23.54805 -1.1792,-47.09629 -2.19892,-70.63003 -0.73683,-15.9687 -1.54873,-31.93831 -2.25908,-47.90646 z"
         id="path1891"
         style="opacity:1;fill:#ffffff;fill-opacity:1;stroke:#000000;stroke-width:5.41689;stroke-linecap:butt;stroke-linejoin:miter;stroke-miterlimit:4;stroke-dasharray:none;stroke-dashoffset:0;stroke-opacity:1" />
      <g
         transform="translate(-4.592518,-1.290634)"
         id="g1940"
         style="fill:#ffffff;fill-opacity:1;stroke:#000000;stroke-width:5.41689;stroke-miterlimit:4;stroke-dasharray:none;stroke-opacity:1">
        <use
           x="0"
           y="0"
           xlink:href="#path1891"
           id="use1905"
           transform="translate(430.2471,1.290635)"
           width="708.66138"
           height="885.82672"
           style="fill:#ffffff;fill-opacity:1;stroke:#000000;stroke-width:5.41689;stroke-miterlimit:4;stroke-dasharray:none;stroke-opacity:1" />
        <use
           x="0"
           y="0"
           xlink:href="#use1905"
           id="use1907"
           transform="translate(-30.12072)"
           width="708.66138"
           height="885.82672"
           style="fill:#ffffff;fill-opacity:1;stroke:#000000;stroke-width:5.41689;stroke-miterlimit:4;stroke-dasharray:none;stroke-opacity:1" />
        <use
           x="0"
           y="0"
           xlink:href="#use1907"
           id="use1909"
           transform="translate(-30.12066)"
           width="708.66138"
           height="885.82672"
           style="fill:#ffffff;fill-opacity:1;stroke:#000000;stroke-width:5.41689;stroke-miterlimit:4;stroke-dasharray:none;stroke-opacity:1" />
        <use
           x="0"
           y="0"
           xlink:href="#use1909"
           id="use1911"
           transform="translate(-30.12075)"
           width="708.66138"
           height="885.82672"
           style="fill:#ffffff;fill-opacity:1;stroke:#000000;stroke-width:5.41689;stroke-miterlimit:4;stroke-dasharray:none;stroke-opacity:1" />
      </g>
      <g
         transform="translate(3.099349,-2.830899)"
         id="g1921"
         style="fill:#ffffff;fill-opacity:1;stroke:#000000;stroke-width:5.41689;stroke-miterlimit:4;stroke-dasharray:none;stroke-opacity:1">
        <use
           x="0"
           y="0"
           xlink:href="#use1911"
           id="use1913"
           transform="translate(-90.36215,1.540264)"
           width="708.66138"
           height="885.82672"
           style="fill:#ffffff;fill-opacity:1;stroke:#000000;stroke-width:5.41689;stroke-miterlimit:4;stroke-dasharray:none;stroke-opacity:1" />
        <use
           x="0"
           y="0"
           xlink:href="#use1913"
           id="use1915"
           transform="translate(-28.7516)"
           width="708.66138"
           height="885.82672"
           style="fill:#ffffff;fill-opacity:1;stroke:#000000;stroke-width:5.41689;stroke-miterlimit:4;stroke-dasharray:none;stroke-opacity:1" />
        <use
           x="0"
           y="0"
           xlink:href="#use1915"
           id="use1917"
           transform="translate(-28.75164)"
           width="708.66138"
           height="885.82672"
           style="fill:#ffffff;fill-opacity:1;stroke:#000000;stroke-width:5.41689;stroke-miterlimit:4;stroke-dasharray:none;stroke-opacity:1" />
      </g>
      <g
         transform="translate(-1.53082,0.249629)"
         id="g1926"
         style="fill:#ffffff;fill-opacity:1;stroke:#000000;stroke-width:5.41689;stroke-miterlimit:4;stroke-dasharray:none;stroke-opacity:1">
        <use
           x="0"
           y="0"
           xlink:href="#path1891"
           id="use1903"
           transform="translate(84.20111,-0.249629)"
           width="708.66138"
           height="885.82672"
           style="fill:#ffffff;fill-opacity:1;stroke:#000000;stroke-width:5.41689;stroke-miterlimit:4;stroke-dasharray:none;stroke-opacity:1" />
        <use
           x="0"
           y="0"
           xlink:href="#use1917"
           id="use1919"
           transform="translate(-78.0401,-3.080528)"
           width="708.66138"
           height="885.82672"
           style="fill:#ffffff;fill-opacity:1;stroke:#000000;stroke-width:5.41689;stroke-miterlimit:4;stroke-dasharray:none;stroke-opacity:1" />
      </g>
      <g
         transform="translate(389.1733,-248.7456)"
         id="g1946"
         style="fill:#ffffff;fill-opacity:1;stroke:#000000;stroke-width:5.41689;stroke-miterlimit:4;stroke-dasharray:none;stroke-opacity:1">
        <use
           x="0"
           y="0"
           xlink:href="#path1891"
           id="use1930"
           transform="translate(246.3132,248.7456)"
           width="708.66138"
           height="885.82672"
           style="fill:#ffffff;fill-opacity:1;stroke:#000000;stroke-width:5.41689;stroke-miterlimit:4;stroke-dasharray:none;stroke-opacity:1" />
        <use
           x="0"
           y="0"
           xlink:href="#use1905"
           id="use1932"
           transform="translate(-214.0546,247.455)"
           width="708.66138"
           height="885.82672"
           style="fill:#ffffff;fill-opacity:1;stroke:#000000;stroke-width:5.41689;stroke-miterlimit:4;stroke-dasharray:none;stroke-opacity:1" />
        <use
           x="0"
           y="0"
           xlink:href="#use1907"
           id="use1934"
           transform="translate(-214.0546,247.455)"
           width="708.66138"
           height="885.82672"
           style="fill:#ffffff;fill-opacity:1;stroke:#000000;stroke-width:5.41689;stroke-miterlimit:4;stroke-dasharray:none;stroke-opacity:1" />
        <use
           x="0"
           y="0"
           xlink:href="#use1909"
           id="use1936"
           transform="translate(-214.0547,247.455)"
           width="708.66138"
           height="885.82672"
           style="fill:#ffffff;fill-opacity:1;stroke:#000000;stroke-width:5.41689;stroke-miterlimit:4;stroke-dasharray:none;stroke-opacity:1" />
        <path
           style="opacity:1;fill:#ffffff;fill-opacity:1;stroke:#000000;stroke-width:5.41689;stroke-linecap:butt;stroke-linejoin:miter;stroke-miterlimit:4;stroke-dasharray:none;stroke-dashoffset:0;stroke-opacity:1"
           id="path1938"
           d="m 290.7014,438.85715 c 14.45501,5.71662 29.7851,12.96251 44.32518,19.50493 31.58676,13.996 62.85114,28.86967 94.13455,43.68868 11.65211,5.33084 23.1316,11.0874 34.55126,17.00571 2.10431,1.07803 4.20862,2.15605 6.31293,3.23407 l -11.31954,8.41699 c -2.10546,-1.07996 -4.21091,-2.15992 -6.31636,-3.23986 -11.40394,-5.92289 -22.89802,-11.60795 -34.52604,-16.96315 -31.27503,-14.8216 -62.54245,-29.667 -94.12077,-43.66557 -15.01719,-6.75441 -30.86017,-12.81437 -45.14225,-21.06646 z" />
      </g>
    </g>
    <g
       aria-label="Slut"
       id="text1998"
       style="font-style:italic;font-weight:bold;font-size:4.93889px;line-height:1000%;font-family:Titillium;-inkscape-font-specification:'Titillium Bold Italic';letter-spacing:0px;word-spacing:0px;fill:#ffffff;stroke:#000000;stroke-width:0.264583px">
      <path
         d="m 2.8497896,2.6170381 c 0,0 -0.493889,-0.1876778 -1.032228,-0.1876778 -0.7062613,0 -1.1408836,0.4790723 -1.1408836,1.1013724 0,0.4445001 0.18767782,0.6469946 0.6321779,0.8494891 0.4346223,0.1975556 0.4988279,0.2568223 0.4988279,0.4445001 0,0.3704167 -0.2173112,0.4889501 -0.5877279,0.4889501 -0.3457223,0 -0.90381687,-0.098778 -0.90381687,-0.098778 L 0.20254456,5.7038443 c 0,0 0.50376678,0.2024945 1.02728914,0.2024945 0.760589,0 1.2692947,-0.4000501 1.2692947,-1.1606391 0,-0.4395612 -0.1185334,-0.6223002 -0.671689,-0.8692447 C 1.4224504,3.6937161 1.3681226,3.6344494 1.3681226,3.4517105 c 0,-0.2617612 0.1728611,-0.4395612 0.4691945,-0.4395612 0.3457223,0 0.8890002,0.0889 0.8890002,0.0889 z"
         id="path3023" />
      <path
         d="M 2.6719936,5.8470721 H 3.3338049 L 4.1289662,2.3898491 H 3.4671549 Z"
         id="path3025" />
      <path
         d="M 5.7736141,3.3776271 5.3933195,5.0370942 c 0,0 -0.31115,0.2963334 -0.4691945,0.2963334 -0.1679223,0 -0.2024945,-0.1037167 -0.2024945,-0.2864557 0,-0.1135944 0.059267,-0.3852334 0.0889,-0.5087056 L 5.0772306,3.3776271 H 4.4154193 L 4.1388415,4.5876552 C 4.1042693,4.730883 4.0351248,5.0469719 4.0351248,5.2099553 c 0,0.3852334 0.1531056,0.6963835 0.6025446,0.6963835 0.3259667,0 0.627239,-0.3012723 0.627239,-0.3012723 L 5.2352751,5.8470721 H 5.867453 l 0.5679723,-2.469445 z"
         id="path3027" />
      <path
         d="M 8.0948946,3.9406606 8.2331835,3.3776271 H 7.7146001 L 7.8578279,2.7454492 H 7.1960166 L 7.0527888,3.3776271 H 6.8009054 L 6.6527387,3.9406606 H 6.9194388 L 6.7021276,4.8691719 c -0.039511,0.1629834 -0.074083,0.3506612 -0.074083,0.5037668 0,0.2913945 0.1876778,0.5334001 0.5580945,0.5334001 0.2913945,0 0.5531557,-0.1135945 0.5531557,-0.1135945 l 0.054328,-0.4741334 c 0,0 -0.2074334,0.024694 -0.3358445,0.024694 -0.1037167,0 -0.1432278,-0.04445 -0.1432278,-0.1382889 0,-0.069144 0.019756,-0.1926167 0.039511,-0.2765778 L 7.58125,3.9406606 Z"
         id="path3029" />
    </g>
  </g>
</svg>
